<?xml version="1.0" encoding="UTF-8" standalone="no"?>
<!-- Created with Inkscape (http://www.inkscape.org/) -->

<svg
   version="1.1"
   id="svg2"
   xml:space="preserve"
   width="666.66669"
   height="496.81332"
   viewBox="0 0 666.66669 496.81332"
   xmlns="http://www.w3.org/2000/svg"
   xmlns:svg="http://www.w3.org/2000/svg"><defs
     id="defs6"><clipPath
       clipPathUnits="userSpaceOnUse"
       id="clipPath480"><path
         d="M 4420.57,1104.51 H 579.434 l -70.868,67.04 H 698.09 v 0 h 328.88 v 0 h 534.67 v 0 h 368.26 v 0 0 h 450.67 v 0 h 238.86 v 0 h 450.67 v 0 h 368.26 v 0 h 559.61 v 0 h 303.94 v 0 h 189.53 l -70.87,-67.04"
         id="path478" /></clipPath></defs><g
     id="g8"
     transform="matrix(1.3333333,0,0,-1.3333333,0,496.81333)"><g
       id="g10"
       transform="scale(0.1)"><path
         d="m 0,449.129 h 5000 v 2.5 H 0 Z"
         style="fill:#e7e8e5;fill-opacity:1;fill-rule:nonzero;stroke:none"
         id="path12" /><path
         d="M 685.195,353.898 H 524.59 v 2.5 h 160.605 v -2.5"
         style="fill:#e7e8e5;fill-opacity:1;fill-rule:nonzero;stroke:none"
         id="path14" /><path
         d="M 2246.67,381.031 H 1711.4 v 2.5 h 535.27 v -2.5"
         style="fill:#e7e8e5;fill-opacity:1;fill-rule:nonzero;stroke:none"
         id="path16" /><path
         d="m 695.203,261.039 h 362.535 v 2.5 H 695.203 Z"
         style="fill:#e7e8e5;fill-opacity:1;fill-rule:nonzero;stroke:none"
         id="path18" /><path
         d="m 3791.4,382.281 h 431.934 v 2.5 H 3791.4 Z"
         style="fill:#e7e8e5;fill-opacity:1;fill-rule:nonzero;stroke:none"
         id="path20" /><path
         d="m 4312.37,384.781 h 63.33 v -2.5 h -63.33 v 2.5"
         style="fill:#e7e8e5;fill-opacity:1;fill-rule:nonzero;stroke:none"
         id="path22" /><path
         d="M 3708.89,320.059 H 3170 v 2.5 h 538.89 v -2.5"
         style="fill:#e7e8e5;fill-opacity:1;fill-rule:nonzero;stroke:none"
         id="path24" /><path
         d="m 439.152,3723.59 c -30.101,0 -54.582,-24.48 -54.582,-54.57 V 954.699 c 0,-30.097 24.481,-54.578 54.582,-54.578 H 2370.14 c 30.08,0 54.57,24.481 54.57,54.578 V 3669.02 c 0,30.09 -24.49,54.57 -54.57,54.57 H 439.152 M 2370.14,897.621 H 439.152 c -31.476,0 -57.082,25.598 -57.082,57.078 V 3669.02 c 0,31.46 25.606,57.07 57.082,57.07 H 2370.14 c 31.46,0 57.07,-25.61 57.07,-57.07 V 954.699 c 0,-31.48 -25.61,-57.078 -57.07,-57.078"
         style="fill:#e7e8e5;fill-opacity:1;fill-rule:nonzero;stroke:none"
         id="path26" /><path
         d="m 2602.12,3723.59 c -30.09,0 -54.57,-24.48 -54.57,-54.57 V 954.699 c 0,-30.097 24.48,-54.578 54.57,-54.578 h 1930.99 c 30.09,0 54.58,24.481 54.58,54.578 V 3669.02 c 0,30.09 -24.49,54.57 -54.58,54.57 H 2602.12 M 4533.11,897.621 H 2602.12 c -31.47,0 -57.07,25.598 -57.07,57.078 V 3669.02 c 0,31.46 25.6,57.07 57.07,57.07 h 1930.99 c 31.47,0 57.08,-25.61 57.08,-57.07 V 954.699 c 0,-31.48 -25.61,-57.078 -57.08,-57.078"
         style="fill:#e7e8e5;fill-opacity:1;fill-rule:nonzero;stroke:none"
         id="path28" /><path
         d="m 3897.1,451.629 h 66.4102 v 835.93 H 3897.1 Z"
         style="fill:#f3f2f1;fill-opacity:1;fill-rule:nonzero;stroke:none"
         id="path30" /><path
         d="m 3934.61,451.629 h 57.7813 v 835.93 H 3934.61 Z"
         style="fill:#ededeb;fill-opacity:1;fill-rule:nonzero;stroke:none"
         id="path32" /><path
         d="m 2348.33,451.629 h 66.4102 v 835.93 H 2348.33 Z"
         style="fill:#f3f2f1;fill-opacity:1;fill-rule:nonzero;stroke:none"
         id="path34" /><path
         d="m 2385.85,451.629 h 57.7773 v 835.93 H 2385.85 Z"
         style="fill:#ededeb;fill-opacity:1;fill-rule:nonzero;stroke:none"
         id="path36" /><path
         d="m 4148.76,451.629 h 66.4102 v 835.93 H 4148.76 Z"
         style="fill:#f3f2f1;fill-opacity:1;fill-rule:nonzero;stroke:none"
         id="path38" /><path
         d="m 4186.28,451.629 h 57.7773 v 835.93 H 4186.28 Z"
         style="fill:#ededeb;fill-opacity:1;fill-rule:nonzero;stroke:none"
         id="path40" /><path
         d="m 2600,451.629 h 66.4102 v 835.93 H 2600 Z"
         style="fill:#f3f2f1;fill-opacity:1;fill-rule:nonzero;stroke:none"
         id="path42" /><path
         d="m 2348.33,1271.73 h 1895.73 v 31.6602 H 2348.33 Z"
         style="fill:#ededeb;fill-opacity:1;fill-rule:nonzero;stroke:none"
         id="path44" /><path
         d="m 2348.33,1271.73 h 289.18 v 31.66 h -289.18 v -31.66"
         style="fill:#e2e2e0;fill-opacity:1;fill-rule:nonzero;stroke:none"
         id="path46" /><path
         d="m 2637.51,451.629 h 57.7773 v 835.93 H 2637.51 Z"
         style="fill:#ededeb;fill-opacity:1;fill-rule:nonzero;stroke:none"
         id="path48" /><path
         d="m 3117.1,1303.39 h 179.34 v 608.801 H 3117.1 Z"
         style="fill:#e7e8e5;fill-opacity:1;fill-rule:nonzero;stroke:none"
         id="path50" /><path
         d="m 3782.59,1303.39 h -595.2 l -89.89,712.55 h 595.2 l 89.89,-712.55"
         style="fill:#dadbd8;fill-opacity:1;fill-rule:nonzero;stroke:none"
         id="path52" /><path
         d="m 3817.59,1303.39 h -614.8 l -89.89,712.55 h 614.8 l 89.89,-712.55"
         style="fill:#ededeb;fill-opacity:1;fill-rule:nonzero;stroke:none"
         id="path54" /><path
         d="m 3472.68,1303.39 h -119.29 l 33.6,712.55 h 119.28 l -33.59,-712.55"
         style="fill:#fafaf9;fill-opacity:1;fill-rule:nonzero;stroke:none"
         id="path56" /><path
         d="m 3609.41,1303.39 h -117.43 l 33.6,712.55 h 117.43 l -33.6,-712.55"
         style="fill:#fafaf9;fill-opacity:1;fill-rule:nonzero;stroke:none"
         id="path58" /><path
         d="M 2763.22,2340.63 H 4309.55 V 3550.49 H 2763.22 Z"
         style="fill:#e2e2e0;fill-opacity:1;fill-rule:nonzero;stroke:none"
         id="path60" /><path
         d="M 2784.9,2340.63 H 4355.94 V 3550.49 H 2784.9 Z"
         style="fill:#ededeb;fill-opacity:1;fill-rule:nonzero;stroke:none"
         id="path62" /><path
         d="M 4309.55,2340.63 H 2763.22 v -40.49 h 1546.33 v 40.49"
         style="fill:#e2e2e0;fill-opacity:1;fill-rule:nonzero;stroke:none"
         id="path64" /><path
         d="M 4380.67,2340.63 H 2809.63 v -40.49 h 1571.04 v 40.49"
         style="fill:#ededeb;fill-opacity:1;fill-rule:nonzero;stroke:none"
         id="path66" /><path
         d="M 2849.85,2405.58 H 4290.99 V 3485.54 H 2849.85 Z"
         style="fill:#fafaf9;fill-opacity:1;fill-rule:nonzero;stroke:none"
         id="path68" /><path
         d="m 3638.52,2405.58 104.01,1079.96 h 179.95 L 3818.47,2405.58 h -179.95"
         style="fill:#ffffff;fill-opacity:1;fill-rule:nonzero;stroke:none"
         id="path70" /><path
         d="m 3184.32,2405.58 104.01,1079.96 h 179.95 L 3364.27,2405.58 h -179.95"
         style="fill:#ffffff;fill-opacity:1;fill-rule:nonzero;stroke:none"
         id="path72" /><path
         d="m 2879.92,2771.66 c -2.75,0 -4.97,2.22 -4.97,4.97 v 666.65 c 0,2.75 2.22,4.97 4.97,4.97 2.75,0 4.97,-2.22 4.97,-4.97 v -666.65 c 0,-2.75 -2.22,-4.97 -4.97,-4.97"
         style="fill:#ededeb;fill-opacity:1;fill-rule:nonzero;stroke:none"
         id="path74" /><path
         d="m 3857.13,2405.58 104.01,1079.96 h 70.15 l -104,-1079.96 h -70.16"
         style="fill:#ffffff;fill-opacity:1;fill-rule:nonzero;stroke:none"
         id="path76" /><path
         d="m 4282.74,2405.58 h 8.2539 v 1079.96 h -8.2539 z"
         style="fill:#e2e2e0;fill-opacity:1;fill-rule:nonzero;stroke:none"
         id="path78" /><path
         d="m 4371.3,3367.79 h -4.91 l -1.07,16.47 h -9.38 v 76.03 h 9.38 l 5.98,-92.5"
         style="fill:#ececea;fill-opacity:1;fill-rule:nonzero;stroke:none"
         id="path80" /><path
         d="m 4355.94,3384.26 h -64.95 v 76.03 h 64.95 v -76.03 m -1506.09,0 h -25.94 l -4.91,76.03 h 30.85 v -76.03"
         style="fill:#e4e4e2;fill-opacity:1;fill-rule:nonzero;stroke:none"
         id="path82" /><path
         d="m 4282.74,3384.26 h -261.2 l 7.32,76.03 h 253.88 v -76.03 m -331.36,0 h -38.65 l 7.32,76.03 h 38.66 l -7.33,-76.03 m -218.6,0 h -274.25 l 7.32,76.03 h 274.25 l -7.32,-76.03 m -454.2,0 h -393.69 v 59.02 c 0,2.75 -2.22,4.97 -4.97,4.97 -2.75,0 -4.97,-2.22 -4.97,-4.97 v -59.02 h -25.1 v 76.03 h 436.05 l -7.32,-76.03"
         style="fill:#eaeae7;fill-opacity:1;fill-rule:nonzero;stroke:none"
         id="path84" /><path
         d="m 3912.73,3384.26 h -179.95 l 7.32,76.03 h 179.95 l -7.32,-76.03"
         style="fill:#ececea;fill-opacity:1;fill-rule:nonzero;stroke:none"
         id="path86" /><path
         d="m 3458.53,3384.26 h -179.95 l 7.32,76.03 h 179.95 l -7.32,-76.03"
         style="fill:#ececea;fill-opacity:1;fill-rule:nonzero;stroke:none"
         id="path88" /><path
         d="m 2884.89,3384.26 h -9.94 v 59.02 c 0,2.75 2.22,4.97 4.97,4.97 2.75,0 4.97,-2.22 4.97,-4.97 v -59.02"
         style="fill:#e4e4e2;fill-opacity:1;fill-rule:nonzero;stroke:none"
         id="path90" /><path
         d="m 4021.54,3384.26 h -70.16 l 7.33,76.03 h 70.15 l -7.32,-76.03"
         style="fill:#ececea;fill-opacity:1;fill-rule:nonzero;stroke:none"
         id="path92" /><path
         d="m 4282.74,3384.26 h 8.2539 v 76.0352 h -8.2539 z"
         style="fill:#dddedb;fill-opacity:1;fill-rule:nonzero;stroke:none"
         id="path94" /><path
         d="m 4371.3,3215.71 h -4.91 l -1.07,16.47 h -9.38 v 59.57 h 10.45 l 4.91,-76.04"
         style="fill:#ececea;fill-opacity:1;fill-rule:nonzero;stroke:none"
         id="path96" /><path
         d="m 4355.94,3232.18 h -64.95 v 59.57 h 64.95 v -59.57 m -1506.09,0 h -25.94 l -4.91,76.04 h 4.91 l 1.07,-16.47 h 24.87 v -59.57"
         style="fill:#e4e4e2;fill-opacity:1;fill-rule:nonzero;stroke:none"
         id="path98" /><path
         d="m 4282.74,3232.18 h -275.85 l 5.74,59.57 h 270.11 v -59.57 m -346,0 h -38.66 l 5.74,59.57 h 38.65 l -5.73,-59.57 m -218.61,0 h -274.25 l 5.74,59.57 h 274.25 l -5.74,-59.57 m -454.2,0 h -379.04 v 59.57 h 384.78 l -5.74,-59.57 m -388.98,0 h -25.1 v 59.57 h 25.1 v -59.57"
         style="fill:#eaeae7;fill-opacity:1;fill-rule:nonzero;stroke:none"
         id="path100" /><path
         d="m 3898.08,3232.18 h -179.95 l 5.74,59.57 h 179.95 l -5.74,-59.57"
         style="fill:#ececea;fill-opacity:1;fill-rule:nonzero;stroke:none"
         id="path102" /><path
         d="m 3443.88,3232.18 h -179.95 l 5.74,59.57 h 179.95 l -5.74,-59.57"
         style="fill:#ececea;fill-opacity:1;fill-rule:nonzero;stroke:none"
         id="path104" /><path
         d="m 2874.95,3232.18 h 9.9414 v 59.5664 h -9.9414 z"
         style="fill:#e4e4e2;fill-opacity:1;fill-rule:nonzero;stroke:none"
         id="path106" /><path
         d="m 4006.89,3232.18 h -70.15 l 5.73,59.57 h 70.16 l -5.74,-59.57"
         style="fill:#ececea;fill-opacity:1;fill-rule:nonzero;stroke:none"
         id="path108" /><path
         d="m 4282.74,3232.18 h 8.2539 v 59.5664 h -8.2539 z"
         style="fill:#dddedb;fill-opacity:1;fill-rule:nonzero;stroke:none"
         id="path110" /><path
         d="m 4371.3,3063.63 h -4.91 l -1.07,16.48 h -9.38 v 59.56 h 10.45 l 4.91,-76.04"
         style="fill:#ececea;fill-opacity:1;fill-rule:nonzero;stroke:none"
         id="path112" /><path
         d="m 4355.94,3080.11 h -64.95 v 59.56 h 64.95 v -59.56 m -1506.09,0 h -25.94 l -4.91,76.03 h 4.91 l 1.07,-16.47 h 24.87 v -59.56"
         style="fill:#e4e4e2;fill-opacity:1;fill-rule:nonzero;stroke:none"
         id="path114" /><path
         d="m 4282.74,3080.11 h -290.49 l 5.73,59.56 h 284.76 v -59.56 m -360.65,0 h -38.66 l 5.74,59.56 h 38.66 l -5.74,-59.56 m -218.61,0 h -274.25 l 5.74,59.56 h 274.25 l -5.74,-59.56 m -454.2,0 h -364.39 v 59.56 h 370.13 l -5.74,-59.56 m -374.33,0 h -25.1 v 59.56 h 25.1 v -59.56"
         style="fill:#eaeae7;fill-opacity:1;fill-rule:nonzero;stroke:none"
         id="path116" /><path
         d="m 3883.43,3080.11 h -179.95 l 5.74,59.56 h 179.95 l -5.74,-59.56"
         style="fill:#ececea;fill-opacity:1;fill-rule:nonzero;stroke:none"
         id="path118" /><path
         d="m 3429.23,3080.11 h -179.95 l 5.74,59.56 h 179.95 l -5.74,-59.56"
         style="fill:#ececea;fill-opacity:1;fill-rule:nonzero;stroke:none"
         id="path120" /><path
         d="m 2874.95,3080.11 h 9.9414 v 59.5625 h -9.9414 z"
         style="fill:#e4e4e2;fill-opacity:1;fill-rule:nonzero;stroke:none"
         id="path122" /><path
         d="m 3992.25,3080.11 h -70.16 l 5.74,59.56 h 70.15 l -5.73,-59.56"
         style="fill:#ececea;fill-opacity:1;fill-rule:nonzero;stroke:none"
         id="path124" /><path
         d="m 4282.74,3080.11 h 8.2539 v 59.5625 h -8.2539 z"
         style="fill:#dddedb;fill-opacity:1;fill-rule:nonzero;stroke:none"
         id="path126" /><path
         d="m 4371.3,2911.56 h -4.91 l -1.07,16.47 h -9.38 v 59.56 h 10.45 l 4.91,-76.03"
         style="fill:#ececea;fill-opacity:1;fill-rule:nonzero;stroke:none"
         id="path128" /><path
         d="m 4355.94,2928.03 h -64.95 v 59.56 h 64.95 v -59.56 m -1506.09,0 h -25.94 l -4.91,76.04 h 4.91 l 1.07,-16.48 h 24.87 v -59.56"
         style="fill:#e4e4e2;fill-opacity:1;fill-rule:nonzero;stroke:none"
         id="path130" /><path
         d="M 4282.74,2928.03 H 3977.6 l 5.74,59.56 h 299.4 v -59.56 m -375.3,0 h -38.65 l 5.73,59.56 h 38.66 l -5.74,-59.56 m -218.6,0 h -274.25 l 5.74,59.56 h 274.25 l -5.74,-59.56 m -454.2,0 h -349.75 v 59.56 h 355.48 l -5.73,-59.56 m -359.69,0 h -25.1 v 59.56 h 25.1 v -59.56"
         style="fill:#eaeae7;fill-opacity:1;fill-rule:nonzero;stroke:none"
         id="path132" /><path
         d="m 3868.79,2928.03 h -179.95 l 5.74,59.56 h 179.94 l -5.73,-59.56"
         style="fill:#ececea;fill-opacity:1;fill-rule:nonzero;stroke:none"
         id="path134" /><path
         d="m 3414.59,2928.03 h -179.95 l 5.73,59.56 h 179.96 l -5.74,-59.56"
         style="fill:#ececea;fill-opacity:1;fill-rule:nonzero;stroke:none"
         id="path136" /><path
         d="m 2874.95,2928.03 h 9.9414 v 59.5664 h -9.9414 z"
         style="fill:#e4e4e2;fill-opacity:1;fill-rule:nonzero;stroke:none"
         id="path138" /><path
         d="m 3977.6,2928.03 h -70.16 l 5.74,59.56 h 70.16 l -5.74,-59.56"
         style="fill:#ececea;fill-opacity:1;fill-rule:nonzero;stroke:none"
         id="path140" /><path
         d="m 4282.74,2928.03 h 8.2539 v 59.5664 h -8.2539 z"
         style="fill:#dddedb;fill-opacity:1;fill-rule:nonzero;stroke:none"
         id="path142" /><path
         d="m 4371.3,2759.48 h -4.91 l -1.07,16.47 h -9.38 v 59.57 h 10.45 l 4.91,-76.04"
         style="fill:#ececea;fill-opacity:1;fill-rule:nonzero;stroke:none"
         id="path144" /><path
         d="m 4355.94,2775.95 h -64.95 v 59.57 h 64.95 v -59.57 m -1506.74,2.55 c -0.62,0 -1.25,0.05 -1.87,0.13 -6,0.78 -12.07,1.19 -18.18,1.21 -1.94,0.01 -3.83,0.4 -5.56,1.15 l -4.59,71 h 4.91 l 1.07,-16.47 h 24.87 v -57 c -0.22,-0.01 -0.43,-0.02 -0.65,-0.02"
         style="fill:#e4e4e2;fill-opacity:1;fill-rule:nonzero;stroke:none"
         id="path146" /><path
         d="m 4282.74,2775.95 h -319.78 l 5.73,59.57 h 314.05 v -59.57 m -389.94,0 h -38.66 l 5.74,59.57 h 38.66 l -5.74,-59.57 m -218.61,0 h -274.25 l 5.74,59.57 h 274.25 l -5.74,-59.57 m -454.2,0 h -316.44 l -18.66,9.24 v 50.33 h 340.84 l -5.74,-59.57 m -370.14,2.57 v 57 h 25.1 v -46.22 c -0.6,0.08 -1.2,0.13 -1.8,0.13 -2.79,0 -5.56,-0.87 -7.91,-2.55 l -8.22,-5.9 c -2.12,-1.53 -4.61,-2.34 -7.17,-2.46"
         style="fill:#eaeae7;fill-opacity:1;fill-rule:nonzero;stroke:none"
         id="path148" /><path
         d="m 3854.14,2775.95 h -179.95 l 5.74,59.57 h 179.95 l -5.74,-59.57"
         style="fill:#ececea;fill-opacity:1;fill-rule:nonzero;stroke:none"
         id="path150" /><path
         d="m 3399.94,2775.95 h -179.95 l 5.74,59.57 h 179.95 l -5.74,-59.57"
         style="fill:#ececea;fill-opacity:1;fill-rule:nonzero;stroke:none"
         id="path152" /><path
         d="m 2884.89,2785.19 -5.73,2.83 c -1.35,0.66 -2.77,1.09 -4.21,1.28 v 46.22 h 9.94 v -50.33"
         style="fill:#e4e4e2;fill-opacity:1;fill-rule:nonzero;stroke:none"
         id="path154" /><path
         d="m 3962.96,2775.95 h -70.16 l 5.74,59.57 h 70.15 l -5.73,-59.57"
         style="fill:#ececea;fill-opacity:1;fill-rule:nonzero;stroke:none"
         id="path156" /><path
         d="m 4282.74,2775.95 h 8.2539 v 59.5664 h -8.2539 z"
         style="fill:#dddedb;fill-opacity:1;fill-rule:nonzero;stroke:none"
         id="path158" /><path
         d="m 4371.3,2607.4 h -4.91 l -1.07,16.48 h -9.38 v 59.56 h 10.45 l 4.91,-76.04"
         style="fill:#ececea;fill-opacity:1;fill-rule:nonzero;stroke:none"
         id="path160" /><path
         d="m 4355.94,2623.88 h -64.95 v 59.56 h 64.95 v -59.56 m -1506.09,0 h -25.94 l -3.76,58.23 c 2.77,0.47 5.55,0.7 8.3,0.7 7.48,0 14.78,-1.69 21.4,-4.82 v -54.11"
         style="fill:#e4e4e2;fill-opacity:1;fill-rule:nonzero;stroke:none"
         id="path162" /><path
         d="m 4282.74,2623.88 h -334.43 l 5.74,59.56 h 328.69 v -59.56 m -404.59,0 h -38.65 l 5.73,59.56 h 38.66 l -5.74,-59.56 m -218.6,0 H 3385.3 l 5.73,59.56 h 274.25 l -5.73,-59.56 m -454.2,0 h -230 c 0.16,2.69 0.25,5.4 0.26,8.11 0.01,3.45 1.24,6.79 3.61,9.3 l 6.94,7.36 c 2.42,2.56 3.71,5.92 3.7,9.34 0,1.44 -0.24,2.89 -0.71,4.3 l -7.15,21.15 h 229.08 l -5.73,-59.56 m -327.56,0 h -27.94 v 54.11 c 11.87,-5.61 21.54,-15.84 26.07,-29.25 1.8,-5.33 2.66,-10.74 2.65,-16.07 0,-2.97 -0.26,-5.91 -0.78,-8.79"
         style="fill:#eaeae7;fill-opacity:1;fill-rule:nonzero;stroke:none"
         id="path164" /><path
         d="m 3839.5,2623.88 h -179.95 l 5.73,59.56 h 179.95 l -5.73,-59.56"
         style="fill:#ececea;fill-opacity:1;fill-rule:nonzero;stroke:none"
         id="path166" /><path
         d="m 3385.3,2623.88 h -179.95 l 5.73,59.56 h 179.95 l -5.73,-59.56"
         style="fill:#ececea;fill-opacity:1;fill-rule:nonzero;stroke:none"
         id="path168" /><path
         d="m 3948.31,2623.88 h -70.16 l 5.74,59.56 h 70.16 l -5.74,-59.56"
         style="fill:#ececea;fill-opacity:1;fill-rule:nonzero;stroke:none"
         id="path170" /><path
         d="m 4282.74,2623.88 h 8.2539 v 59.5625 h -8.2539 z"
         style="fill:#dddedb;fill-opacity:1;fill-rule:nonzero;stroke:none"
         id="path172" /><path
         d="m 4371.3,3291.75 h -4.91 l -1.07,16.47 h -9.38 v 59.57 h 10.45 l 4.91,-76.04"
         style="fill:#ececea;fill-opacity:1;fill-rule:nonzero;stroke:none"
         id="path174" /><path
         d="m 4355.94,3308.22 h -64.95 v 59.57 h 64.95 v -59.57 m -1506.09,0 h -25.94 l -4.91,76.04 h 4.91 l 1.07,-16.47 h 24.87 v -59.57"
         style="fill:#e4e4e2;fill-opacity:1;fill-rule:nonzero;stroke:none"
         id="path176" /><path
         d="m 4282.74,3308.22 h -268.52 l 5.73,59.57 h 262.79 v -59.57 m -338.68,0 h -38.66 l 5.74,59.57 h 38.66 l -5.74,-59.57 m -218.61,0 H 3451.2 l 5.74,59.57 h 274.25 l -5.74,-59.57 m -454.2,0 h -386.36 v 59.57 h 392.1 l -5.74,-59.57 m -396.3,0 h -25.1 v 59.57 h 25.1 v -59.57"
         style="fill:#eaeae7;fill-opacity:1;fill-rule:nonzero;stroke:none"
         id="path178" /><path
         d="m 3905.4,3308.22 h -179.95 l 5.74,59.57 h 179.95 l -5.74,-59.57"
         style="fill:#ececea;fill-opacity:1;fill-rule:nonzero;stroke:none"
         id="path180" /><path
         d="m 3451.2,3308.22 h -179.95 l 5.74,59.57 h 179.95 l -5.74,-59.57"
         style="fill:#ececea;fill-opacity:1;fill-rule:nonzero;stroke:none"
         id="path182" /><path
         d="m 2874.95,3308.22 h 9.9414 v 59.5664 h -9.9414 z"
         style="fill:#e4e4e2;fill-opacity:1;fill-rule:nonzero;stroke:none"
         id="path184" /><path
         d="m 4014.22,3308.22 h -70.16 l 5.74,59.57 h 70.15 l -5.73,-59.57"
         style="fill:#ececea;fill-opacity:1;fill-rule:nonzero;stroke:none"
         id="path186" /><path
         d="m 4282.74,3308.22 h 8.2539 v 59.5664 h -8.2539 z"
         style="fill:#dddedb;fill-opacity:1;fill-rule:nonzero;stroke:none"
         id="path188" /><path
         d="m 4366.39,3367.79 h -10.45 v 16.47 h 9.38 l 1.07,-16.47"
         style="fill:#e3e4e1;fill-opacity:1;fill-rule:nonzero;stroke:none"
         id="path190" /><path
         d="m 4355.94,3367.79 h -64.95 v 16.47 h 64.95 v -16.47 m -1506.09,0 h -24.87 l -1.07,16.47 h 25.94 v -16.47"
         style="fill:#dedfdc;fill-opacity:1;fill-rule:nonzero;stroke:none"
         id="path192" /><path
         d="m 4282.74,3367.79 h -262.79 l 1.59,16.47 h 261.2 v -16.47 m -332.94,0 h -38.66 l 1.59,16.47 h 38.65 l -1.58,-16.47 m -218.61,0 h -274.25 l 1.59,16.47 h 274.25 l -1.59,-16.47 m -454.2,0 h -392.1 v 16.47 h 393.69 l -1.59,-16.47 m -402.04,0 h -25.1 v 16.47 h 25.1 v -16.47"
         style="fill:#e2e2e0;fill-opacity:1;fill-rule:nonzero;stroke:none"
         id="path194" /><path
         d="m 3911.14,3367.79 h -179.95 l 1.59,16.47 h 179.95 l -1.59,-16.47"
         style="fill:#e3e3e1;fill-opacity:1;fill-rule:nonzero;stroke:none"
         id="path196" /><path
         d="m 3456.94,3367.79 h -179.95 l 1.59,16.47 h 179.95 l -1.59,-16.47"
         style="fill:#e3e3e1;fill-opacity:1;fill-rule:nonzero;stroke:none"
         id="path198" /><path
         d="m 2874.95,3367.79 h 9.9414 v 16.4727 h -9.9414 z"
         style="fill:#dedfdc;fill-opacity:1;fill-rule:nonzero;stroke:none"
         id="path200" /><path
         d="m 4019.95,3367.79 h -70.15 l 1.58,16.47 h 70.16 l -1.59,-16.47"
         style="fill:#e3e3e1;fill-opacity:1;fill-rule:nonzero;stroke:none"
         id="path202" /><path
         d="m 4282.74,3367.79 h 8.2539 v 16.4727 h -8.2539 z"
         style="fill:#dbdcd9;fill-opacity:1;fill-rule:nonzero;stroke:none"
         id="path204" /><path
         d="m 4366.39,3291.75 h -10.45 v 16.47 h 9.38 l 1.07,-16.47"
         style="fill:#e3e4e1;fill-opacity:1;fill-rule:nonzero;stroke:none"
         id="path206" /><path
         d="m 4355.94,3291.75 h -64.95 v 16.47 h 64.95 v -16.47 m -1506.09,0 h -24.87 l -1.07,16.47 h 25.94 v -16.47"
         style="fill:#dedfdc;fill-opacity:1;fill-rule:nonzero;stroke:none"
         id="path208" /><path
         d="m 4282.74,3291.75 h -270.11 l 1.59,16.47 h 268.52 v -16.47 m -340.27,0 h -38.65 l 1.58,16.47 h 38.66 l -1.59,-16.47 m -218.6,0 h -274.25 l 1.58,16.47 h 274.25 l -1.58,-16.47 m -454.2,0 h -384.78 v 16.47 h 386.36 l -1.58,-16.47 m -394.72,0 h -25.1 v 16.47 h 25.1 v -16.47"
         style="fill:#e2e2e0;fill-opacity:1;fill-rule:nonzero;stroke:none"
         id="path210" /><path
         d="m 3903.82,3291.75 h -179.95 l 1.58,16.47 h 179.95 l -1.58,-16.47"
         style="fill:#e3e3e1;fill-opacity:1;fill-rule:nonzero;stroke:none"
         id="path212" /><path
         d="m 3449.62,3291.75 h -179.95 l 1.58,16.47 h 179.95 l -1.58,-16.47"
         style="fill:#e3e3e1;fill-opacity:1;fill-rule:nonzero;stroke:none"
         id="path214" /><path
         d="m 2874.95,3291.75 h 9.9414 v 16.4727 h -9.9414 z"
         style="fill:#dedfdc;fill-opacity:1;fill-rule:nonzero;stroke:none"
         id="path216" /><path
         d="m 4012.63,3291.75 h -70.16 l 1.59,16.47 h 70.16 l -1.59,-16.47"
         style="fill:#e3e3e1;fill-opacity:1;fill-rule:nonzero;stroke:none"
         id="path218" /><path
         d="m 4282.74,3291.75 h 8.2539 v 16.4727 h -8.2539 z"
         style="fill:#dbdcd9;fill-opacity:1;fill-rule:nonzero;stroke:none"
         id="path220" /><path
         d="m 4371.3,3139.67 h -4.91 l -1.07,16.47 h -9.38 v 59.57 h 10.45 l 4.91,-76.04"
         style="fill:#ececea;fill-opacity:1;fill-rule:nonzero;stroke:none"
         id="path222" /><path
         d="m 4355.94,3156.14 h -64.95 v 59.57 h 64.95 v -59.57 m -1506.09,0 h -25.94 l -4.91,76.04 h 4.91 l 1.07,-16.47 h 24.87 v -59.57"
         style="fill:#e4e4e2;fill-opacity:1;fill-rule:nonzero;stroke:none"
         id="path224" /><path
         d="m 4282.74,3156.14 h -283.17 l 5.74,59.57 h 277.43 v -59.57 m -353.33,0 h -38.65 l 5.73,59.57 h 38.66 l -5.74,-59.57 m -218.6,0 h -274.25 l 5.73,59.57 h 274.25 l -5.73,-59.57 m -454.2,0 h -371.72 v 59.57 h 377.45 l -5.73,-59.57 m -381.66,0 h -25.1 v 59.57 h 25.1 v -59.57"
         style="fill:#eaeae7;fill-opacity:1;fill-rule:nonzero;stroke:none"
         id="path226" /><path
         d="m 3890.76,3156.14 h -179.95 l 5.73,59.57 h 179.95 l -5.73,-59.57"
         style="fill:#ececea;fill-opacity:1;fill-rule:nonzero;stroke:none"
         id="path228" /><path
         d="m 3436.56,3156.14 h -179.95 l 5.73,59.57 h 179.95 l -5.73,-59.57"
         style="fill:#ececea;fill-opacity:1;fill-rule:nonzero;stroke:none"
         id="path230" /><path
         d="m 2874.95,3156.14 h 9.9414 v 59.5625 h -9.9414 z"
         style="fill:#e4e4e2;fill-opacity:1;fill-rule:nonzero;stroke:none"
         id="path232" /><path
         d="m 3999.57,3156.14 h -70.16 l 5.74,59.57 h 70.16 l -5.74,-59.57"
         style="fill:#ececea;fill-opacity:1;fill-rule:nonzero;stroke:none"
         id="path234" /><path
         d="m 4282.74,3156.14 h 8.2539 v 59.5625 h -8.2539 z"
         style="fill:#dddedb;fill-opacity:1;fill-rule:nonzero;stroke:none"
         id="path236" /><path
         d="m 4366.39,3215.71 h -10.45 v 16.47 h 9.38 l 1.07,-16.47"
         style="fill:#e3e4e1;fill-opacity:1;fill-rule:nonzero;stroke:none"
         id="path238" /><path
         d="m 4355.94,3215.71 h -64.95 v 16.47 h 64.95 v -16.47 m -1506.09,0 h -24.87 l -1.07,16.47 h 25.94 v -16.47"
         style="fill:#dedfdc;fill-opacity:1;fill-rule:nonzero;stroke:none"
         id="path240" /><path
         d="m 4282.74,3215.71 h -277.43 l 1.58,16.47 h 275.85 v -16.47 m -347.59,0 h -38.66 l 1.59,16.47 h 38.66 l -1.59,-16.47 m -218.61,0 h -274.25 l 1.59,16.47 h 274.25 l -1.59,-16.47 m -454.2,0 h -377.45 v 16.47 h 379.04 l -1.59,-16.47 m -387.39,0 h -25.1 v 16.47 h 25.1 v -16.47"
         style="fill:#e2e2e0;fill-opacity:1;fill-rule:nonzero;stroke:none"
         id="path242" /><path
         d="m 3896.49,3215.71 h -179.95 l 1.59,16.47 h 179.95 l -1.59,-16.47"
         style="fill:#e3e3e1;fill-opacity:1;fill-rule:nonzero;stroke:none"
         id="path244" /><path
         d="m 3442.29,3215.71 h -179.95 l 1.59,16.47 h 179.95 l -1.59,-16.47"
         style="fill:#e3e3e1;fill-opacity:1;fill-rule:nonzero;stroke:none"
         id="path246" /><path
         d="m 2874.95,3215.71 h 9.9414 v 16.4727 h -9.9414 z"
         style="fill:#dedfdc;fill-opacity:1;fill-rule:nonzero;stroke:none"
         id="path248" /><path
         d="m 4005.31,3215.71 h -70.16 l 1.59,16.47 h 70.15 l -1.58,-16.47"
         style="fill:#e3e3e1;fill-opacity:1;fill-rule:nonzero;stroke:none"
         id="path250" /><path
         d="m 4282.74,3215.71 h 8.2539 v 16.4727 h -8.2539 z"
         style="fill:#dbdcd9;fill-opacity:1;fill-rule:nonzero;stroke:none"
         id="path252" /><path
         d="m 4366.39,3139.67 h -10.45 v 16.47 h 9.38 l 1.07,-16.47"
         style="fill:#e3e4e1;fill-opacity:1;fill-rule:nonzero;stroke:none"
         id="path254" /><path
         d="m 4355.94,3139.67 h -64.95 v 16.47 h 64.95 v -16.47 m -1506.09,0 h -24.87 l -1.07,16.47 h 25.94 v -16.47"
         style="fill:#dedfdc;fill-opacity:1;fill-rule:nonzero;stroke:none"
         id="path256" /><path
         d="m 4282.74,3139.67 h -284.76 l 1.59,16.47 h 283.17 v -16.47 m -354.91,0 h -38.66 l 1.59,16.47 h 38.65 l -1.58,-16.47 m -218.61,0 h -274.25 l 1.59,16.47 h 274.25 l -1.59,-16.47 m -454.2,0 h -370.13 v 16.47 h 371.72 l -1.59,-16.47 m -380.07,0 h -25.1 v 16.47 h 25.1 v -16.47"
         style="fill:#e2e2e0;fill-opacity:1;fill-rule:nonzero;stroke:none"
         id="path258" /><path
         d="m 3889.17,3139.67 h -179.95 l 1.59,16.47 h 179.95 l -1.59,-16.47"
         style="fill:#e3e3e1;fill-opacity:1;fill-rule:nonzero;stroke:none"
         id="path260" /><path
         d="m 3434.97,3139.67 h -179.95 l 1.59,16.47 h 179.95 l -1.59,-16.47"
         style="fill:#e3e3e1;fill-opacity:1;fill-rule:nonzero;stroke:none"
         id="path262" /><path
         d="m 2874.95,3139.67 h 9.9414 v 16.4766 h -9.9414 z"
         style="fill:#dedfdc;fill-opacity:1;fill-rule:nonzero;stroke:none"
         id="path264" /><path
         d="m 3997.98,3139.67 h -70.15 l 1.58,16.47 h 70.16 l -1.59,-16.47"
         style="fill:#e3e3e1;fill-opacity:1;fill-rule:nonzero;stroke:none"
         id="path266" /><path
         d="m 4282.74,3139.67 h 8.2539 v 16.4766 h -8.2539 z"
         style="fill:#dbdcd9;fill-opacity:1;fill-rule:nonzero;stroke:none"
         id="path268" /><path
         d="m 4371.3,2987.59 h -4.91 l -1.07,16.48 h -9.38 v 59.56 h 10.45 l 4.91,-76.04"
         style="fill:#ececea;fill-opacity:1;fill-rule:nonzero;stroke:none"
         id="path270" /><path
         d="m 4355.94,3004.07 h -64.95 v 59.56 h 64.95 v -59.56 m -1506.09,0 h -25.94 l -4.91,76.04 h 4.91 l 1.07,-16.48 h 24.87 v -59.56"
         style="fill:#e4e4e2;fill-opacity:1;fill-rule:nonzero;stroke:none"
         id="path272" /><path
         d="m 4282.74,3004.07 h -297.82 l 5.74,59.56 h 292.08 v -59.56 m -367.97,0 h -38.66 l 5.74,59.56 h 38.65 l -5.73,-59.56 m -218.61,0 h -274.25 l 5.74,59.56 h 274.25 l -5.74,-59.56 m -454.2,0 h -357.07 v 59.56 h 362.81 l -5.74,-59.56 m -367.01,0 h -25.1 v 59.56 h 25.1 v -59.56"
         style="fill:#eaeae7;fill-opacity:1;fill-rule:nonzero;stroke:none"
         id="path274" /><path
         d="m 3876.11,3004.07 h -179.95 l 5.74,59.56 h 179.95 l -5.74,-59.56"
         style="fill:#ececea;fill-opacity:1;fill-rule:nonzero;stroke:none"
         id="path276" /><path
         d="m 3421.91,3004.07 h -179.95 l 5.74,59.56 h 179.95 l -5.74,-59.56"
         style="fill:#ececea;fill-opacity:1;fill-rule:nonzero;stroke:none"
         id="path278" /><path
         d="m 2874.95,3004.07 h 9.9414 v 59.5664 h -9.9414 z"
         style="fill:#e4e4e2;fill-opacity:1;fill-rule:nonzero;stroke:none"
         id="path280" /><path
         d="m 3984.92,3004.07 h -70.15 l 5.73,59.56 h 70.16 l -5.74,-59.56"
         style="fill:#ececea;fill-opacity:1;fill-rule:nonzero;stroke:none"
         id="path282" /><path
         d="m 4282.74,3004.07 h 8.2539 v 59.5664 h -8.2539 z"
         style="fill:#dddedb;fill-opacity:1;fill-rule:nonzero;stroke:none"
         id="path284" /><path
         d="m 4366.39,3063.63 h -10.45 v 16.48 h 9.38 l 1.07,-16.48"
         style="fill:#e3e4e1;fill-opacity:1;fill-rule:nonzero;stroke:none"
         id="path286" /><path
         d="m 4355.94,3063.63 h -64.95 v 16.48 h 64.95 v -16.48 m -1506.09,0 h -24.87 l -1.07,16.48 h 25.94 v -16.48"
         style="fill:#dedfdc;fill-opacity:1;fill-rule:nonzero;stroke:none"
         id="path288" /><path
         d="m 4282.74,3063.63 h -292.08 l 1.59,16.48 h 290.49 v -16.48 m -362.24,0 h -38.65 l 1.58,16.48 h 38.66 l -1.59,-16.48 m -218.6,0 h -274.25 l 1.58,16.48 h 274.25 l -1.58,-16.48 m -454.2,0 h -362.81 v 16.48 h 364.39 l -1.58,-16.48 m -372.75,0 h -25.1 v 16.48 h 25.1 v -16.48"
         style="fill:#e2e2e0;fill-opacity:1;fill-rule:nonzero;stroke:none"
         id="path290" /><path
         d="M 3881.85,3063.63 H 3701.9 l 1.58,16.48 h 179.95 l -1.58,-16.48"
         style="fill:#e3e3e1;fill-opacity:1;fill-rule:nonzero;stroke:none"
         id="path292" /><path
         d="M 3427.65,3063.63 H 3247.7 l 1.58,16.48 h 179.95 l -1.58,-16.48"
         style="fill:#e3e3e1;fill-opacity:1;fill-rule:nonzero;stroke:none"
         id="path294" /><path
         d="m 2874.95,3063.63 h 9.9414 v 16.4727 h -9.9414 z"
         style="fill:#dedfdc;fill-opacity:1;fill-rule:nonzero;stroke:none"
         id="path296" /><path
         d="m 3990.66,3063.63 h -70.16 l 1.59,16.48 h 70.16 l -1.59,-16.48"
         style="fill:#e3e3e1;fill-opacity:1;fill-rule:nonzero;stroke:none"
         id="path298" /><path
         d="m 4282.74,3063.63 h 8.2539 v 16.4727 h -8.2539 z"
         style="fill:#dbdcd9;fill-opacity:1;fill-rule:nonzero;stroke:none"
         id="path300" /><path
         d="m 4366.39,2987.59 h -10.45 v 16.48 h 9.38 l 1.07,-16.48"
         style="fill:#e3e4e1;fill-opacity:1;fill-rule:nonzero;stroke:none"
         id="path302" /><path
         d="m 4355.94,2987.59 h -64.95 v 16.48 h 64.95 v -16.48 m -1506.09,0 h -24.87 l -1.07,16.48 h 25.94 v -16.48"
         style="fill:#dedfdc;fill-opacity:1;fill-rule:nonzero;stroke:none"
         id="path304" /><path
         d="m 4282.74,2987.59 h -299.4 l 1.58,16.48 h 297.82 v -16.48 m -369.56,0 h -38.66 l 1.59,16.48 h 38.66 l -1.59,-16.48 m -218.6,0 h -274.25 l 1.58,16.48 h 274.25 l -1.58,-16.48 m -454.21,0 h -355.48 v 16.48 h 357.07 l -1.59,-16.48 m -365.42,0 h -25.1 v 16.48 h 25.1 v -16.48"
         style="fill:#e2e2e0;fill-opacity:1;fill-rule:nonzero;stroke:none"
         id="path306" /><path
         d="m 3874.52,2987.59 h -179.94 l 1.58,16.48 h 179.95 l -1.59,-16.48"
         style="fill:#e3e3e1;fill-opacity:1;fill-rule:nonzero;stroke:none"
         id="path308" /><path
         d="m 3420.33,2987.59 h -179.96 l 1.59,16.48 h 179.95 l -1.58,-16.48"
         style="fill:#e3e3e1;fill-opacity:1;fill-rule:nonzero;stroke:none"
         id="path310" /><path
         d="m 2874.95,2987.59 h 9.9414 v 16.4727 h -9.9414 z"
         style="fill:#dedfdc;fill-opacity:1;fill-rule:nonzero;stroke:none"
         id="path312" /><path
         d="m 3983.34,2987.59 h -70.16 l 1.59,16.48 h 70.15 l -1.58,-16.48"
         style="fill:#e3e3e1;fill-opacity:1;fill-rule:nonzero;stroke:none"
         id="path314" /><path
         d="m 4282.74,2987.59 h 8.2539 v 16.4727 h -8.2539 z"
         style="fill:#dbdcd9;fill-opacity:1;fill-rule:nonzero;stroke:none"
         id="path316" /><path
         d="m 4371.3,2835.52 h -4.91 l -1.07,16.47 h -9.38 v 59.57 h 10.45 l 4.91,-76.04"
         style="fill:#ececea;fill-opacity:1;fill-rule:nonzero;stroke:none"
         id="path318" /><path
         d="m 4355.94,2851.99 h -64.95 v 59.57 h 64.95 v -59.57 m -1506.09,0 h -25.94 l -4.91,76.04 h 4.91 l 1.07,-16.47 h 24.87 v -59.57"
         style="fill:#e4e4e2;fill-opacity:1;fill-rule:nonzero;stroke:none"
         id="path320" /><path
         d="m 4282.74,2851.99 h -312.46 l 5.73,59.57 h 306.73 v -59.57 m -382.62,0 h -38.66 l 5.74,59.57 h 38.66 l -5.74,-59.57 m -218.6,0 h -274.25 l 5.73,59.57 h 274.25 l -5.73,-59.57 m -454.21,0 h -342.42 v 59.57 h 348.16 l -5.74,-59.57 m -352.36,0 h -25.1 v 59.57 h 25.1 v -59.57"
         style="fill:#eaeae7;fill-opacity:1;fill-rule:nonzero;stroke:none"
         id="path322" /><path
         d="m 3861.46,2851.99 h -179.94 l 5.73,59.57 h 179.95 l -5.74,-59.57"
         style="fill:#ececea;fill-opacity:1;fill-rule:nonzero;stroke:none"
         id="path324" /><path
         d="m 3407.27,2851.99 h -179.96 l 5.74,59.57 H 3413 l -5.73,-59.57"
         style="fill:#ececea;fill-opacity:1;fill-rule:nonzero;stroke:none"
         id="path326" /><path
         d="m 2874.95,2851.99 h 9.9414 v 59.5664 h -9.9414 z"
         style="fill:#e4e4e2;fill-opacity:1;fill-rule:nonzero;stroke:none"
         id="path328" /><path
         d="m 3970.28,2851.99 h -70.16 l 5.74,59.57 h 70.15 l -5.73,-59.57"
         style="fill:#ececea;fill-opacity:1;fill-rule:nonzero;stroke:none"
         id="path330" /><path
         d="m 4282.74,2851.99 h 8.2539 v 59.5664 h -8.2539 z"
         style="fill:#dddedb;fill-opacity:1;fill-rule:nonzero;stroke:none"
         id="path332" /><path
         d="m 4366.39,2911.56 h -10.45 v 16.47 h 9.38 l 1.07,-16.47"
         style="fill:#e3e4e1;fill-opacity:1;fill-rule:nonzero;stroke:none"
         id="path334" /><path
         d="m 4355.94,2911.56 h -64.95 v 16.47 h 64.95 v -16.47 m -1506.09,0 h -24.87 l -1.07,16.47 h 25.94 v -16.47"
         style="fill:#dedfdc;fill-opacity:1;fill-rule:nonzero;stroke:none"
         id="path336" /><path
         d="m 4282.74,2911.56 h -306.73 l 1.59,16.47 h 305.14 v -16.47 m -376.88,0 h -38.66 l 1.59,16.47 h 38.65 l -1.58,-16.47 m -218.61,0 H 3413 l 1.59,16.47 h 274.25 l -1.59,-16.47 m -454.2,0 h -348.16 v 16.47 h 349.75 l -1.59,-16.47 m -358.1,0 h -25.1 v 16.47 h 25.1 v -16.47"
         style="fill:#e2e2e0;fill-opacity:1;fill-rule:nonzero;stroke:none"
         id="path338" /><path
         d="m 3867.2,2911.56 h -179.95 l 1.59,16.47 h 179.95 l -1.59,-16.47"
         style="fill:#e3e3e1;fill-opacity:1;fill-rule:nonzero;stroke:none"
         id="path340" /><path
         d="m 3413,2911.56 h -179.95 l 1.59,16.47 h 179.95 l -1.59,-16.47"
         style="fill:#e3e3e1;fill-opacity:1;fill-rule:nonzero;stroke:none"
         id="path342" /><path
         d="m 2874.95,2911.56 h 9.9414 v 16.4688 h -9.9414 z"
         style="fill:#dedfdc;fill-opacity:1;fill-rule:nonzero;stroke:none"
         id="path344" /><path
         d="m 3976.01,2911.56 h -70.15 l 1.58,16.47 h 70.16 l -1.59,-16.47"
         style="fill:#e3e3e1;fill-opacity:1;fill-rule:nonzero;stroke:none"
         id="path346" /><path
         d="m 4282.74,2911.56 h 8.2539 v 16.4688 h -8.2539 z"
         style="fill:#dbdcd9;fill-opacity:1;fill-rule:nonzero;stroke:none"
         id="path348" /><path
         d="m 4366.39,2835.52 h -10.45 v 16.47 h 9.38 l 1.07,-16.47"
         style="fill:#e3e4e1;fill-opacity:1;fill-rule:nonzero;stroke:none"
         id="path350" /><path
         d="m 4355.94,2835.52 h -64.95 v 16.47 h 64.95 v -16.47 m -1506.09,0 h -24.87 l -1.07,16.47 h 25.94 v -16.47"
         style="fill:#dedfdc;fill-opacity:1;fill-rule:nonzero;stroke:none"
         id="path352" /><path
         d="m 4282.74,2835.52 h -314.05 l 1.59,16.47 h 312.46 v -16.47 m -384.2,0 h -38.66 l 1.58,16.47 h 38.66 l -1.58,-16.47 m -218.61,0 h -274.25 l 1.59,16.47 h 274.25 l -1.59,-16.47 m -454.2,0 h -340.84 v 16.47 h 342.42 l -1.58,-16.47 m -350.78,0 h -25.1 v 16.47 h 25.1 v -16.47"
         style="fill:#e2e2e0;fill-opacity:1;fill-rule:nonzero;stroke:none"
         id="path354" /><path
         d="m 3859.88,2835.52 h -179.95 l 1.59,16.47 h 179.94 l -1.58,-16.47"
         style="fill:#e3e3e1;fill-opacity:1;fill-rule:nonzero;stroke:none"
         id="path356" /><path
         d="m 3405.68,2835.52 h -179.95 l 1.58,16.47 h 179.96 l -1.59,-16.47"
         style="fill:#e3e3e1;fill-opacity:1;fill-rule:nonzero;stroke:none"
         id="path358" /><path
         d="m 2874.95,2835.52 h 9.9414 v 16.4727 h -9.9414 z"
         style="fill:#dedfdc;fill-opacity:1;fill-rule:nonzero;stroke:none"
         id="path360" /><path
         d="m 3968.69,2835.52 h -70.15 l 1.58,16.47 h 70.16 l -1.59,-16.47"
         style="fill:#e3e3e1;fill-opacity:1;fill-rule:nonzero;stroke:none"
         id="path362" /><path
         d="m 4282.74,2835.52 h 8.2539 v 16.4727 h -8.2539 z"
         style="fill:#dbdcd9;fill-opacity:1;fill-rule:nonzero;stroke:none"
         id="path364" /><path
         d="m 4371.3,2683.44 h -4.91 l -1.07,16.48 h -9.38 v 59.56 h 10.45 l 4.91,-76.04"
         style="fill:#ececea;fill-opacity:1;fill-rule:nonzero;stroke:none"
         id="path366" /><path
         d="m 4290.99,2699.92 h 64.9492 v 59.5547 H 4290.99 Z"
         style="fill:#e4e4e2;fill-opacity:1;fill-rule:nonzero;stroke:none"
         id="path368" /><path
         d="m 4282.74,2699.92 h -327.11 l 5.74,59.56 h 321.37 v -59.56 m -397.26,0 h -38.66 l 5.73,59.56 h 38.66 l -5.73,-59.56 m -218.61,0 h -274.25 l 5.74,59.56 h 274.25 l -5.74,-59.56 m -454.2,0 h -236.24 l -2.29,6.74 c -1.6,4.75 -5.7,8.23 -10.64,9.04 l -9.98,1.63 c -3.41,0.56 -6.42,2.47 -8.52,5.21 -3.74,4.84 -7.75,9.42 -12.01,13.71 -2.43,2.46 -3.91,5.68 -4.02,9.14 l -0.29,10.11 c -0.04,1.37 -0.29,2.71 -0.72,3.98 h 290.44 l -5.73,-59.56"
         style="fill:#eaeae7;fill-opacity:1;fill-rule:nonzero;stroke:none"
         id="path370" /><path
         d="m 3846.82,2699.92 h -179.95 l 5.74,59.56 h 179.94 l -5.73,-59.56"
         style="fill:#ececea;fill-opacity:1;fill-rule:nonzero;stroke:none"
         id="path372" /><path
         d="m 3392.62,2699.92 h -179.95 l 5.73,59.56 h 179.96 l -5.74,-59.56"
         style="fill:#ececea;fill-opacity:1;fill-rule:nonzero;stroke:none"
         id="path374" /><path
         d="m 3955.63,2699.92 h -70.15 l 5.73,59.56 h 70.16 l -5.74,-59.56"
         style="fill:#ececea;fill-opacity:1;fill-rule:nonzero;stroke:none"
         id="path376" /><path
         d="m 4282.74,2699.92 h 8.2539 v 59.5547 h -8.2539 z"
         style="fill:#dddedb;fill-opacity:1;fill-rule:nonzero;stroke:none"
         id="path378" /><path
         d="m 4366.39,2759.48 h -10.45 v 16.47 h 9.38 l 1.07,-16.47"
         style="fill:#e3e4e1;fill-opacity:1;fill-rule:nonzero;stroke:none"
         id="path380" /><path
         d="m 4290.99,2759.48 h 64.9492 v 16.4766 H 4290.99 Z"
         style="fill:#dedfdc;fill-opacity:1;fill-rule:nonzero;stroke:none"
         id="path382" /><path
         d="m 4282.74,2759.48 h -321.37 l 1.59,16.47 h 319.78 v -16.47 m -391.53,0 h -38.66 l 1.59,16.47 h 38.66 l -1.59,-16.47 m -218.6,0 h -274.25 l 1.58,16.47 h 274.25 l -1.58,-16.47 m -454.21,0 h -290.44 c -1.14,3.34 -3.56,6.16 -6.82,7.77 l -17.59,8.7 h 316.44 l -1.59,-16.47"
         style="fill:#e2e2e0;fill-opacity:1;fill-rule:nonzero;stroke:none"
         id="path384" /><path
         d="m 3852.55,2759.48 h -179.94 l 1.58,16.47 h 179.95 l -1.59,-16.47"
         style="fill:#e3e3e1;fill-opacity:1;fill-rule:nonzero;stroke:none"
         id="path386" /><path
         d="M 3398.36,2759.48 H 3218.4 l 1.59,16.47 h 179.95 l -1.58,-16.47"
         style="fill:#e3e3e1;fill-opacity:1;fill-rule:nonzero;stroke:none"
         id="path388" /><path
         d="m 3961.37,2759.48 h -70.16 l 1.59,16.47 h 70.16 l -1.59,-16.47"
         style="fill:#e3e3e1;fill-opacity:1;fill-rule:nonzero;stroke:none"
         id="path390" /><path
         d="m 4282.74,2759.48 h 8.2539 v 16.4766 h -8.2539 z"
         style="fill:#dbdcd9;fill-opacity:1;fill-rule:nonzero;stroke:none"
         id="path392" /><path
         d="m 4366.39,2683.44 h -10.45 v 16.48 h 9.38 l 1.07,-16.48"
         style="fill:#e3e4e1;fill-opacity:1;fill-rule:nonzero;stroke:none"
         id="path394" /><path
         d="m 4290.99,2683.44 h 64.9492 v 16.4805 H 4290.99 Z"
         style="fill:#dedfdc;fill-opacity:1;fill-rule:nonzero;stroke:none"
         id="path396" /><path
         d="m 4282.74,2683.44 h -328.69 l 1.58,16.48 h 327.11 v -16.48 m -398.85,0 h -38.66 l 1.59,16.48 h 38.66 l -1.59,-16.48 m -218.61,0 h -274.25 l 1.59,16.48 h 274.25 l -1.59,-16.48 m -454.2,0 H 2982 l -5.57,16.48 h 236.24 l -1.59,-16.48"
         style="fill:#e2e2e0;fill-opacity:1;fill-rule:nonzero;stroke:none"
         id="path398" /><path
         d="m 3845.23,2683.44 h -179.95 l 1.59,16.48 h 179.95 l -1.59,-16.48"
         style="fill:#e3e3e1;fill-opacity:1;fill-rule:nonzero;stroke:none"
         id="path400" /><path
         d="m 3391.03,2683.44 h -179.95 l 1.59,16.48 h 179.95 l -1.59,-16.48"
         style="fill:#e3e3e1;fill-opacity:1;fill-rule:nonzero;stroke:none"
         id="path402" /><path
         d="m 3954.05,2683.44 h -70.16 l 1.59,16.48 h 70.15 l -1.58,-16.48"
         style="fill:#e3e3e1;fill-opacity:1;fill-rule:nonzero;stroke:none"
         id="path404" /><path
         d="m 4282.74,2683.44 h 8.2539 v 16.4805 h -8.2539 z"
         style="fill:#dbdcd9;fill-opacity:1;fill-rule:nonzero;stroke:none"
         id="path406" /><path
         d="m 4371.3,2531.37 h -15.36 v 76.03 h 10.45 l 4.91,-76.03"
         style="fill:#ececea;fill-opacity:1;fill-rule:nonzero;stroke:none"
         id="path408" /><path
         d="m 4355.94,2531.37 h -64.95 v 76.03 h 64.95 v -76.03 m -1527.5,51.19 c -2.29,0 -4.56,0.16 -6.8,0.47 l -2.64,40.85 h 4.91 l 1.07,-16.48 h 24.87 v -20.03 c -1.72,-0.81 -3.5,-1.53 -5.35,-2.15 -5.33,-1.81 -10.74,-2.66 -16.06,-2.66"
         style="fill:#e4e4e2;fill-opacity:1;fill-rule:nonzero;stroke:none"
         id="path410" /><path
         d="M 4282.74,2531.37 H 3939.4 l 7.32,76.03 h 336.02 v -76.03 m -413.5,0 h -38.65 l 7.32,76.03 h 38.66 l -7.33,-76.03 m -218.6,0 h -274.25 l 7.32,76.03 h 274.25 l -7.32,-76.03 m -454.2,0 h -259.39 c 1.3,0.47 2.68,0.74 4.09,0.78 l 10.12,0.3 c 5.01,0.14 9.54,3.04 11.76,7.54 l 20.76,41.98 c 0.94,1.89 1.41,3.94 1.41,5.99 0,2.79 -0.86,5.58 -2.55,7.93 l -5.9,8.22 c -0.73,1.02 -1.3,2.13 -1.71,3.29 h 228.73 l -7.32,-76.03 m -346.59,56 v 20.03 h 21.86 c -4.97,-8.52 -12.47,-15.61 -21.86,-20.03"
         style="fill:#eaeae7;fill-opacity:1;fill-rule:nonzero;stroke:none"
         id="path412" /><path
         d="m 3830.59,2531.37 h -179.95 l 7.32,76.03 h 179.95 l -7.32,-76.03"
         style="fill:#ececea;fill-opacity:1;fill-rule:nonzero;stroke:none"
         id="path414" /><path
         d="m 3376.39,2531.37 h -179.95 l 7.32,76.03 h 179.95 l -7.32,-76.03"
         style="fill:#ececea;fill-opacity:1;fill-rule:nonzero;stroke:none"
         id="path416" /><path
         d="m 3939.4,2531.37 h -70.16 l 7.33,76.03 h 70.15 l -7.32,-76.03"
         style="fill:#ececea;fill-opacity:1;fill-rule:nonzero;stroke:none"
         id="path418" /><path
         d="m 4282.74,2531.37 h 8.2539 v 76.0273 h -8.2539 z"
         style="fill:#dddedb;fill-opacity:1;fill-rule:nonzero;stroke:none"
         id="path420" /><path
         d="m 4366.39,2607.4 h -10.45 v 16.48 h 9.38 l 1.07,-16.48"
         style="fill:#e3e4e1;fill-opacity:1;fill-rule:nonzero;stroke:none"
         id="path422" /><path
         d="m 4355.94,2607.4 h -64.95 v 16.48 h 64.95 v -16.48 m -1506.09,0 h -24.87 l -1.07,16.48 h 25.94 v -16.48"
         style="fill:#dedfdc;fill-opacity:1;fill-rule:nonzero;stroke:none"
         id="path424" /><path
         d="m 4282.74,2607.4 h -336.02 l 1.59,16.48 h 334.43 v -16.48 m -406.17,0 h -38.66 l 1.59,16.48 h 38.65 l -1.58,-16.48 m -218.61,0 h -274.25 l 1.59,16.48 h 274.25 l -1.59,-16.48 m -454.2,0 h -228.73 c -0.51,1.46 -0.76,3 -0.76,4.55 0,0.62 0.04,1.24 0.12,1.85 0.43,3.34 0.75,6.7 0.96,10.08 h 230 l -1.59,-16.48 m -332.05,0 h -21.86 v 16.48 h 27.94 c -1.05,-5.83 -3.12,-11.4 -6.08,-16.48"
         style="fill:#e2e2e0;fill-opacity:1;fill-rule:nonzero;stroke:none"
         id="path426" /><path
         d="m 3837.91,2607.4 h -179.95 l 1.59,16.48 h 179.95 l -1.59,-16.48"
         style="fill:#e3e3e1;fill-opacity:1;fill-rule:nonzero;stroke:none"
         id="path428" /><path
         d="m 3383.71,2607.4 h -179.95 l 1.59,16.48 h 179.95 l -1.59,-16.48"
         style="fill:#e3e3e1;fill-opacity:1;fill-rule:nonzero;stroke:none"
         id="path430" /><path
         d="m 3946.72,2607.4 h -70.15 l 1.58,16.48 h 70.16 l -1.59,-16.48"
         style="fill:#e3e3e1;fill-opacity:1;fill-rule:nonzero;stroke:none"
         id="path432" /><path
         d="m 4282.74,2607.4 h 8.2539 v 16.4805 h -8.2539 z"
         style="fill:#dbdcd9;fill-opacity:1;fill-rule:nonzero;stroke:none"
         id="path434" /><path
         d="m 992.063,2950.06 h 209.927 c 26.6,0 48.17,21.57 48.17,48.17 v 80.69 c 0,26.6 -21.57,48.16 -48.17,48.16 H 992.063 c -26.61,0 -48.172,-21.56 -48.172,-48.16 v -80.69 c 0,-26.6 21.562,-48.17 48.172,-48.17"
         style="fill:#f3f2f1;fill-opacity:1;fill-rule:nonzero;stroke:none"
         id="path436" /><path
         d="m 992.063,3127.08 h 209.927 c 26.6,0 48.17,21.57 48.17,48.17 v 80.69 c 0,26.6 -21.57,48.17 -48.17,48.17 H 992.063 c -26.61,0 -48.172,-21.57 -48.172,-48.17 v -80.69 c 0,-26.6 21.562,-48.17 48.172,-48.17"
         style="fill:#f3f2f1;fill-opacity:1;fill-rule:nonzero;stroke:none"
         id="path438" /><path
         d="m 1060.65,3304.11 h 72.75 c 9.22,0 16.69,7.47 16.69,16.69 v 27.96 c 0,9.22 -7.47,16.69 -16.69,16.69 h -72.75 c -9.22,0 -16.69,-7.47 -16.69,-16.69 v -27.96 c 0,-9.22 7.47,-16.69 16.69,-16.69"
         style="fill:#dadbd8;fill-opacity:1;fill-rule:nonzero;stroke:none"
         id="path440" /><path
         d="m 992.063,2773.04 h 209.927 c 26.6,0 48.17,21.56 48.17,48.16 v 80.69 c 0,26.61 -21.57,48.17 -48.17,48.17 H 992.063 c -26.61,0 -48.172,-21.56 -48.172,-48.17 v -80.69 c 0,-26.6 21.562,-48.16 48.172,-48.16"
         style="fill:#f3f2f1;fill-opacity:1;fill-rule:nonzero;stroke:none"
         id="path442" /><path
         d="m 2105.21,2895.98 c 0,0 -10.14,-122.95 -398.96,-122.95 -388.81,0 -398.95,122.95 -398.95,122.95 h 797.91"
         style="fill:#ededeb;fill-opacity:1;fill-rule:nonzero;stroke:none"
         id="path444" /><path
         d="M 604.176,565.84 H 912.344 V 2748.15 H 604.176 Z"
         style="fill:#ededeb;fill-opacity:1;fill-rule:nonzero;stroke:none"
         id="path446" /><path
         d="m 663.352,451.629 h 1519.75 V 565.84 H 663.352 Z"
         style="fill:#ededeb;fill-opacity:1;fill-rule:nonzero;stroke:none"
         id="path448" /><path
         d="m 912.344,565.84 h 1329.93 V 2748.15 H 912.344 Z"
         style="fill:#f3f2f1;fill-opacity:1;fill-rule:nonzero;stroke:none"
         id="path450" /><path
         d="m 1033.5,1457.67 h 1087.61 v 514.988 H 1033.5 Z"
         style="fill:#ededeb;fill-opacity:1;fill-rule:nonzero;stroke:none"
         id="path452" /><path
         d="m 1033.5,827.801 h 1087.61 v 514.988 H 1033.5 Z"
         style="fill:#ededeb;fill-opacity:1;fill-rule:nonzero;stroke:none"
         id="path454" /><path
         d="m 1033.5,642.059 h 1087.61 v 78.5 H 1033.5 Z"
         style="fill:#ededeb;fill-opacity:1;fill-rule:nonzero;stroke:none"
         id="path456" /><path
         d="m 1853.75,1931.88 h -552.88 c -23.75,0 -43.19,19.44 -43.19,43.19 0,23.76 19.44,43.19 43.19,43.19 h 552.88 c 23.75,0 43.18,-19.43 43.18,-43.19 0,-23.75 -19.43,-43.19 -43.18,-43.19"
         style="fill:#f3f2f1;fill-opacity:1;fill-rule:nonzero;stroke:none"
         id="path458" /><path
         d="m 1033.5,2087.54 h 1087.61 v 514.992 H 1033.5 Z"
         style="fill:#ededeb;fill-opacity:1;fill-rule:nonzero;stroke:none"
         id="path460" /><path
         d="m 1853.75,2561.75 h -552.88 c -23.75,0 -43.19,19.44 -43.19,43.19 0,23.76 19.44,43.19 43.19,43.19 h 552.88 c 23.75,0 43.18,-19.43 43.18,-43.19 0,-23.75 -19.43,-43.19 -43.18,-43.19"
         style="fill:#f3f2f1;fill-opacity:1;fill-rule:nonzero;stroke:none"
         id="path462" /><path
         d="m 1853.75,1302.01 h -552.88 c -23.75,0 -43.19,19.44 -43.19,43.19 0,23.75 19.44,43.19 43.19,43.19 h 552.88 c 23.75,0 43.18,-19.44 43.18,-43.19 0,-23.75 -19.43,-43.19 -43.18,-43.19"
         style="fill:#f3f2f1;fill-opacity:1;fill-rule:nonzero;stroke:none"
         id="path464" /><path
         d="M 2283.33,2773.03 H 912.344 v -24.88 H 2283.33 v 24.88"
         style="fill:#ededeb;fill-opacity:1;fill-rule:nonzero;stroke:none"
         id="path466" /><path
         d="m 561.109,2773.03 h 351.235 v -24.88 H 561.109 v 24.88"
         style="fill:#e2e2e0;fill-opacity:1;fill-rule:nonzero;stroke:none"
         id="path468" /><path
         d="M 4438.89,113.238 C 4438.89,50.6992 3570.83,0 2500,0 1429.18,0 561.109,50.6992 561.109,113.238 c 0,62.532 868.071,113.231 1938.891,113.231 1070.83,0 1938.89,-50.699 1938.89,-113.231"
         style="fill:#f3f2f1;fill-opacity:1;fill-rule:nonzero;stroke:none"
         id="path470" /><path
         d="M 4420.57,1104.51 H 579.434 l -70.868,67.04 H 4491.44 l -70.87,-67.04"
         style="fill:#406fbf;fill-opacity:1;fill-rule:nonzero;stroke:none"
         id="path472" /><g
         id="g474"><g
           id="g476"
           clip-path="url(#clipPath480)"><path
             d="m 508.566,1104.51 h 3982.88 v 67.0391 H 508.566 Z"
             style="fill:#90b4e3;fill-opacity:1;fill-rule:nonzero;stroke:none"
             id="path482" /></g></g><path
         d="M 4091.22,1068.39 H 908.773 l -58.71,36.12 H 4149.94 l -58.72,-36.12"
         style="fill:#406fbf;fill-opacity:1;fill-rule:nonzero;stroke:none"
         id="path484" /><path
         d="M 4091.22,1068.39 H 908.773 l -58.71,36.12 H 4149.94 l -1.18,-0.72 -57.54,-35.4"
         style="fill:#254583;fill-opacity:1;fill-rule:nonzero;stroke:none"
         id="path486" /><path
         d="M 883.578,113.238 H 837.91 L 979.645,1068.39 H 1081.5 L 883.578,113.238"
         style="fill:#406fbf;fill-opacity:1;fill-rule:nonzero;stroke:none"
         id="path488" /><path
         d="M 883.578,113.238 H 837.91 L 979.645,1068.39 H 1081.5 l -48,-231.66 -56.133,-270.89 -23.668,-114.211 -0.515,-2.5 -38.457,-185.59 -0.52,-2.5 -30.629,-147.801"
         style="fill:#254583;fill-opacity:1;fill-rule:nonzero;stroke:none"
         id="path490" /><path
         d="m 1131.04,113.238 h -45.67 l 141.73,955.152 h 101.86 L 1131.04,113.238"
         style="fill:#406fbf;fill-opacity:1;fill-rule:nonzero;stroke:none"
         id="path492" /><path
         d="m 1131.04,113.238 h -45.67 l 141.73,955.152 h 101.86 l -49.85,-240.589 -22.22,-107.242 -16.27,-78.5 -15.79,-76.219 -23.67,-114.211 -0.52,-2.5 -69.6,-335.891"
         style="fill:#254583;fill-opacity:1;fill-rule:nonzero;stroke:none"
         id="path494" /><path
         d="m 4116.42,113.238 h 45.67 L 4020.36,1068.39 H 3918.5 l 197.92,-955.152"
         style="fill:#406fbf;fill-opacity:1;fill-rule:nonzero;stroke:none"
         id="path496" /><path
         d="m 4162.09,113.238 h -45.67 l -124.03,598.543 -57.78,278.828 -16.11,77.781 h 101.86 l 141.73,-955.152"
         style="fill:#254583;fill-opacity:1;fill-rule:nonzero;stroke:none"
         id="path498" /><path
         d="m 3868.96,113.238 h 45.67 L 3772.9,1068.39 h -101.86 l 197.92,-955.152"
         style="fill:#406fbf;fill-opacity:1;fill-rule:nonzero;stroke:none"
         id="path500" /><path
         d="m 3914.63,113.238 h -45.67 l -197.92,955.152 h 101.86 l 141.73,-955.152"
         style="fill:#254583;fill-opacity:1;fill-rule:nonzero;stroke:none"
         id="path502" /><path
         d="m 2035.31,2920.49 c -9.01,-134.88 92.97,-251.62 228,-260.64 134.89,-9 251.64,93.12 260.64,228.01 9.01,134.89 -93.12,251.63 -228.01,260.64 -135.04,9.02 -251.62,-93.12 -260.63,-228.01 z m 207.5,403.68 129.13,-8.62 c 10.2,-0.68 19.19,-6.94 23.38,-16.26 l 13.59,-30.29 c 2.92,-6.5 8.29,-11.49 14.88,-14.2 16.3,-6.69 32.01,-14.48 47.03,-23.26 6.15,-3.61 13.37,-4.84 20.32,-3.22 l 32.32,7.58 c 9.95,2.33 20.38,-1.02 27.11,-8.72 l 85.22,-97.4 c 6.72,-7.69 8.66,-18.48 5.03,-28.03 l -11.81,-31.02 c -2.54,-6.67 -2.27,-13.99 0.48,-20.57 6.72,-16.06 12.35,-32.67 16.82,-49.71 1.81,-6.89 6.03,-12.89 12.09,-16.64 l 28.2,-17.5 c 8.69,-5.38 13.69,-15.13 13.01,-25.33 l -8.62,-129.13 c -0.68,-10.2 -6.93,-19.19 -16.26,-23.38 l -30.29,-13.59 c -6.5,-2.92 -11.49,-8.29 -14.19,-14.88 -6.7,-16.3 -14.48,-32 -23.27,-47.03 -3.6,-6.16 -4.84,-13.38 -3.22,-20.32 l 7.58,-32.32 c 2.33,-9.96 -1.02,-20.38 -8.71,-27.11 L 2505.22,2548 c -7.69,-6.73 -18.47,-8.66 -28.03,-5.03 l -31.04,11.81 c -6.66,2.54 -13.99,2.27 -20.56,-0.48 -16.06,-6.71 -32.65,-12.33 -49.69,-16.8 -6.89,-1.81 -12.88,-6.04 -16.64,-12.09 l -17.5,-28.23 c -5.39,-8.69 -15.13,-13.69 -25.33,-13.01 l -129.14,8.62 c -10.2,0.68 -19.19,6.94 -23.37,16.27 l -13.6,30.3 c -2.92,6.5 -8.3,11.49 -14.89,14.2 -16.29,6.69 -31.99,14.47 -47.01,23.25 -6.15,3.6 -13.38,4.84 -20.31,3.22 l -32.34,-7.58 c -9.95,-2.33 -20.38,1.02 -27.11,8.71 l -85.21,97.41 c -6.74,7.69 -8.67,18.47 -5.03,28.03 l 11.79,30.99 c 2.53,6.67 2.27,13.99 -0.48,20.57 -6.73,16.08 -12.36,32.7 -16.83,49.76 -1.81,6.88 -6.04,12.88 -12.1,16.63 l -28.17,17.48 c -8.69,5.39 -13.69,15.13 -13.02,25.33 l 8.63,129.13 c 0.68,10.2 6.93,19.19 16.26,23.38 l 30.25,13.57 c 6.5,2.92 11.49,8.3 14.2,14.89 6.69,16.32 14.49,32.04 23.29,47.09 3.6,6.15 4.84,13.37 3.21,20.31 l -7.56,32.29 c -2.33,9.95 1.02,20.38 8.71,27.11 l 97.41,85.21 c 7.69,6.73 18.48,8.67 28.03,5.03 l 31.03,-11.8 c 6.66,-2.53 13.98,-2.27 20.56,0.48 16.06,6.71 32.66,12.34 49.7,16.81 6.89,1.8 12.89,6.03 16.65,12.09 l 17.5,28.21 c 5.38,8.69 15.13,13.69 25.33,13.01"
         style="fill:#406fbf;fill-opacity:1;fill-rule:nonzero;stroke:none"
         id="path504" /><path
         d="m 2780.98,2616.64 c 8.86,-26.21 37.28,-40.3 63.52,-31.42 26.21,8.86 40.29,37.31 31.42,63.52 -8.86,26.2 -37.31,40.28 -63.52,31.42 -26.24,-8.87 -40.28,-37.32 -31.42,-63.52 m -26.51,161.74 44.37,15 c 4.75,1.6 10,0.46 13.65,-2.98 l 7.35,-6.94 c 2.51,-2.37 5.85,-3.6 9.31,-3.62 6.11,-0.02 12.18,-0.43 18.18,-1.21 3.43,-0.45 6.88,0.33 9.69,2.35 l 8.22,5.9 c 4.07,2.92 9.43,3.36 13.92,1.14 l 41.98,-20.77 c 4.49,-2.22 7.39,-6.74 7.54,-11.75 l 0.29,-10.11 c 0.11,-3.46 1.59,-6.68 4.02,-9.14 4.26,-4.29 8.27,-8.87 12.01,-13.71 2.1,-2.74 5.11,-4.65 8.52,-5.21 l 9.98,-1.63 c 4.94,-0.81 9.04,-4.29 10.64,-9.04 l 15.01,-44.37 c 1.6,-4.75 0.45,-10 -2.99,-13.64 l -6.94,-7.36 c -2.37,-2.51 -3.6,-5.85 -3.61,-9.3 -0.03,-6.12 -0.44,-12.19 -1.22,-18.19 -0.45,-3.43 0.33,-6.88 2.35,-9.69 l 5.9,-8.22 c 2.93,-4.07 3.37,-9.43 1.14,-13.92 l -20.76,-41.98 c -2.22,-4.5 -6.75,-7.4 -11.76,-7.54 l -10.12,-0.3 c -3.45,-0.1 -6.67,-1.58 -9.13,-4.01 -4.29,-4.26 -8.87,-8.27 -13.71,-12 -2.74,-2.11 -4.64,-5.11 -5.2,-8.52 l -1.64,-9.98 c -0.81,-4.95 -4.28,-9.05 -9.03,-10.66 l -44.37,-15 c -4.75,-1.6 -10,-0.46 -13.65,2.99 l -7.36,6.94 c -2.51,2.37 -5.85,3.6 -9.31,3.62 -6.1,0.02 -12.17,0.43 -18.17,1.21 -3.43,0.45 -6.89,-0.33 -9.7,-2.35 l -8.22,-5.9 c -4.07,-2.93 -9.42,-3.36 -13.92,-1.14 l -41.97,20.76 c -4.5,2.23 -7.4,6.75 -7.55,11.76 l -0.29,10.1 c -0.1,3.46 -1.58,6.68 -4.02,9.13 -4.26,4.3 -8.28,8.88 -12.02,13.73 -2.1,2.74 -5.1,4.64 -8.52,5.2 l -9.96,1.64 c -4.95,0.81 -9.04,4.28 -10.65,9.03 l -15,44.37 c -1.61,4.75 -0.46,10 2.98,13.65 l 6.93,7.34 c 2.37,2.52 3.6,5.85 3.61,9.31 0.03,6.12 0.44,12.2 1.22,18.21 0.45,3.43 -0.33,6.88 -2.35,9.69 l -5.89,8.2 c -2.92,4.08 -3.36,9.43 -1.14,13.93 l 20.77,41.97 c 2.22,4.5 6.75,7.4 11.76,7.55 l 10.11,0.29 c 3.45,0.1 6.67,1.58 9.13,4.02 4.29,4.25 8.87,8.27 13.71,12 2.74,2.11 4.65,5.11 5.2,8.52 l 1.64,9.98 c 0.81,4.95 4.29,9.05 9.04,10.65"
         style="fill:#406fbf;fill-opacity:1;fill-rule:nonzero;stroke:none"
         id="path506" /><path
         d="m 2853.72,2471.27 c -1.31,0 -2.62,0.19 -3.87,0.56 -2,0.6 -3.87,1.65 -5.44,3.14 l -7.36,6.94 c -2.51,2.37 -5.85,3.6 -9.31,3.62 -6.1,0.02 -12.17,0.43 -18.17,1.21 -0.62,0.08 -1.25,0.12 -1.87,0.12 -2.8,0 -5.53,-0.82 -7.83,-2.47 l -8.22,-5.9 c -2.02,-1.46 -4.36,-2.29 -6.75,-2.5 -0.39,-0.03 -0.77,-0.05 -1.15,-0.05 -2.05,0 -4.11,0.47 -6.02,1.41 l -41.97,20.76 c -4.5,2.23 -7.4,6.75 -7.55,11.76 l -0.29,10.1 c -0.1,3.46 -1.58,6.68 -4.02,9.13 -4.26,4.3 -8.28,8.88 -12.02,13.73 -2.1,2.74 -5.1,4.64 -8.52,5.2 l -9.96,1.64 c -4.95,0.81 -9.04,4.28 -10.65,9.03 l -15,44.37 c -0.48,1.41 -0.71,2.87 -0.72,4.31 0,3.42 1.28,6.77 3.7,9.34 l 6.93,7.34 c 2.37,2.52 3.6,5.85 3.61,9.31 0.03,6.12 0.44,12.2 1.22,18.21 0.08,0.61 0.12,1.23 0.13,1.84 0,2.81 -0.82,5.55 -2.48,7.85 l -5.89,8.2 c -1.69,2.36 -2.55,5.14 -2.54,7.94 0,2.04 0.46,4.09 1.4,5.99 l 20.77,41.97 c 2.22,4.5 6.75,7.4 11.76,7.55 l 10.11,0.29 c 3.45,0.1 6.67,1.58 9.13,4.02 4.29,4.25 8.87,8.27 13.71,12 2.74,2.11 4.65,5.11 5.2,8.52 l 1.64,9.98 c 0.81,4.95 4.29,9.05 9.04,10.65 l 44.37,15 c 1.42,0.48 2.88,0.72 4.34,0.72 3.4,0 6.75,-1.29 9.31,-3.7 l 7.35,-6.94 c 2.51,-2.37 5.85,-3.6 9.31,-3.62 6.11,-0.02 12.18,-0.43 18.18,-1.21 0.62,-0.08 1.25,-0.13 1.87,-0.13 2.79,0 5.52,0.83 7.82,2.48 l 8.22,5.9 c 2.35,1.68 5.12,2.55 7.91,2.55 2.05,0 4.11,-0.47 6.01,-1.41 l 41.98,-20.77 c 4.49,-2.22 7.39,-6.74 7.54,-11.75 l 0.29,-10.11 c 0.11,-3.46 1.59,-6.68 4.02,-9.14 4.26,-4.29 8.27,-8.87 12.01,-13.71 2.1,-2.74 5.11,-4.65 8.52,-5.21 l 9.98,-1.63 c 4.94,-0.81 9.04,-4.29 10.64,-9.04 l 15.01,-44.37 c 0.47,-1.41 0.71,-2.86 0.71,-4.3 0.01,-3.42 -1.28,-6.78 -3.7,-9.34 l -6.94,-7.36 c -2.37,-2.51 -3.6,-5.85 -3.61,-9.3 -0.03,-6.12 -0.44,-12.19 -1.22,-18.19 -0.08,-0.61 -0.12,-1.23 -0.12,-1.85 -0.01,-2.8 0.82,-5.54 2.47,-7.84 l 5.9,-8.22 c 1.69,-2.35 2.55,-5.14 2.55,-7.93 0,-2.05 -0.47,-4.1 -1.41,-5.99 l -20.76,-41.98 c -2.22,-4.5 -6.75,-7.4 -11.76,-7.54 l -10.12,-0.3 c -1.41,-0.04 -2.79,-0.31 -4.09,-0.78 -1.87,-0.69 -3.59,-1.79 -5.04,-3.23 -4.29,-4.26 -8.87,-8.27 -13.71,-12 -2.74,-2.11 -4.64,-5.11 -5.2,-8.52 l -1.64,-9.98 c -0.81,-4.95 -4.28,-9.05 -9.03,-10.66 l -44.37,-15 c -1.42,-0.48 -2.89,-0.71 -4.34,-0.71 m -75.39,161.43 c 0,-5.32 0.85,-10.74 2.65,-16.06 7.06,-20.89 26.55,-34.08 47.46,-34.08 5.32,0 10.73,0.85 16.06,2.66 20.89,7.06 34.07,26.56 34.07,47.45 0.01,5.33 -0.85,10.74 -2.65,16.07 -4.53,13.41 -14.2,23.64 -26.07,29.25 -6.62,3.13 -13.92,4.82 -21.4,4.82 -2.75,0 -5.53,-0.23 -8.3,-0.7 -2.59,-0.44 -5.18,-1.08 -7.75,-1.95 -12.12,-4.1 -21.64,-12.38 -27.5,-22.68 -4.25,-7.47 -6.57,-16 -6.57,-24.78"
         style="fill:#90b4e3;fill-opacity:1;fill-rule:nonzero;stroke:none"
         id="path508" /><path
         d="m 2499,2298.24 55.02,95.29 c 9.02,15.63 -2.26,35.18 -20.31,35.18 h -110.04 c -18.05,0 -29.33,-19.55 -20.31,-35.18 l 55.02,-95.29 c 9.03,-15.64 31.6,-15.64 40.62,0"
         style="fill:#406fbf;fill-opacity:1;fill-rule:nonzero;stroke:none"
         id="path510" /><path
         d="M 696.934,1211.38 H 2044.96 c 19.62,0 35.14,16.05 34.49,35.68 l -31.9,963.73 c -0.65,19.63 -17.23,35.68 -36.85,35.68 H 662.672 c -19.625,0 -35.149,-16.05 -34.5,-35.68 l 31.902,-963.73 c 0.649,-19.63 17.235,-35.68 36.86,-35.68"
         style="fill:#406fbf;fill-opacity:1;fill-rule:nonzero;stroke:none"
         id="path512" /><path
         d="M 707.938,1211.38 H 2055.96 c 19.63,0 35.15,16.05 34.5,35.68 l -31.9,963.73 c -0.65,19.63 -17.24,35.68 -36.86,35.68 H 673.676 c -19.617,0 -35.145,-16.05 -34.492,-35.68 l 31.894,-963.73 c 0.652,-19.63 17.238,-35.68 36.86,-35.68"
         style="fill:#406fbf;fill-opacity:1;fill-rule:nonzero;stroke:none"
         id="path514" /><path
         d="m 713.113,1211.38 h -5.175 c -19.622,0 -36.208,16.05 -36.86,35.68 l -31.894,963.73 c -0.012,0.39 -0.02,0.77 -0.02,1.15 -0.027,19.1 15.277,34.53 34.512,34.53 h 405.074 c -8.74,-18.84 -16.9,-38.06 -24.32,-56.63 H 684.824 c -7.64,0 -13.687,-6.25 -13.433,-13.9 l 29.589,-894.03 c 0.254,-7.64 6.715,-13.9 14.356,-13.9 h 63.949 l -0.008,-0.03 h 183.328 l 0.008,0.03 h 50.817 l -0.01,-0.03 h 65.96 l 0.01,0.03 h 608.3 v -0.03 h 65.96 l 0.01,0.03 h 291.16 c 7.64,0 13.69,6.26 13.43,13.9 l -16.61,501.92 c 6.4,-2.78 12.69,-5.14 18.98,-7.37 4.19,-1.43 8.33,-2.75 12.45,-3.98 l 17.39,-525.42 c 0.01,-0.39 0.02,-0.77 0.02,-1.15 0.02,-15.28 -9.77,-28.21 -23.54,-32.77 H 725.301 c -4.231,0 -8.324,-0.62 -12.188,-1.76 m 1355.127,706.8 c -10.79,9.28 -21.48,19.5 -32.05,30.27 l -7.53,227.49 c -0.25,7.65 -6.71,13.9 -14.35,13.9 h -120.15 c -11.33,17.47 -24.23,36.81 -38.08,56.63 h 165.62 c 19.62,0 36.21,-16.05 36.86,-35.68 l 9.68,-292.61"
         style="fill:#265396;fill-opacity:1;fill-rule:nonzero;stroke:none"
         id="path516" /><path
         d="M 725.301,1213.14 H 2353.36 c 16.96,0 31.68,-9.88 38.47,-24.05 3.9,-8.15 -2.07,-17.54 -11.26,-17.54 H 698.09 c -9.188,0 -15.156,9.39 -11.254,17.54 6.781,14.17 21.504,24.05 38.465,24.05"
         style="fill:#406fbf;fill-opacity:1;fill-rule:nonzero;stroke:none"
         id="path518" /><path
         d="M 2380.57,1171.55 H 1929.9 c 0,8.33 -6.81,15.15 -15.13,15.15 h -338 c -8.32,0 -15.13,-6.82 -15.13,-15.15 h -534.67 c -9.19,0 -15.15,9.39 -11.25,17.54 6.78,14.17 21.5,24.05 38.46,24.05 h 1299.18 c 16.96,0 31.68,-9.88 38.47,-24.05 0.82,-1.72 1.2,-3.49 1.21,-5.22 0.02,-4.76 -2.81,-9.17 -7.19,-11.18 -1.58,-0.73 -3.36,-1.14 -5.28,-1.14"
         style="fill:#265396;fill-opacity:1;fill-rule:nonzero;stroke:none"
         id="path520" /><path
         d="m 1929.9,1171.55 h -368.26 c 0,8.33 6.81,15.15 15.13,15.15 h 338 c 8.32,0 15.13,-6.82 15.13,-15.15"
         style="fill:#6080b0;fill-opacity:1;fill-rule:nonzero;stroke:none"
         id="path522" /><path
         d="m 2044.82,1268.01 h -291.16 l 144.55,630.73 c 3.77,-3.97 7.58,-7.93 11.42,-11.87 26.79,-27.3 55.32,-53.63 88.95,-77.94 l 12.95,-9.03 c 5.59,-3.39 11.4,-7.07 16.83,-9.68 4.51,-2.4 8.92,-4.49 13.28,-6.39 l 16.61,-501.92 c 0.26,-7.64 -5.79,-13.9 -13.43,-13.9 m -357.13,0 h -608.3 l 81.33,354.87 c 13.06,-14.99 26.55,-29.62 40.97,-44.07 l 44.32,34.64 c -0.2,-18.02 -0.08,-32.06 0.67,-41.56 73.3,0 349.27,0 499.89,0 27,164.02 33.89,304.34 30.57,419.77 l 7.85,-8.15 23.77,19.5 c 12.01,-15.32 24.31,-30.49 36.96,-45.49 l -158.03,-689.51 m -674.26,0 h -50.817 l 108.447,473.19 c 2.02,-3.18 4.05,-6.34 6.09,-9.49 10.4,-15.56 21.11,-30.67 32.15,-45.39 l -95.87,-418.31 m -234.145,0 h -63.949 c -7.641,0 -14.102,6.26 -14.356,13.9 l -29.589,894.03 c -0.254,7.65 5.793,13.9 13.433,13.9 h 369.606 v 0 H 990.551 L 779.285,1268.01 m 467.175,372.63 c -19.75,35.02 -39.45,70.5 -57.39,105.94 l 54.88,239.46 c 1.06,-19.45 1.91,-38.53 2.58,-57.17 0.02,0.04 0.03,0.09 0.04,0.13 4.31,-119.91 1.23,-221.8 -0.11,-288.36 m -100.99,203.53 c -2.48,6.88 -4.77,13.68 -6.85,20.35 -3.88,12.7 -6.59,25.11 -7.4,35.04 -0.44,4.9 -0.44,9.12 -0.03,11.71 0.26,1.15 0.46,2.15 0.71,2.27 l 0.22,0.57 0.76,2.56 1.49,5.11 5.98,20.42 7.04,20.5 c 2.19,6.44 4.53,12.91 6.96,19.37 l 20.19,-11.1 -29.07,-126.8 m 890.72,104.28 c -9.61,9.78 -19.13,20.02 -28.54,30.4 -24.49,27.65 -48.12,56.95 -71.09,87.23 l 28.37,123.76 h -65.97 l -1.25,-5.49 c -1.17,1.81 -2.35,3.64 -3.55,5.49 h 120.15 c 7.64,0 14.1,-6.25 14.35,-13.9 l 7.53,-227.49"
         style="fill:#e4eaf0;fill-opacity:1;fill-rule:nonzero;stroke:none"
         id="path524" /><path
         d="M 962.605,1267.98 H 779.277 l 211.274,921.86 H 1173.89 L 962.605,1267.98"
         style="fill:#ffffff;fill-opacity:1;fill-rule:nonzero;stroke:none"
         id="path526" /><path
         d="m 1079.38,1267.98 h -65.96 l 211.28,921.86 h 65.96 l -211.28,-921.86"
         style="fill:#ffffff;fill-opacity:1;fill-rule:nonzero;stroke:none"
         id="path528" /><path
         d="m 1753.65,1267.98 h -65.96 l 211.27,921.86 h 65.97 l -211.28,-921.86"
         style="fill:#ffffff;fill-opacity:1;fill-rule:nonzero;stroke:none"
         id="path530" /><path
         d="m 1767.37,2315.04 c 17.77,-28.42 36.84,-58.57 55.91,-87.5 19.34,-29.02 38.77,-57.98 58.71,-86.4 39.84,-56.79 81.34,-112.27 125.66,-162.29 22.29,-24.6 45.17,-48.35 68.52,-67.29 l 8.62,-6.87 c 1.95,-1.39 3.42,-2.94 5.94,-4.44 4.3,-3.12 10.2,-6.15 16.07,-9.35 12.26,-6.19 26.71,-11.7 41.79,-16.59 15.08,-5.13 30.98,-9.64 47.24,-13.67 16.24,-4.24 32.87,-8 49.68,-11.52 33.47,-7.14 68.46,-13.62 102.17,-19.42 l -0.05,-70.17 c -19.22,-2.82 -37.26,-4.18 -55.96,-5.52 -18.57,-1.42 -37.18,-1.77 -55.93,-1.9 -37.53,0.14 -75.36,2.47 -114.62,9.09 -19.62,3.59 -39.58,8.14 -60.5,15.26 -10.57,3.76 -21.12,7.84 -32.26,13.76 -5.43,2.61 -11.24,6.29 -16.83,9.68 l -12.95,9.03 c -33.63,24.31 -62.16,50.64 -88.95,77.94 -53.2,54.6 -99.47,112.39 -142.94,171.73 -21.72,29.67 -42.58,59.78 -62.62,90.42 -20.18,30.82 -39.57,60.95 -58.59,93.83 l 121.89,72.19"
         style="fill:#f9a8b3;fill-opacity:1;fill-rule:nonzero;stroke:none"
         id="path532" /><path
         d="m 1599.15,2295.81 c -9.83,-87.83 199.22,-297.63 199.22,-297.63 l 141.49,118.04 c 0,0 -66.81,114.64 -137.41,202.13 -80.41,99.65 -192.21,76.6 -203.3,-22.54"
         style="fill:#406fbf;fill-opacity:1;fill-rule:nonzero;stroke:none"
         id="path534" /><path
         d="m 1775.46,2033.58 c -2.3,43.97 -6.04,83.86 -10.58,119.64 17.24,-30.78 30.46,-63.14 34.39,-100.47 l -23.81,-19.17"
         style="fill:#2d5bb2;fill-opacity:1;fill-rule:nonzero;stroke:none"
         id="path536" /><path
         d="m 1928.49,2156.73 14.89,-43.24 -158.39,-129.98 -31.32,32.55 174.82,140.67"
         style="fill:#406fbf;fill-opacity:1;fill-rule:nonzero;stroke:none"
         id="path538" /><path
         d="m 1784.99,1983.51 -7.85,8.15 c -0.41,14.36 -0.98,28.34 -1.68,41.92 l 153.03,123.15 14.89,-43.24 -26.17,-21.48 -108.45,-89 -23.77,-19.5"
         style="fill:#3665b9;fill-opacity:1;fill-rule:nonzero;stroke:none"
         id="path540" /><path
         d="m 2340.48,1831.16 109.87,-18.9 -60.49,-96.11 c -14.33,-2.35 -71.79,28.78 -97.14,67.34 l 47.76,47.67"
         style="fill:#f9a8b3;fill-opacity:1;fill-rule:nonzero;stroke:none"
         id="path542" /><path
         d="m 2518.03,1746.98 -43.91,-49.8 -84.26,18.96 60.49,96.12 67.68,-65.28"
         style="fill:#f9a8b3;fill-opacity:1;fill-rule:nonzero;stroke:none"
         id="path544" /><path
         d="m 1713.01,2379.7 c 0,0 120.1,-282.23 33.56,-807.81 -150.62,0 -426.59,0 -499.89,0 -6.1,76.74 29.13,451.06 -57.42,812.62 0,0 85.09,17.2 166.6,21.13 63.77,3.08 156.17,5.12 212.49,-0.01 74.27,-6.75 144.66,-25.93 144.66,-25.93"
         style="fill:#406fbf;fill-opacity:1;fill-rule:nonzero;stroke:none"
         id="path546" /><path
         d="m 1246.53,1928.87 c -0.67,18.64 -1.52,37.72 -2.58,57.17 l 0.04,0.18 c 1.06,-19.46 1.91,-38.57 2.58,-57.22 -0.01,-0.04 -0.02,-0.09 -0.04,-0.13"
         style="fill:#969ca1;fill-opacity:1;fill-rule:nonzero;stroke:none"
         id="path548" /><path
         d="m 1243.95,1986.04 c -0.99,18.17 -2.16,36.63 -3.55,55.4 0.01,0.03 0.03,0.05 0.04,0.08 1.39,-18.71 2.56,-37.18 3.55,-55.3 l -0.04,-0.18"
         style="fill:#a7a9a8;fill-opacity:1;fill-rule:nonzero;stroke:none"
         id="path550" /><path
         d="m 1246.57,1929 c -0.67,18.65 -1.52,37.76 -2.58,57.22 -0.99,18.12 -2.16,36.59 -3.55,55.3 19.07,39.88 41.51,89.26 59.43,135.78 -7.31,-68.1 -24.28,-154.6 -53.3,-248.3"
         style="fill:#2d5bb2;fill-opacity:1;fill-rule:nonzero;stroke:none"
         id="path552" /><path
         d="m 1368.61,2644.91 c 15.78,-68.37 33.5,-193.64 -12.75,-239.27 0,0 19.96,-56.64 147.01,-56.64 139.69,0 65.48,56.63 65.48,56.63 -76.87,18.21 -76.86,74.78 -65.43,127.9 l -134.31,111.38"
         style="fill:#f9a8b3;fill-opacity:1;fill-rule:nonzero;stroke:none"
         id="path554" /><path
         d="m 1511.53,2343.75 29.82,-31.77 c 1.8,-1.93 2.24,-4.76 1.11,-7.14 l -14.96,-31.36 c -1.01,-2.13 -3.11,-3.53 -5.47,-3.64 l -22.71,-1.09 c -2.2,-0.11 -4.31,0.93 -5.57,2.74 l -20.93,30.11 c -1.65,2.38 -1.51,5.57 0.36,7.79 l 28.79,34.11 c 2.47,2.93 6.94,3.04 9.56,0.25"
         style="fill:#ffffff;fill-opacity:1;fill-rule:nonzero;stroke:none"
         id="path556" /><path
         d="m 1506.61,2349 c -23.03,-33.71 -24.31,-76.98 -24.31,-76.98 0,0 -162.27,55.47 -154.92,136.74 0,0 27.34,13.25 41.52,24.02 0,0 5.34,-51.23 137.71,-83.78"
         style="fill:#17282f;fill-opacity:1;fill-rule:nonzero;stroke:none"
         id="path558" /><path
         d="m 1506.61,2349 c 23.02,-33.71 30.66,-72.1 30.66,-72.1 0,0 75.24,51.51 53.86,131.86 0,0 -24.11,5.11 -44.26,9.49 0,0 9.35,-51.86 -40.26,-69.25"
         style="fill:#17282f;fill-opacity:1;fill-rule:nonzero;stroke:none"
         id="path560" /><path
         d="m 1525,2273.19 c 10.21,-33.19 85.39,-279.37 87.29,-338.3 l -0.14,-1.47 c -6.93,-31.73 -38.35,-87.3 -51.17,-109.12 -2.24,-3.81 -7.82,-3.43 -9.5,0.65 -8.8,21.45 -30.1,72.93 -44,103.04 l -0.46,1.85 c -6.66,107.5 -8.4,274.63 -11.73,341.52 -0.15,3.05 2.27,5.54 5.33,5.54 h 19.3 c 2.34,0 4.39,-1.47 5.08,-3.71"
         style="fill:#ffffff;fill-opacity:1;fill-rule:nonzero;stroke:none"
         id="path562" /><path
         d="m 1497.62,2495.88 c -0.01,0 -0.01,0 -0.02,0 0.04,0.97 0.1,1.96 0.16,2.94 -0.06,-0.98 -0.1,-1.97 -0.14,-2.94 m 5.24,37.7 -17.92,14.87 17.93,-14.86 c 0,0 -0.01,0 -0.01,-0.01"
         style="fill:#b6b8b6;fill-opacity:1;fill-rule:nonzero;stroke:none"
         id="path564" /><path
         d="m 1497.6,2495.88 c -29.27,4.22 -70.37,36.19 -74.52,66.67 -2.07,15.22 -1.94,29.83 0.29,36.92 l 61.57,-51.02 17.92,-14.87 c -2.53,-11.57 -4.46,-23.3 -5.1,-34.76 -0.06,-0.98 -0.12,-1.97 -0.16,-2.94"
         style="fill:#d8898c;fill-opacity:1;fill-rule:nonzero;stroke:none"
         id="path566" /><path
         d="m 1564.37,2848.24 c 18.92,-14.13 51.19,-73.77 9.87,-89.31 -41.32,-15.54 -56.13,123.85 -9.87,89.31"
         style="fill:#17282f;fill-opacity:1;fill-rule:nonzero;stroke:none"
         id="path568" /><path
         d="m 1343.96,2726.88 c 18.96,-91.05 25.43,-145.15 78.74,-187.09 80.19,-63.09 187.69,-8.62 196.36,85.3 7.8,84.54 -24.51,219.24 -119.89,245.82 -93.96,26.19 -174.17,-52.98 -155.21,-144.03"
         style="fill:#f9a8b3;fill-opacity:1;fill-rule:nonzero;stroke:none"
         id="path570" /><path
         d="m 1355.86,2658.27 38.28,25.55 2.43,22.15 c 3.53,32.2 -2.47,64.73 -17.25,93.54 0,0 185.65,-6.94 208.73,51.2 23.08,58.13 -42.47,101.76 -42.47,101.76 0,0 -65.71,-37.62 -110.12,-40.7 -44.41,-3.09 -180.1,52.42 -180.1,-62.3 -59.83,-18.5 -57.94,-117.18 100.5,-191.2"
         style="fill:#17282f;fill-opacity:1;fill-rule:nonzero;stroke:none"
         id="path572" /><path
         d="m 1262.29,2844.97 c 0,0 -24.58,19.59 -6.25,79.17 -22.5,-11.25 -33.33,-72.08 6.25,-79.17"
         style="fill:#17282f;fill-opacity:1;fill-rule:nonzero;stroke:none"
         id="path574" /><path
         d="m 1317.08,2621.26 c 16.11,-19.64 39.62,-30.37 60.21,-32.55 30.96,-3.27 40.31,25.35 26.57,51.59 -12.37,23.63 -43.39,53.8 -72,44.9 -28.19,-8.77 -33.21,-41.48 -14.78,-63.94"
         style="fill:#f9a8b3;fill-opacity:1;fill-rule:nonzero;stroke:none"
         id="path576" /><path
         d="m 1788.79,1267.98 h -319.45 c -28.74,173.47 -51.81,303.94 -51.81,303.94 h 329.03 c 0,0 18.53,-128.33 42.23,-303.94"
         style="fill:#17282f;fill-opacity:1;fill-rule:nonzero;stroke:none"
         id="path578" /><path
         d="m 1258.81,1267.98 c -7.18,173.47 -12.6,303.94 -12.6,303.94 h 322.59 c 0,0 1.64,-132.11 2.27,-303.94 h -312.26"
         style="fill:#17282f;fill-opacity:1;fill-rule:nonzero;stroke:none"
         id="path580" /><path
         d="m 1487.27,2716.6 c 1.08,-7.46 5.93,-13.08 10.83,-12.54 4.9,0.54 7.99,7.03 6.91,14.49 -1.08,7.47 -5.94,13.08 -10.84,12.54 -4.89,-0.54 -7.98,-7.02 -6.9,-14.49"
         style="fill:#17282f;fill-opacity:1;fill-rule:nonzero;stroke:none"
         id="path582" /><path
         d="m 1571.97,2725.91 c 1.08,-7.46 5.93,-13.08 10.83,-12.54 4.9,0.54 7.99,7.03 6.9,14.49 -1.08,7.47 -5.93,13.08 -10.83,12.54 -4.9,-0.54 -7.99,-7.02 -6.9,-14.49"
         style="fill:#17282f;fill-opacity:1;fill-rule:nonzero;stroke:none"
         id="path584" /><path
         d="m 1545.58,2719.24 c 0,0 23.29,-41.19 45.06,-59.91 -11.47,-13.78 -34.82,-10.63 -34.82,-10.63 l -10.24,70.54"
         style="fill:#f46878;fill-opacity:1;fill-rule:nonzero;stroke:none"
         id="path586" /><path
         d="m 1521.37,2625.62 c 4.78,-0.51 9.96,-0.55 15.53,0.06 1.22,0.14 2.1,1.23 1.96,2.45 -0.13,1.21 -1.2,2.08 -2.44,1.96 -32.91,-3.63 -51.63,17.61 -51.82,17.83 -0.8,0.93 -2.2,1.02 -3.12,0.23 -0.93,-0.8 -1.04,-2.19 -0.23,-3.12 0.68,-0.8 14.69,-16.71 40.12,-19.41"
         style="fill:#17282f;fill-opacity:1;fill-rule:nonzero;stroke:none"
         id="path588" /><path
         d="m 1456.69,2740.98 c 1.7,-0.18 3.43,0.65 4.33,2.23 9.42,16.63 25.3,17.61 25.97,17.64 2.43,0.12 4.32,2.19 4.21,4.62 -0.11,2.44 -2.15,4.37 -4.58,4.23 -0.87,-0.04 -21.38,-1.08 -33.31,-22.13 -1.21,-2.12 -0.46,-4.83 1.67,-6.03 l 1.71,-0.56"
         style="fill:#17282f;fill-opacity:1;fill-rule:nonzero;stroke:none"
         id="path590" /><path
         d="m 1603.73,2758.95 c 1,-0.1 2.03,0.12 2.93,0.72 2.04,1.36 2.58,4.11 1.22,6.14 -13.76,20.58 -34.2,21.12 -35.05,21.12 -2.45,0.03 -4.46,-1.92 -4.5,-4.36 -0.03,-2.44 1.95,-4.5 4.35,-4.5 0.81,0 16.81,-0.67 27.84,-17.18 0.76,-1.13 1.95,-1.8 3.21,-1.94"
         style="fill:#17282f;fill-opacity:1;fill-rule:nonzero;stroke:none"
         id="path592" /><path
         d="m 1284.65,2244.01 -22.16,-38.25 c -7.5,-13.1 -14.81,-26.38 -21.92,-39.75 -14.34,-26.68 -28.22,-53.56 -41.41,-80.59 -12.91,-27.09 -25.33,-54.34 -36.41,-81.65 -5.4,-13.66 -10.71,-27.4 -15.36,-41.07 l -7.04,-20.5 -5.98,-20.42 -1.49,-5.11 -0.76,-2.56 -0.22,-0.57 c -0.25,-0.12 -0.45,-1.12 -0.71,-2.27 -0.41,-2.59 -0.41,-6.81 0.03,-11.71 0.81,-9.93 3.52,-22.34 7.4,-35.04 7.95,-25.54 19.09,-53.02 31.95,-79.95 25.28,-54.27 56.14,-109.06 86.41,-162.54 l -55.29,-43.22 c -23.63,23.68 -44.75,47.83 -65.59,73.25 -20.71,25.36 -40.31,51.79 -58.95,79.65 -18.18,28.17 -35.96,57.22 -50.35,90.94 -7.21,16.91 -13.85,34.9 -18.41,56.17 -2.19,10.7 -3.76,22.29 -3.83,35.53 0.07,6.75 0.37,13.67 1.59,21.33 l 0.88,5.26 0.65,3.21 1.28,6.42 c 6.24,34.73 15.91,67.39 26.39,99.68 10.51,32.19 22.97,63.19 36.1,93.77 13.28,30.47 27.76,60.2 43.22,89.36 7.79,14.56 15.77,28.97 24.03,43.32 8.25,14.6 16.52,28.06 26.4,43.32 l 119.55,-76.01"
         style="fill:#f9a8b3;fill-opacity:1;fill-rule:nonzero;stroke:none"
         id="path594" /><path
         d="m 1189.26,2384.51 c -87.98,-12.86 -178.62,-319.26 -178.62,-319.26 l 189.35,-104.9 c 0,0 76.74,145.73 113.32,253.95 38.33,113.38 -29.69,184.01 -124.05,170.21"
         style="fill:#406fbf;fill-opacity:1;fill-rule:nonzero;stroke:none"
         id="path596" /><path
         d="m 1014.51,2108.4 -8.02,-45.02 194.59,-107.01 25.91,37.01 -212.48,115.02"
         style="fill:#406fbf;fill-opacity:1;fill-rule:nonzero;stroke:none"
         id="path598" /><path
         d="m 1201.08,1956.37 -46.73,25.7 -119.76,65.86 -28.1,15.45 8.02,45.02 212.48,-115.02 -25.91,-37.01"
         style="fill:#3665b9;fill-opacity:1;fill-rule:nonzero;stroke:none"
         id="path600" /><path
         d="m 1231.98,1642.72 93.06,16.22 -47.75,-107.71 c 0,0 -84.95,0.49 -81.05,44.27 l 35.74,47.22"
         style="fill:#f9a8b3;fill-opacity:1;fill-rule:nonzero;stroke:none"
         id="path602" /><path
         d="m 1394.46,1604.81 -43.71,-87.03 -73.46,33.45 47.75,107.71 69.42,-54.13"
         style="fill:#f9a8b3;fill-opacity:1;fill-rule:nonzero;stroke:none"
         id="path604" /><path
         d="M 4303.07,1211.38 H 2955.04 c -19.62,0 -35.14,16.05 -34.49,35.68 l 31.9,963.73 c 0.65,19.63 17.23,35.68 36.85,35.68 h 1348.03 c 19.62,0 35.15,-16.05 34.5,-35.68 l -31.9,-963.73 c -0.65,-19.63 -17.24,-35.68 -36.86,-35.68"
         style="fill:#406fbf;fill-opacity:1;fill-rule:nonzero;stroke:none"
         id="path606" /><path
         d="m 4303.07,1211.38 h -11.01 c 19.62,0 36.21,16.05 36.86,35.68 l 31.9,963.73 c 0.65,19.63 -14.88,35.68 -34.5,35.68 H 3854.5 v 0 h 482.83 c 19.24,0 34.54,-15.43 34.52,-34.53 -0.01,-0.38 -0.01,-0.76 -0.02,-1.15 l -31.9,-963.73 c -0.65,-19.63 -17.24,-35.68 -36.86,-35.68"
         style="fill:#265396;fill-opacity:1;fill-rule:nonzero;stroke:none"
         id="path608" /><path
         d="M 4292.06,1211.38 H 2944.04 c -19.63,0 -35.15,16.05 -34.5,35.68 l 31.9,963.73 c 0.65,19.63 17.24,35.68 36.86,35.68 h 1348.02 c 19.62,0 35.15,-16.05 34.5,-35.68 l -31.9,-963.73 c -0.65,-19.63 -17.24,-35.68 -36.86,-35.68"
         style="fill:#406fbf;fill-opacity:1;fill-rule:nonzero;stroke:none"
         id="path610" /><path
         d="M 4274.7,1213.14 H 2646.64 c -16.96,0 -31.68,-9.88 -38.47,-24.05 -3.9,-8.15 2.07,-17.54 11.26,-17.54 h 1682.48 c 9.19,0 15.16,9.39 11.25,17.54 -6.78,14.17 -21.5,24.05 -38.46,24.05"
         style="fill:#406fbf;fill-opacity:1;fill-rule:nonzero;stroke:none"
         id="path612" /><path
         d="m 4301.91,1171.55 h -303.94 c -9.19,0 -15.16,9.39 -11.26,17.54 6.79,14.17 21.51,24.05 38.47,24.05 h 249.52 c 16.96,0 31.68,-9.88 38.46,-24.05 0.84,-1.75 1.22,-3.56 1.22,-5.32 -0.03,-6.43 -5.26,-12.22 -12.47,-12.22"
         style="fill:#265396;fill-opacity:1;fill-rule:nonzero;stroke:none"
         id="path614" /><path
         d="M 3438.36,1171.55 H 3070.1 c 0,8.33 6.81,15.15 15.13,15.15 h 338 c 8.32,0 15.13,-6.82 15.13,-15.15"
         style="fill:#3563b7;fill-opacity:1;fill-rule:nonzero;stroke:none"
         id="path616" /><path
         d="m 4284.66,1268.01 h -397.42 l 211.28,921.83 h -183.34 l -13.79,-60.16 c -6.36,18.04 -13.98,38.65 -22.58,60.16 h 436.37 c 7.64,0 13.68,-6.25 13.43,-13.9 l -29.59,-894.03 c -0.26,-7.64 -6.72,-13.9 -14.36,-13.9 m -1140.2,0 h -53.19 l 85.18,371.67 c 3.03,-22.13 6.43,-44.72 10.23,-67.79 v 0 c -0.31,-2.2 -18.73,-129.81 -42.22,-303.88 m -119.15,0 h -70.13 c -7.64,0 -13.69,6.26 -13.43,13.9 l 18.08,546.3 c 23.13,18.73 43.93,38.43 63.78,58.66 36.44,37.39 69.62,76.28 100.88,116.14 l 23.76,-19.5 7.85,8.15 c -0.04,-1.44 -0.08,-2.87 -0.12,-4.32 -1.16,-43.97 -0.83,-91.54 1.51,-142.58 l -132.18,-576.75 m 689.21,46.29 c 0,0.91 0.01,1.8 0.01,2.71 -0.02,113.69 -16.13,202.76 -23.68,238.23 18.42,3.95 38.43,11.79 44.46,27.37 19.44,19.73 37.21,39.81 54.62,60.72 l -75.41,-329.03 m -25.37,330.53 -2.46,0.43 c -1.8,87.09 -6.11,231.28 6.11,396.25 0.88,-1.83 1.75,-3.64 2.61,-5.43 5.85,-12.19 11.33,-23.4 16.19,-33.27 0,0.04 0.01,0.08 0.01,0.12 0.89,-1.8 1.76,-3.54 2.61,-5.24 l -7.97,-4.31 25.91,-37.01 46.74,25.7 c 2.42,-6.46 4.76,-12.93 6.95,-19.37 l 7.05,-20.5 5.97,-20.42 1.5,-5.11 0.75,-2.56 0.22,-0.57 c 0.26,-0.12 0.45,-1.12 0.72,-2.27 0.41,-2.59 0.4,-6.81 -0.04,-11.71 -0.8,-9.93 -3.51,-22.34 -7.4,-35.04 -7.95,-25.54 -19.08,-53.02 -31.95,-79.95 -21.7,-46.58 -47.5,-93.54 -73.52,-139.74 m -722.73,382.47 4.92,148.64 c 0.25,7.65 6.71,13.9 14.35,13.9 h 53.4 c -9.82,-15.13 -18.45,-28.84 -25.5,-40.22 l -8.84,7.11 -14.89,-43.24 26.17,-21.48 c -16.2,-22.05 -32.71,-43.7 -49.61,-64.71"
         style="fill:#e6effa;fill-opacity:1;fill-rule:nonzero;stroke:none"
         id="path618" /><path
         d="m 3887.24,1267.98 h -183.33 l 211.27,921.86 h 183.34 l -211.28,-921.86"
         style="fill:#ffffff;fill-opacity:1;fill-rule:nonzero;stroke:none"
         id="path620" /><path
         d="m 3091.26,1267.98 h -65.96 l 211.28,921.86 h 65.96 l -211.28,-921.86"
         style="fill:#ffffff;fill-opacity:1;fill-rule:nonzero;stroke:none"
         id="path622" /><path
         d="m 4037.51,1267.98 h -65.96 l 211.27,921.86 h 65.96 l -211.27,-921.86"
         style="fill:#ffffff;fill-opacity:1;fill-rule:nonzero;stroke:none"
         id="path624" /><path
         d="m 3564.63,2644.91 c -15.78,-68.37 -33.5,-193.64 12.75,-239.27 0,0 -19.96,-56.64 -147,-56.64 -139.7,0 -65.49,56.63 -65.49,56.63 76.87,18.21 76.87,74.78 65.43,127.9 l 134.31,111.38"
         style="fill:#cd4b4f;fill-opacity:1;fill-rule:nonzero;stroke:none"
         id="path626" /><path
         d="m 3768.14,2320.02 c 9.88,-15.26 18.15,-28.72 26.41,-43.32 8.25,-14.35 16.24,-28.76 24.03,-43.32 15.46,-29.16 29.94,-58.89 43.21,-89.36 13.14,-30.58 25.59,-61.58 36.11,-93.77 10.48,-32.29 20.15,-64.95 26.38,-99.68 l 1.29,-6.42 0.65,-3.21 0.87,-5.26 c 1.22,-7.66 1.52,-14.58 1.6,-21.33 -0.08,-13.24 -1.65,-24.83 -3.83,-35.53 -4.56,-21.27 -11.2,-39.26 -18.41,-56.17 -14.39,-33.72 -32.18,-62.77 -50.36,-90.94 -18.63,-27.86 -38.24,-54.29 -58.95,-79.65 -20.84,-25.42 -41.95,-49.57 -65.59,-73.25 l -55.29,43.22 c 30.28,53.48 61.13,108.27 86.41,162.54 12.87,26.93 24,54.41 31.95,79.95 3.89,12.7 6.6,25.11 7.4,35.04 0.44,4.9 0.45,9.12 0.04,11.71 -0.27,1.15 -0.46,2.15 -0.72,2.27 l -0.22,0.57 -0.75,2.56 -1.5,5.11 -5.97,20.42 -7.05,20.5 c -4.64,13.67 -9.96,27.41 -15.35,41.07 -11.08,27.31 -23.5,54.56 -36.42,81.65 -13.19,27.03 -27.07,53.91 -41.4,80.59 -7.11,13.37 -14.43,26.65 -21.93,39.75 l -22.16,38.25 119.55,76.01"
         style="fill:#ce4a4f;fill-opacity:1;fill-rule:nonzero;stroke:none"
         id="path628" /><path
         d="m 3743.99,2384.51 c 87.97,-12.86 178.61,-319.26 178.61,-319.26 l -189.35,-104.9 c 0,0 -76.74,145.73 -113.31,253.95 -38.33,113.38 29.68,184.01 124.05,170.21"
         style="fill:#17282f;fill-opacity:1;fill-rule:nonzero;stroke:none"
         id="path630" /><path
         d="m 3711.6,2002.81 c -4.86,9.87 -10.34,21.08 -16.19,33.27 5.84,-12.15 11.32,-23.33 16.2,-33.15 0,-0.04 -0.01,-0.08 -0.01,-0.12"
         style="fill:#97a0aa;fill-opacity:1;fill-rule:nonzero;stroke:none"
         id="path632" /><path
         d="m 3711.61,2002.93 c -4.88,9.82 -10.36,21 -16.2,33.15 -0.86,1.79 -1.73,3.61 -2.6,5.44 2.76,37.32 6.38,75.73 11.06,114.76 11.49,-57.44 10.76,-114.17 7.74,-153.35"
         style="fill:#0f191d;fill-opacity:1;fill-rule:nonzero;stroke:none"
         id="path634" /><path
         d="m 3918.74,2108.4 8.02,-45.02 -194.6,-107.01 -25.91,37.01 212.49,115.02"
         style="fill:#406fbf;fill-opacity:1;fill-rule:nonzero;stroke:none"
         id="path636" /><path
         d="m 3732.16,1956.37 -25.91,37.01 212.49,115.02 8.02,-45.02 -28.11,-15.45 -119.75,-65.86 -46.74,-25.7"
         style="fill:#3665b9;fill-opacity:1;fill-rule:nonzero;stroke:none"
         id="path638" /><path
         d="m 3701.26,1642.72 -93.06,16.22 47.76,-107.71 c 0,0 84.94,0.49 81.05,44.27 l -35.75,47.22"
         style="fill:#cd4b4f;fill-opacity:1;fill-rule:nonzero;stroke:none"
         id="path640" /><path
         d="m 3538.78,1604.81 43.72,-87.03 73.46,33.45 -47.76,107.71 -69.42,-54.13"
         style="fill:#cd4b4f;fill-opacity:1;fill-rule:nonzero;stroke:none"
         id="path642" /><path
         d="m 3220.23,2379.7 c 0,0 -120.09,-282.23 -33.55,-807.81 150.61,0 426.59,0 499.88,0 6.11,76.74 -29.12,451.06 57.43,812.62 0,0 -85.09,17.2 -166.61,21.13 -63.76,3.08 -156.16,5.12 -212.49,-0.01 -74.27,-6.75 -144.66,-25.93 -144.66,-25.93"
         style="fill:#17282f;fill-opacity:1;fill-rule:nonzero;stroke:none"
         id="path644" /><path
         d="m 3155.98,1987.34 c 0.04,1.45 0.08,2.88 0.12,4.32 v 0.01 c -0.04,-1.45 -0.08,-2.88 -0.12,-4.33"
         style="fill:#97a0aa;fill-opacity:1;fill-rule:nonzero;stroke:none"
         id="path646" /><path
         d="m 3155.4,1947.81 c 0.06,13.48 0.25,26.66 0.58,39.53 0.04,1.45 0.08,2.88 0.12,4.33 l 23.47,24.39 -7.41,5.96 c 19.6,22.73 48.65,57.63 76.77,95.94 -13.45,-64.44 -39.83,-135.16 -93.53,-170.15"
         style="fill:#0f191d;fill-opacity:1;fill-rule:nonzero;stroke:none"
         id="path648" /><path
         d="m 3287.76,2242.85 c -19.02,-32.88 -38.4,-63.01 -58.58,-93.83 -20.04,-30.64 -40.9,-60.75 -62.63,-90.42 -43.46,-59.34 -89.73,-117.13 -142.94,-171.73 -26.78,-27.3 -55.31,-53.63 -88.95,-77.94 l -12.95,-9.03 c -5.59,-3.39 -11.4,-7.07 -16.83,-9.68 -11.13,-5.92 -21.69,-10 -32.26,-13.76 -20.92,-7.12 -40.88,-11.67 -60.5,-15.26 -39.25,-6.62 -77.09,-8.95 -114.61,-9.09 -18.76,0.13 -37.36,0.48 -55.94,1.9 -18.69,1.34 -36.74,2.7 -55.95,5.52 l -0.05,70.17 c 33.7,5.8 68.69,12.28 102.16,19.42 16.82,3.52 33.45,7.28 49.68,11.52 16.26,4.03 32.16,8.54 47.24,13.67 15.09,4.89 29.53,10.4 41.79,16.59 5.88,3.2 11.77,6.23 16.08,9.35 2.51,1.5 3.98,3.05 5.94,4.44 l 8.62,6.87 c 23.34,18.94 46.23,42.69 68.51,67.29 44.33,50.02 85.83,105.5 125.66,162.29 19.95,28.42 39.37,57.38 58.72,86.4 19.07,28.93 38.13,59.08 55.9,87.5 l 121.89,-72.19"
         style="fill:#ce4a4f;fill-opacity:1;fill-rule:nonzero;stroke:none"
         id="path650" /><path
         d="m 3334.1,2295.81 c 9.82,-87.83 -185.77,-300.75 -185.77,-300.75 l -154.94,121.16 c 0,0 66.81,114.64 137.41,202.13 80.41,99.65 192.21,76.6 203.3,-22.54"
         style="fill:#17282f;fill-opacity:1;fill-rule:nonzero;stroke:none"
         id="path652" /><path
         d="m 3004.75,2156.73 -14.89,-43.24 158.39,-129.98 31.32,32.55 -174.82,140.67"
         style="fill:#406fbf;fill-opacity:1;fill-rule:nonzero;stroke:none"
         id="path654" /><path
         d="m 3148.25,1983.51 -23.76,19.5 -108.46,89 -26.17,21.48 14.89,43.24 174.82,-140.67 -23.47,-24.39 v -0.01 l -7.85,-8.15"
         style="fill:#3665b9;fill-opacity:1;fill-rule:nonzero;stroke:none"
         id="path656" /><path
         d="m 2585.59,1829.37 -111.47,-1.7 44.91,-104.3 c 13.81,-4.54 75.38,17.34 106.39,51.52 l -39.83,54.48"
         style="fill:#cd4b4f;fill-opacity:1;fill-rule:nonzero;stroke:none"
         id="path658" /><path
         d="m 2397.16,1773.63 60.94,-76.45 60.93,26.18 -44.91,104.31 -76.96,-54.04"
         style="fill:#cd4b4f;fill-opacity:1;fill-rule:nonzero;stroke:none"
         id="path660" /><path
         d="m 3333.49,2725.91 c -1.09,-7.46 -5.94,-13.08 -10.83,-12.54 -4.91,0.54 -8,7.03 -6.91,14.49 1.08,7.47 5.93,13.08 10.83,12.54 4.89,-0.54 7.99,-7.02 6.91,-14.49"
         style="fill:#17282f;fill-opacity:1;fill-rule:nonzero;stroke:none"
         id="path662" /><path
         d="m 3335.6,2719.24 c 0,0 -23.29,-41.19 -45.06,-59.91 11.46,-13.78 34.82,-10.63 34.82,-10.63 l 10.24,70.54"
         style="fill:#bb2329;fill-opacity:1;fill-rule:nonzero;stroke:none"
         id="path664" /><path
         d="m 3313.91,2769.44 h -0.06 c -3.73,-0.01 -7.2,-1.75 -10.31,-5.15 -7.91,-8.66 -11.79,-25.89 -10.13,-44.97 2.36,-27.28 15.86,-50.29 29.5,-50.29 h 0.05 c 3.74,0.02 7.21,1.75 10.32,5.16 7.9,8.66 11.78,25.88 10.13,44.96 -2.37,27.29 -15.87,50.29 -29.5,50.29 z m 9,-105.41 c -16.68,0 -31.82,24.07 -34.48,54.86 -1.77,20.43 2.6,39.11 11.42,48.77 4.03,4.41 8.86,6.76 13.98,6.78 h 0.08 c 16.68,0 31.81,-24.06 34.48,-54.86 1.77,-20.42 -2.6,-39.11 -11.42,-48.76 -4.03,-4.42 -8.86,-6.76 -13.99,-6.79 h -0.07"
         style="fill:#17282f;fill-opacity:1;fill-rule:nonzero;stroke:none"
         id="path666" /><path
         d="m 3360.01,2758.95 c 1,-0.1 2.04,0.13 2.93,0.72 2.04,1.36 2.58,4.11 1.22,6.14 -13.76,20.58 -34.2,21.12 -35.05,21.12 -2.45,0.03 -4.46,-1.92 -4.49,-4.36 -0.04,-2.44 1.95,-4.5 4.34,-4.5 0.81,0 16.81,-0.67 27.85,-17.18 0.75,-1.13 1.94,-1.8 3.2,-1.94"
         style="fill:#17282f;fill-opacity:1;fill-rule:nonzero;stroke:none"
         id="path668" /><path
         d="m 3589.28,2726.88 c -18.96,-91.05 -25.43,-145.15 -78.73,-187.09 -80.19,-63.09 -187.69,-8.62 -196.37,85.3 -7.8,84.54 24.52,219.24 119.9,245.82 93.96,26.19 174.16,-52.98 155.2,-144.03"
         style="fill:#cd4b4f;fill-opacity:1;fill-rule:nonzero;stroke:none"
         id="path670" /><path
         d="m 3713.52,1267.98 c 7.18,173.47 -26.48,303.94 -26.48,303.94 h -322.6 c 0,0 37.45,-132.11 36.81,-303.94 h 312.27"
         style="fill:#406fbf;fill-opacity:1;fill-rule:nonzero;stroke:none"
         id="path672" /><path
         d="m 3713.52,1267.98 h -210.53 c 13.59,81.99 17.17,154.37 17.18,207.92 0,59.74 -4.45,96.02 -4.45,96.02 h -151.28 v 0 h 322.6 c 0,0 27.47,-106.46 27.49,-254.91 0,-0.91 -0.01,-1.8 -0.01,-2.71 -0.03,-15.04 -0.34,-30.5 -1,-46.32 v 0"
         style="fill:#6d97d6;fill-opacity:1;fill-rule:nonzero;stroke:none"
         id="path674" /><path
         d="m 3391.67,2699.51 c -17.78,8.88 -40,97.78 -33.89,129.44 6.11,31.67 77.78,65.55 148.33,52.78 70.56,-12.78 100.82,-37.54 114.45,-101.67 14.16,-66.67 -37.23,-177.57 -62.64,-186.11 -34.03,-11.44 -69.79,-6.46 -92.36,7.78 -22.68,14.3 -34.45,116.11 -73.89,97.78"
         style="fill:#17282f;fill-opacity:1;fill-rule:nonzero;stroke:none"
         id="path676" /><path
         d="m 3373,2797 c -34.45,-1.94 -67.22,52.79 -35.56,101.67 31.67,48.89 85.56,38.33 85.56,38.33 0,0 -14.45,-28.05 33.61,-22.21 48.05,5.83 137.37,-7.51 168.63,-41.11 38.51,-41.39 15.26,-122.79 -42.8,-102.79 -58.06,20 -209.44,26.11 -209.44,26.11"
         style="fill:#17282f;fill-opacity:1;fill-rule:nonzero;stroke:none"
         id="path678" /><path
         d="m 3363.75,2795.7 c -12.92,0 -26.55,6.82 -37.16,19 -14.24,16.36 -24.7,45.57 -11.37,78.51 0.52,1.28 1.98,1.9 3.26,1.38 1.28,-0.52 1.9,-1.98 1.38,-3.25 -12.49,-30.85 -2.76,-58.12 10.51,-73.35 11.73,-13.48 27.32,-19.78 40.68,-16.41 1.35,0.35 2.7,-0.47 3.04,-1.81 0.34,-1.34 -0.48,-2.7 -1.81,-3.04 -2.78,-0.69 -5.64,-1.03 -8.53,-1.03"
         style="fill:#17282f;fill-opacity:1;fill-rule:nonzero;stroke:none"
         id="path680" /><path
         d="m 3448.16,2710.98 c 1.83,-25.33 -7.84,-49.3 -21.28,-65.05 -20.21,-23.69 -46.68,-9.36 -54.78,19.13 -7.29,25.66 -5.55,68.9 21.33,82.13 26.49,13.04 52.64,-7.23 54.73,-36.21"
         style="fill:#cd4b4f;fill-opacity:1;fill-rule:nonzero;stroke:none"
         id="path682" /><path
         d="m 3144.46,1267.98 h 358.53 c 28.74,173.47 12.73,303.94 12.73,303.94 h -329.03 c 0,0 -18.54,-128.33 -42.23,-303.94"
         style="fill:#406fbf;fill-opacity:1;fill-rule:nonzero;stroke:none"
         id="path684" /><path
         d="m 3502.99,1267.98 h -358.53 c 23.69,175.61 42.23,303.94 42.23,303.94 h 329.03 c 0,0 4.45,-36.28 4.45,-96.02 -0.01,-53.55 -3.59,-125.93 -17.18,-207.92 v 0 0"
         style="fill:#6d97d6;fill-opacity:1;fill-rule:nonzero;stroke:none"
         id="path686" /></g></g></svg>
