<?xml version="1.0" encoding="iso-8859-1"?>
<!-- Generator: Adobe Illustrator 19.0.0, SVG Export Plug-In . SVG Version: 6.00 Build 0)  -->
<svg version="1.1" id="Layer_1" xmlns="http://www.w3.org/2000/svg" xmlns:xlink="http://www.w3.org/1999/xlink" x="0px" y="0px"
	 viewBox="0 0 512 512" style="enable-background:new 0 0 512 512;" xml:space="preserve">
<g>
	<g>
		<path d="M488.727,46.545H356.849V23.273C356.849,10.42,346.429,0,333.576,0c-12.853,0-23.273,10.42-23.273,23.273v23.273H201.697
			V23.273C201.697,10.42,191.277,0,178.424,0s-23.273,10.42-23.273,23.273v23.273H23.273C10.42,46.545,0,56.965,0,69.818v418.909
			C0,501.58,10.42,512,23.273,512h465.455C501.58,512,512,501.58,512,488.727V69.818C512,56.965,501.58,46.545,488.727,46.545z
			 M155.152,465.455H46.545v-62.061h108.606V465.455z M155.152,356.849H46.545v-62.061h108.606V356.849z M155.152,248.242H46.545
			v-62.061h108.606V248.242z M310.303,465.455H201.697v-62.061h108.606V465.455z M310.303,356.849H201.697v-62.061h108.606V356.849z
			 M310.303,248.242H201.697v-62.061h108.606V248.242z M465.455,465.455H356.849v-62.061h108.606V465.455z M465.455,356.849H356.849
			v-62.061h108.606V356.849z M465.455,248.242H356.849v-62.061h108.606V248.242z M465.455,139.636H46.545V93.091h418.909V139.636z"
			/>
	</g>
</g>
<g>
</g>
<g>
</g>
<g>
</g>
<g>
</g>
<g>
</g>
<g>
</g>
<g>
</g>
<g>
</g>
<g>
</g>
<g>
</g>
<g>
</g>
<g>
</g>
<g>
</g>
<g>
</g>
<g>
</g>
</svg>
