<?xml version="1.0" encoding="UTF-8" standalone="no"?>
<svg
   xmlns:dc="http://purl.org/dc/elements/1.1/"
   xmlns:cc="http://creativecommons.org/ns#"
   xmlns:rdf="http://www.w3.org/1999/02/22-rdf-syntax-ns#"
   xmlns:svg="http://www.w3.org/2000/svg"
   xmlns="http://www.w3.org/2000/svg"
   xmlns:sodipodi="http://sodipodi.sourceforge.net/DTD/sodipodi-0.dtd"
   xmlns:inkscape="http://www.inkscape.org/namespaces/inkscape"
   version="1.1"
   id="svg2"
   xml:space="preserve"
   width="3966.6667"
   height="2266.6667"
   viewBox="0 0 3966.6667 2266.6667"
   sodipodi:docname="5236.eps"><metadata
     id="metadata8"><rdf:RDF><cc:Work
         rdf:about=""><dc:format>image/svg+xml</dc:format><dc:type
           rdf:resource="http://purl.org/dc/dcmitype/StillImage" /></cc:Work></rdf:RDF></metadata><defs
     id="defs6" /><sodipodi:namedview
     pagecolor="#ffffff"
     bordercolor="#666666"
     borderopacity="1"
     objecttolerance="10"
     gridtolerance="10"
     guidetolerance="10"
     inkscape:pageopacity="0"
     inkscape:pageshadow="2"
     inkscape:window-width="640"
     inkscape:window-height="480"
     id="namedview4" /><g
     id="g10"
     inkscape:groupmode="layer"
     inkscape:label="ink_ext_XXXXXX"
     transform="matrix(1.3333333,0,0,-1.3333333,0,2266.6667)"><g
       id="g12"
       transform="scale(0.1)"><path
         d="M 0,17000 V 0 H 29750 V 17000 H 0"
         style="fill:#ffffff;fill-opacity:1;fill-rule:nonzero;stroke:none"
         id="path14" /><path
         d="m 3275.68,1675.4 c 0,0 -2826.887,6019.9 2744.59,6019.9 2943.77,0 1731.08,1651.68 3732.46,3563.2 2001.37,1911.5 9000.67,3438.7 10490.37,-252.5 1489.7,-3691.17 -2191.9,-6493.7 1365.6,-6012.9 4275.1,577.7 5963.9,-3317.7 5963.9,-3317.7 H 3275.68"
         style="fill:#fbecdb;fill-opacity:1;fill-rule:nonzero;stroke:none"
         id="path16" /><path
         d="m 26170.8,2439.2 c -263.8,192.8 -802.9,62.6 -1200.7,-76.6 -59.5,83.5 -131.5,169.6 -218.7,253.7 857,552.1 2040.8,1729.5 1413.4,1829.2 -545.4,86.6 -1281.5,-973.2 -1674.8,-1618.3 -408.5,274.8 -1034.4,476.8 -1990,406.7 -2480.1,-181.8 -4417.6,1418 -5845.8,884.4 -1135.5,-424.2 -2176.2,-661.9 -3179.8,-580.7 43.2,733.2 52.6,2172.7 -523.1,2322 -584.5,151.6 -11.2,-1483.2 307.4,-2299.5 -74.7,9.6 -149.3,21 -223.7,34.3 -206.4,406.8 -546.4,939.2 -919.7,957.4 -351.6,17.2 82.3,-461.5 509.3,-867 -1227.3,257.7 -2683.18,-740 -2707.33,-1919.6 H 25239.8 c 0,0 -27.1,172.2 -147.3,399.2 592.2,11.6 1364.8,65.4 1078.3,274.8"
         style="fill:#a8d29f;fill-opacity:1;fill-rule:nonzero;stroke:none"
         id="path18" /><path
         d="M 9221.19,2676.9 V 1765 h 4038.41 v 911.9 H 9221.19"
         style="fill:#4a75cb;fill-opacity:1;fill-rule:nonzero;stroke:none"
         id="path20" /><path
         d="M 7975.99,2676.9 V 1765 h 4038.41 v 911.9 H 7975.99"
         style="fill:#699dee;fill-opacity:1;fill-rule:nonzero;stroke:none"
         id="path22" /><path
         d="m 14848.3,1765.2 h 3007.1 V 5968.3 H 14848.3 V 1765.2"
         style="fill:#d86713;fill-opacity:1;fill-rule:nonzero;stroke:none"
         id="path24" /><path
         d="m 13921.2,1765.2 h 3007 v 4203.1 h -3007 V 1765.2"
         style="fill:#f1a34f;fill-opacity:1;fill-rule:nonzero;stroke:none"
         id="path26" /><path
         d="m 16928.2,5968.3 927.2,-631.1 v 631.1 z"
         style="fill:#c95c12;fill-opacity:1;fill-rule:nonzero;stroke:none"
         id="path28" /><path
         d="m 7645.62,5037.3 c 0,0 -562.37,-418.2 -672.02,-392.8 -109.65,25.3 410.99,451.4 410.99,451.4 -195.92,94.2 -804.94,35.1 -804.94,35.1 0,0 -202.85,-654.2 -302.9,-602.6 -100.02,51.6 209.18,570.1 209.18,570.1 -218.21,13.2 -485.84,-148.9 -485.84,-148.9 -366.38,-289.3 24.08,-744.9 24.08,-744.9 0,0 -75.2,-225.1 -306.57,-430.2 0,0 -330.45,-244.4 -353.4,-681.1 l 59.97,-5.3 c 0,0 95.09,406.7 267.86,599 6.72,7 16.49,17 28.54,29.1 28.15,26.1 47.87,45.7 61.12,60.2 85.99,82.7 204.83,187.9 262.08,198.1 0,0 -2.87,10.5 -2.44,28.8 0.78,-9.2 1.59,-18.7 2.44,-28.8 19.61,-230.2 466.28,-431.3 741.05,-472.6 274.8,-41.4 189.85,71.6 95.17,239 -94.68,167.5 -394.31,242.5 -462.67,319.6 -68.36,77.1 72.97,77.3 238.55,1.7 165.55,-75.6 188.22,-277.3 453.82,-404.5 265.58,-127.1 665.21,313.6 665.21,313.6 -211.66,10.7 -513.92,240.6 -503,310.9 10.95,70.4 513.1,-121.3 598.94,-130.5 85.84,-9.2 281.16,97.6 311.38,443.3 30.22,345.8 -536.6,442.3 -536.6,442.3"
         style="fill:#82b378;fill-opacity:1;fill-rule:nonzero;stroke:none"
         id="path30" /><path
         d="m 4658.96,4777.6 c 0,0 621.14,347.9 331.27,819.9 0,0 -231.88,289.9 -480.33,364.4 0,0 132.5,-703.9 0,-720.5 -132.52,-16.6 -91.1,795.1 -91.1,795.1 0,0 -654.26,314.7 -911,289.8 0,0 405.81,-687.4 273.3,-670.8 -132.51,16.6 -587.99,712.2 -587.99,712.2 0,0 -670.83,124.3 -778.49,-273.3 -107.66,-397.5 66.25,-596.3 165.63,-621.1 99.38,-24.9 737.07,-16.6 720.51,-99.4 -16.56,-82.8 -447.21,-215.3 -687.38,-140.8 0,0 265.02,-654.2 612.85,-621.1 347.83,33.1 455.5,248.4 670.82,265 215.32,16.6 372.68,-41.4 265.01,-99.4 -107.66,-57.9 -472.06,-19 -645.97,-166.8 -173.92,-147.9 -314.7,-239 8.29,-305.2 322.98,-66.3 902.7,-24.9 1018.64,223.6 115.94,248.4 115.94,248.4 115.94,248.4"
         style="fill:#a8d29f;fill-opacity:1;fill-rule:nonzero;stroke:none"
         id="path32" /><path
         d="m 4824.6,4173.1 c -173.92,323 -165.64,604.5 -165.64,604.5 -198.75,629.5 -1937.92,1192.6 -1937.92,1192.6 2211.22,-894.4 1821.98,-1441 1821.98,-1441 59.59,-34.8 148.94,-200.5 210.95,-327.7 8.82,-21.6 22.82,-51.6 43.59,-92.3 v 0 c 8.42,-18.3 15.15,-33.4 19.8,-43.9 113.85,-284.8 53.54,-776.8 53.54,-776.8 l 69,-18.5 c 152.91,495.8 -115.3,903.1 -115.3,903.1"
         style="fill:#82b378;fill-opacity:1;fill-rule:nonzero;stroke:none"
         id="path34" /><path
         d="m 5647.14,5257.3 c 0,0 -818.77,458.5 -436.68,1080.8 0,0 305.67,382.1 633.17,480.3 0,0 -174.67,-927.9 0,-949.7 174.68,-21.9 120.09,1048 120.09,1048 0,0 862.43,414.84 1200.86,382.09 0,0 -534.93,-906.09 -360.26,-884.29 174.67,21.9 775.09,938.87 775.09,938.87 0,0 884.27,163.76 1026.2,-360.27 141.91,-524 -87.35,-786 -218.34,-818.7 -131,-32.8 -971.61,-21.9 -949.77,-131.1 21.84,-109.1 589.5,-283.8 906.09,-185.5 0,0 -349.33,-862.5 -807.84,-818.8 -458.5,43.7 -600.43,327.5 -884.27,349.3 -283.83,21.9 -491.26,-54.5 -349.33,-131 141.91,-76.4 622.26,-25 851.51,-219.9 229.25,-194.9 414.85,-315 -10.93,-402.3 -425.74,-87.4 -1189.93,-32.8 -1342.76,294.7 -152.83,327.5 -152.83,327.5 -152.83,327.5"
         style="fill:#a8d29f;fill-opacity:1;fill-rule:nonzero;stroke:none"
         id="path36" /><path
         d="m 8201.68,6829.4 c 0,0 -2292.54,-742.4 -2554.54,-1572.1 0,0 10.92,-371.1 -218.35,-796.9 0,0 -353.55,-536.9 -151.98,-1190.4 l 90.95,24.4 c 0,0 -79.5,648.5 70.58,1024 6.12,13.8 15,33.7 26.09,57.9 v 0 c 27.4,53.6 45.83,93.1 57.47,121.6 81.74,167.6 199.53,386.1 278.07,431.9 0,0 -513.09,720.5 2401.71,1899.6"
         style="fill:#82b378;fill-opacity:1;fill-rule:nonzero;stroke:none"
         id="path38" /><path
         d="m 5619.55,1852.8 c 885.77,0 1603.82,718 1603.82,1603.8 H 4015.72 c 0,-885.8 718.06,-1603.8 1603.83,-1603.8"
         style="fill:#f1a34f;fill-opacity:1;fill-rule:nonzero;stroke:none"
         id="path40" /><path
         d="m 6014.2,1865 c -65.23,-8.1 -131.74,-12.2 -199.27,-12.2 -885.74,0 -1603.75,718.1 -1603.75,1603.8 h 398.44 c 0,-818.3 612.83,-1493.4 1404.58,-1591.6"
         style="fill:#ffb973;fill-opacity:1;fill-rule:nonzero;stroke:none"
         id="path42" /><path
         d="M 7047.66,1963.1 H 4191.44 c -109.28,0 -197.88,-88.6 -197.88,-197.9 h 3251.96 c 0,109.3 -88.59,197.9 -197.86,197.9"
         style="fill:#f1a34f;fill-opacity:1;fill-rule:nonzero;stroke:none"
         id="path44" /><path
         d="M 7235.25,3456.6 H 3987.58 c -13.59,0 -24.6,-11 -24.6,-24.6 0,-13.6 11.01,-24.6 24.6,-24.6 h 3247.67 c 13.59,0 24.59,11 24.59,24.6 0,13.6 -11,24.6 -24.59,24.6"
         style="fill:#d86713;fill-opacity:1;fill-rule:nonzero;stroke:none"
         id="path46" /><path
         d="m 19611.3,11902.2 c -46.5,7.1 -186.6,-122.4 -186.6,-122.4 v 0 c -299.1,-34.6 -736.4,-114 -893.8,-144.3 -111.7,-21.5 -411.8,80.8 -705,198.3 -348.7,139.8 -687.5,301 -687.5,301 -193.5,9.9 -413.2,-343.1 -20.8,-567.5 59.9,-34.3 284.9,-92.8 544.1,-146.2 0,0 0,0 0,0.1 357.5,-73.7 779.9,-137.6 923.6,-115.2 167,26.2 639.7,199.1 920.9,331.5 v 0 c 0,0 0.3,0.1 0.7,0.3 1.1,0.5 2.1,1 3.1,1.5 16.9,7.9 85.7,38.6 131.7,35.8 52.7,-3.1 170,93.3 173.6,119.1 3.5,25.7 -157.5,101 -204,108"
         style="fill:#ed975d;fill-opacity:1;fill-rule:nonzero;stroke:none"
         id="path48" /><path
         d="m 19246.1,7455.35 -164.7,-33.47 c 0,0 -753.7,846.83 -870,1203.17 -62.2,190.43 -460.1,272.72 -876,380.22 -361.9,93.58 -737.4,206.32 -916.7,426.3 -385.5,472.64 242,1053.43 242,1053.43 0,0 667.3,-396.6 1242.9,-806.27 402.3,-286.31 759.9,-579 813.8,-747.23 130.9,-409.07 408.4,-1186.66 528.7,-1476.15"
         style="fill:#2b478b;fill-opacity:1;fill-rule:nonzero;stroke:none"
         id="path50" /><path
         d="m 19025.6,7176 h 92.7 c 31,4.87 53.9,13.85 85.7,18.01 48.4,6.34 70.6,-13.47 75,-18.01 0.6,-0.61 0.9,-0.94 0.9,-0.94 h 393.5 c 9.9,14.13 0.4,46.88 -8.9,70.98 -6.2,16.38 -19.9,28.79 -36.8,33.68 -41.7,12.09 -124,22.85 -199.4,91.06 -42.3,38.3 -204.6,140.84 -204.6,140.84 l -0.9,0.2 c -3.6,-0.07 -20.5,-5.28 -94.4,-67.62 -38.1,-32.16 -103.2,45.43 -103.2,45.43 0,0 -12.2,-10.1 -21.3,-28.93 -7.3,-14.85 -12.7,-35.25 -8.5,-60.41 5.9,-35.46 -13,-101.35 -28.2,-145.92 -9.1,-27.02 -16.8,-46.17 -16.8,-46.17 0,0 -4.5,-22.24 75.2,-32.2"
         style="fill:#233862;fill-opacity:1;fill-rule:nonzero;stroke:none"
         id="path52" /><path
         d="m 17903.6,9678.73 -568.2,-673.46 c -361.9,93.58 -737.4,206.32 -916.7,426.3 -385.5,472.64 242,1053.43 242,1053.43 0,0 667.3,-396.6 1242.9,-806.27"
         style="fill:#1e3d70;fill-opacity:1;fill-rule:nonzero;stroke:none"
         id="path54" /><path
         d="m 17387.3,10030.5 c 0,0 -45.8,-144.44 -120.4,-361.75 -94.3,-274.77 -234.7,-666 -387,-1028.82 -33.5,-79.72 -67.6,-158.11 -101.9,-233.56 -126.7,-279.2 -256.3,-518.54 -370.5,-640.16 -205.2,-218.65 -703.9,-1624.31 -703.9,-1624.31 l -124.3,34.4 c 0,0 -173.3,1200.28 440.5,1883.31 6.6,7.28 11.7,15.71 12.4,25.49 0.1,0.08 0.1,0.17 0.1,0.26 8.2,101.11 37.4,553.86 101,1012.65 15.6,112.57 33.3,225.4 53.1,333.53 1.3,6.93 2.6,13.76 3.9,20.59 93.3,499.98 182.7,722.37 298.1,834.27 l 848.7,-241.6 50.2,-14.3"
         style="fill:#2b478b;fill-opacity:1;fill-rule:nonzero;stroke:none"
         id="path56" /><path
         d="m 15565.4,5969.2 h 92.7 c 31,4.9 53.9,13.9 85.7,18.1 48.4,6.3 70.6,-13.5 75,-18.1 0.6,-0.6 0.9,-0.9 0.9,-0.9 h 393.5 c 9.9,14.2 0.4,46.9 -8.9,71 -6.3,16.4 -19.9,28.8 -36.8,33.7 -41.8,12.1 -124,22.8 -199.4,91 -42.4,38.3 -204.7,140.9 -204.7,140.9 l -0.8,0.2 c -3.6,-0.1 -20.5,-5.3 -94.4,-67.6 -38.1,-32.2 -103.2,45.4 -103.2,45.4 0,0 -12.2,-10.1 -21.3,-28.9 -7.3,-14.9 -12.7,-35.3 -8.5,-60.5 5.9,-35.4 -13,-101.3 -28.1,-145.9 -9.2,-27 -17,-46.1 -17,-46.1 0,0 -4.4,-22.3 75.3,-32.3"
         style="fill:#233862;fill-opacity:1;fill-rule:nonzero;stroke:none"
         id="path58" /><path
         d="m 15747.4,11662.9 c 0,0 -142,-347.3 -305.7,-685.4 -137.7,-284.3 -290.7,-562 -387.7,-621.3 -136.8,-83.5 -513.6,-319.2 -758.1,-495.07 0,0 -190.7,1.45 -220.4,-35.07 -29.6,-36.52 -98,-200.61 -78,-217.21 20,-16.61 171.6,-8.91 208.4,28.86 32.2,32.93 103.7,56.62 121.5,62.13 1.1,0.35 2.2,0.67 3.3,1.02 0.5,0.13 0.8,0.21 0.8,0.21 v 0.01 c 297,91.38 763,281.77 904,374.92 121.5,80.1 390.7,411.8 605.4,706.9 0.1,0 0.1,0 0.1,0 155.7,214 282.7,408.7 303.9,474.4 139.1,430.1 -261.1,543.2 -397.5,405.6"
         style="fill:#ffb27d;fill-opacity:1;fill-rule:nonzero;stroke:none"
         id="path60" /><path
         d="m 16490,13025.1 c -16.8,24.5 -33.9,46.2 -50.8,65.7 21,-0.5 43.7,1.6 62.6,9.4 49.9,20.6 72.6,178.8 65.1,225.8 -7.5,46.9 -76.7,182.6 -162.1,196.1 -85.4,13.6 -173.6,-81.2 -173.6,-81.2 15.8,68.4 160.2,107.9 160.2,107.9 -297.5,-54.9 -282.3,-253.3 -280.3,-271.7 -272.3,97.1 -432.2,-415.8 -432.2,-415.8 l 705.5,-415.8 c 0,0 1.8,113.3 69.1,106 105,-11.4 192.4,246.4 36.5,473.6"
         style="fill:#2c3a64;fill-opacity:1;fill-rule:nonzero;stroke:none"
         id="path62" /><path
         d="m 16535,11948.9 c -161.9,-76.3 -376.7,33.6 -375.6,34.8 13.9,13.8 9,55.4 -3.7,109.7 -12.7,56.7 -42.8,134.2 -98.3,226.7 -11.5,19.6 -23.1,39.3 -37,60.1 l 18.5,6.9 314.5,126 c 0,0 50.9,-91.3 104.1,-174.5 45.1,-69.4 92.5,-131.8 113.3,-129.5 1.2,1.1 209.3,-142.3 -35.8,-260.2"
         style="fill:#ffb27d;fill-opacity:1;fill-rule:nonzero;stroke:none"
         id="path64" /><path
         d="m 16353.4,12481.9 c -8.1,-112.1 -46.2,-314.5 -197.7,-388.5 -12.7,56.7 -42.8,134.2 -98.3,226.7 l 296,161.8"
         style="fill:#ed975d;fill-opacity:1;fill-rule:nonzero;stroke:none"
         id="path66" /><path
         d="m 16039,12192.4 c 0,0 409.5,161.4 305,414.8 -104.4,253.5 -121.9,445 -387.7,352.6 -265.8,-92.3 -276.5,-209.8 -262.2,-302.9 14.3,-93 235.7,-499.9 344.9,-464.5"
         style="fill:#ffb27d;fill-opacity:1;fill-rule:nonzero;stroke:none"
         id="path68" /><path
         d="m 16191.7,12665 c 189.1,26.7 244.3,103.1 244.3,103.1 0,0 -174.1,50 -276.4,220.5 0,0 -212.5,71.7 -370,-48.1 -9.6,-12.5 -16.5,-27.2 -19.9,-44.4 -36.1,11.8 -90.4,8.7 -121.7,-93.3 -47,-153.2 120.3,-320.5 120.3,-320.5 40.6,11.4 -5.2,148 -11.6,220.9 -4.7,53.6 24.3,122.3 39.9,154.8 20,-26 219.5,-276.6 463,-286.6 0,0 -128.7,44.6 -245.8,131.9 58.3,-28.6 120.2,-46.4 177.9,-38.3"
         style="fill:#2c3a64;fill-opacity:1;fill-rule:nonzero;stroke:none"
         id="path70" /><path
         d="m 17314.5,11426.8 c -3.5,12.2 -7.2,24.9 -11.1,37.9 60.8,116.2 90.7,220.9 103.3,309.6 27.8,187.3 -19.6,303 -19.6,303 0,0 -284,150.6 -409.4,169.7 -0.6,0.2 -1.1,0.4 -1.6,0.5 -1.5,0.2 -3.2,0.4 -5,0.5 -126.6,17.4 -400.7,-38.5 -400.7,-38.5 0,0 52.9,-140.8 -96.2,-234.6 -149.2,-93.8 -308.5,24.1 -308.5,24.1 -4.8,-3.3 -9.9,-6.8 -15.1,-10.6 l -0.1,0.1 c 0,0 -392.4,-259 -427.6,-318.1 -35.3,-59.2 -186.2,-352.2 -186.2,-352.2 0,0 47.9,-245.9 578,-266.5 43.6,-105.7 77,-208.8 87.8,-294.8 42.1,-333.9 -6.8,-597.2 42.3,-792.11 49.1,-194.89 933.6,-83.75 1093.8,-46.26 160.2,37.5 124.1,208.57 136.5,374.67 15.5,208.8 -108.4,949.4 -160.6,1133.6"
         style="fill:#699dee;fill-opacity:1;fill-rule:nonzero;stroke:none"
         id="path72" /><path
         d="m 17406.7,11774.3 c -12.7,-89 -42.7,-194.2 -104,-311 -13.9,61.3 -70.5,285.6 -161.9,387.3 0,0 153.8,-13.8 265.9,-76.3"
         style="fill:#4a82d3;fill-opacity:1;fill-rule:nonzero;stroke:none"
         id="path74" /><path
         d="m 13805.2,9586.21 c 0,0 164.8,199.7 200.3,223.3 35.5,23.61 191.1,64.99 200,56.66 8.9,-8.34 9.3,-20.4 -10,-37.43 -19.2,-17.03 -92.9,-59.99 -82.4,-64.83 10.6,-4.85 232.6,105.72 264.7,68.53 32,-37.18 -18.2,-190.68 -103.8,-264.27 -85.5,-73.58 -341,-104.97 -357,-115.24 -136.3,-87.12 -111.8,133.28 -111.8,133.28"
         style="fill:#ed975d;fill-opacity:1;fill-rule:nonzero;stroke:none"
         id="path76" /><path
         d="m 10903.9,10047.3 c 0,0 236.8,-280.84 538.2,-163.34 0,0 64.9,156.84 65.8,272.54 0.1,14.2 0.3,28 0.5,41.1 1.6,130.2 6,203.3 6,203.3 0,0 -0.1,0 -0.3,0 -13.7,5.7 -460.9,189.3 -460.5,174.1 7.7,-352.2 -149.7,-527.7 -149.7,-527.7"
         style="fill:#ffb27d;fill-opacity:1;fill-rule:nonzero;stroke:none"
         id="path78" /><path
         d="m 11098.5,10491 c 43.1,-79.9 191.1,-236.3 409.9,-293.4 1.6,130.2 6,203.3 6,203.3 0,0 -0.1,0 -0.3,0 -12.4,3.3 -428.4,113.7 -415.6,90.1"
         style="fill:#ed975d;fill-opacity:1;fill-rule:nonzero;stroke:none"
         id="path80" /><path
         d="m 11608.1,10414.4 c 0,0 -502.9,-118.2 -571.7,196.1 -68.8,314.3 -180.1,510.7 138.1,599.4 318.2,88.8 407,-17.4 455.5,-116.7 48.5,-99.4 107.1,-640 -21.9,-678.8"
         style="fill:#ffb27d;fill-opacity:1;fill-rule:nonzero;stroke:none"
         id="path82" /><path
         d="m 11053.6,10524.8 c -6.9,-4.4 -115.1,-37.6 -320,370.6 -32.2,64.1 -54.1,202.7 20.9,325.2 75,122.5 340.9,218.8 561.8,260.7 220.9,41.9 273.9,-82.4 325.9,-207.3 54.6,-131.1 212.3,-239.1 212.3,-239.1 -190.4,-106.4 -419.9,45.8 -499.4,20.8 -79.5,-25.1 -107.5,-150.3 -113.5,-190.5 -6,-40.1 -15.1,-73.5 -115.1,-37.6 -99.9,35.8 -45.2,-141.7 -29.2,-175.6 0,0 13.6,-90.4 -43.7,-127.2"
         style="fill:#a9453d;fill-opacity:1;fill-rule:nonzero;stroke:none"
         id="path84" /><path
         d="m 9758.18,2676.9 h -304.5 c -63.82,0 -134.75,64.8 -152.51,183.3 -17.76,118.7 -148.96,183.4 -177.37,280.5 -28.41,97 117.1,233.7 117.1,233.7 l 24.31,31.7 25.31,33 241.2,-57.5 c 0,0 5.95,-58.2 9.67,-132.4 2.58,-53.5 3.99,-115.4 0.98,-169.6 -7.1,-129.5 35.77,-268.8 149.23,-294 113.55,-25.2 66.58,-108.7 66.58,-108.7"
         style="fill:#2c3a64;fill-opacity:1;fill-rule:nonzero;stroke:none"
         id="path86" /><path
         d="m 11877.9,2674 h -807.1 c -7.7,1.5 -13.6,3.2 -17.1,5.1 -53.9,27.8 -37,240.2 -30.6,305.8 1.3,12.2 2.2,19.3 2.2,19.3 0,0 283.8,233.7 322.8,54.7 1.3,-5.5 2.7,-11 4.2,-16.4 v -0.1 c 49.3,-167.4 269.5,-243.5 396.8,-264.7 97.2,-16.3 122.4,-74.6 128.8,-103.7"
         style="fill:#2c3a64;fill-opacity:1;fill-rule:nonzero;stroke:none"
         id="path88" /><path
         d="m 11715.3,7341.47 c 0,0 -43.1,-537.77 -93.8,-1184.17 -68.9,-878.2 -151.7,-1956.9 -159.8,-2161.2 -14.2,-354.8 -71,-922.4 -71,-922.4 0,0 -134.8,-134.9 -404.5,-78 0,0 -240.3,810.2 -308.9,1667.5 -1.1,14.1 -2.2,28.2 -3.2,42.4 -63.9,872.7 -163.2,2710.39 -163.2,2710.39 l 1204.4,-74.52"
         style="fill:#ee9849;fill-opacity:1;fill-rule:nonzero;stroke:none"
         id="path90" /><path
         d="m 11715.3,7341.47 c 0,0 -43.1,-537.77 -93.8,-1184.17 l -944.2,-1494.1 c -1.1,14.1 -2.2,28.2 -3.2,42.4 -63.9,872.7 -163.2,2710.39 -163.2,2710.39 l 1204.4,-74.52"
         style="fill:#e58638;fill-opacity:1;fill-rule:nonzero;stroke:none"
         id="path92" /><path
         d="m 11518.4,7277.62 c 0,0 -776.9,-1947.62 -1287.8,-2862.92 C 9719.79,3499.4 9560.15,3244 9560.15,3244 c 0,0 -292.69,117 -319.3,196.9 0,0 195.36,1767 537.47,2197.7 193.31,243.4 420.38,973.8 431.08,1229.3 10.6,255.4 69.1,760.93 69.1,760.93 l 1239.9,-351.21"
         style="fill:#ee9849;fill-opacity:1;fill-rule:nonzero;stroke:none"
         id="path94" /><path
         d="m 9739.58,7601.97 c 0,0 -20.12,-243.23 -34.86,-280.58 -14.75,-37.35 -112.96,-153.13 -124.34,-151.47 -11.38,1.66 -18.17,10.78 -12.42,34.35 5.76,23.55 39.63,96.39 28.91,94.51 -10.75,-1.91 -123.16,-206.96 -167.93,-195.42 -44.79,11.55 -88.57,157.36 -61.93,260.35 26.65,102.99 207.48,264.72 214.39,281.31 58.56,140.72 158.18,-43.05 158.18,-43.05"
         style="fill:#ed975d;fill-opacity:1;fill-rule:nonzero;stroke:none"
         id="path96" /><path
         d="m 9656.21,7540.28 c 86,-27.6 99.78,-21.36 99.78,-21.36 0,0 418.51,762.03 460.91,831.78 42.4,69.76 888.7,854.53 888.7,854.53 l -217.5,810.97 c 0,0 -962.51,-1246.41 -1066.46,-1425.27 -171.76,-295.55 -272.4,-981.97 -272.4,-981.97 0,0 39.42,-46.99 106.97,-68.68"
         style="fill:#1e3d70;fill-opacity:1;fill-rule:nonzero;stroke:none"
         id="path98" /><path
         d="m 11879.3,8886.84 c -3,-166.56 -12.7,-353.77 -25.8,-543.93 -0.8,-11.28 -1.6,-22.56 -2.4,-33.83 -8.3,-117.8 -17.4,-235.88 -27.8,-351.01 -4.1,-46.18 -8.6,-91.8 -13.2,-136.62 l -0.7,-6.05 c -0.3,-16.78 -2.4,-34.97 -4.2,-51.58 -42.5,-431.26 -87,-772.02 -95.2,-777.22 -9.9,-6.6 -21,-9.9 -33.1,-8.4 -113.1,14.2 -450.6,-11.5 -726.8,48.62 -233.1,49.18 -433.9,142.39 -646.6,268.1 -28.2,16.68 -92.6,60.89 -87.3,93.92 5.1,36.31 14.6,88.78 26.7,154.73 41.9,229.4 114.2,624 138.9,1085.8 4.8,86.04 11.8,170.98 20.9,254.53 23.7,217.58 61.7,424.25 112.7,607.85 94.7,341.06 233.9,602.25 408.5,704.45 22.8,12.7 145.6,-65.4 258.3,-137.7 104.2,-66.78 213.8,-85.25 320.4,-75.92 l 93.8,-103.78 c 113.7,-132.1 234.7,-307.97 267.7,-557.95 2.5,-18.47 4.6,-38.09 6.4,-58.95 9.1,-101.82 11.4,-230.73 8.8,-375.06"
         style="fill:#2a4e96;fill-opacity:1;fill-rule:nonzero;stroke:none"
         id="path100" /><path
         d="m 11879.3,8886.84 c -3,-166.56 -12.7,-353.77 -25.8,-543.93 -0.8,-11.28 -1.6,-22.56 -2.4,-33.83 -646,404.37 -745.5,1144.32 -745.5,1144.32 317.8,-13.95 570.3,-87.01 764.9,-191.5 9.1,-101.82 11.4,-230.73 8.8,-375.06"
         style="fill:#1e3d70;fill-opacity:1;fill-rule:nonzero;stroke:none"
         id="path102" /><path
         d="m 13903.3,9566.23 c -33.3,90.09 -85.1,84.23 -85.1,84.23 0,0 -960.6,-239.37 -1046.8,-249.64 -86.1,-10.28 -1034.3,370.22 -1034.3,370.22 0,0 -373.2,167.49 -548,14.56 -151.9,-132.9 -158.8,-301.24 -123.3,-442.62 42.4,-168.48 184.9,-292.94 357.3,-314.89 386.8,-49.27 1158.6,-142.01 1320.3,-119.5 360,50.13 1175.8,521.03 1175.8,521.03 0,0 10.2,65.85 -15.9,136.61"
         style="fill:#2a4e96;fill-opacity:1;fill-rule:nonzero;stroke:none"
         id="path104" /><path
         d="m 23374.6,7805.68 c 0,0 133.4,-123.68 107.4,-211.56 -26.1,-87.88 -146.5,-146.46 -162.8,-253.88 -16.2,-107.41 -81.3,-165.99 -139.9,-165.99 -58.6,0 -279.3,0 -279.3,0 0,0 -43.2,75.58 61,98.37 104.2,22.78 143.4,148.99 136.9,266.17 -6.5,117.17 9.8,273.4 9.8,273.4 l 221.3,52.08 45.6,-58.59"
         style="fill:#2c3a64;fill-opacity:1;fill-rule:nonzero;stroke:none"
         id="path106" /><path
         d="m 21711.4,7188.88 c -13.5,-6.8 -61.1,-11.48 -126.4,-14.62 h -631.7 c 2.2,18.79 16.9,85.76 120.2,102.42 116.7,18.96 318.8,86.79 363.8,236.04 1.6,4.76 2.8,9.7 4,14.62 35.7,159.47 296.1,-48.79 296.1,-48.79 0,0 0.8,-6.37 1.9,-17.25 6.1,-58.64 21.5,-247.77 -27.9,-272.42"
         style="fill:#2c3a64;fill-opacity:1;fill-rule:nonzero;stroke:none"
         id="path108" /><path
         d="m 21104.4,11454.6 c 0,0 39.5,-493.4 86,-1086.5 63.2,-805.64 139.2,-1795.27 146.7,-1982.74 13,-325.55 65.1,-846.28 65.1,-846.28 0,0 123.6,-123.72 371.1,-71.57 0,0 220.4,743.36 283.4,1529.88 1,12.89 2,25.87 2.9,38.86 58.6,800.69 149.7,2486.65 149.7,2486.65 l -1104.9,-68.3"
         style="fill:#35488b;fill-opacity:1;fill-rule:nonzero;stroke:none"
         id="path110" /><path
         d="m 21104.4,11454.6 c 0,0 39.5,-493.4 86,-1086.5 l 866.3,-1370.71 c 1,12.89 2,25.87 2.9,38.86 58.6,800.69 149.7,2486.65 149.7,2486.65 l -1104.9,-68.3"
         style="fill:#2c3a64;fill-opacity:1;fill-rule:nonzero;stroke:none"
         id="path112" /><path
         d="m 21285,11396 c 0,0 712.8,-1786.88 1181.5,-2626.61 468.7,-839.74 615.1,-1074.09 615.1,-1074.09 0,0 268.6,107.41 293,180.65 0,0 -179.2,1621.16 -493.1,2016.34 -177.4,223.31 -385.7,893.41 -395.5,1127.81 -9.7,234.3 -63.5,698.1 -63.5,698.1 L 21285,11396"
         style="fill:#35488b;fill-opacity:1;fill-rule:nonzero;stroke:none"
         id="path114" /><path
         d="m 19086.4,12365.2 c 0,0 -193.3,44.2 -225.9,41.9 -32.5,-2.2 -146.3,-49.8 -147.8,-59 -1.6,-9.2 3.8,-16.8 23.5,-18.1 19.7,-1.3 84.4,7 80.3,-0.8 -4.1,-7.9 -190.6,-44.5 -192.6,-82.1 -2.1,-37.5 100.1,-107.3 186.4,-111.9 86.3,-4.7 256,95.6 270.6,96.9 123.4,10.7 5.5,133.1 5.5,133.1"
         style="fill:#ffb27d;fill-opacity:1;fill-rule:nonzero;stroke:none"
         id="path116" /><path
         d="m 19003.7,12316.1 c -27.8,88.3 -21.3,102.3 -21.3,102.3 0,0 783.8,423.8 855.5,466.8 71.8,43 881.7,904.9 881.7,904.9 l 829.6,-228.3 c 0,0 -1283.8,-978 -1467.8,-1083.3 -304,-174 -1008.1,-272.5 -1008.1,-272.5 0,0 -47.9,40.7 -69.6,110.1"
         style="fill:#e58638;fill-opacity:1;fill-rule:nonzero;stroke:none"
         id="path118" /><path
         d="m 20971,14209.1 c 0,0 -290.8,-511.7 -575.1,-578.5 0,0 11.8,171.8 81,289.5 -28.3,33.4 -53.2,64.1 -74.8,91.6 -71.5,91.7 -105.5,147.8 -105.5,147.8 l 96.4,259.4 65.5,176 c 31.5,-57.1 66.1,-105.8 102.3,-147.4 186.3,-214.2 410.2,-238.4 410.2,-238.4"
         style="fill:#ffb27d;fill-opacity:1;fill-rule:nonzero;stroke:none"
         id="path120" /><path
         d="m 20560.8,14447.5 c 0,0 34.7,-256.5 -158.7,-435.8 -71.5,91.7 -105.5,147.8 -105.5,147.8 l 96.4,259.4 c 103.5,31.5 167.8,28.6 167.8,28.6"
         style="fill:#ed975d;fill-opacity:1;fill-rule:nonzero;stroke:none"
         id="path122" /><path
         d="m 20219.9,14121.7 c 0,0 434.6,169.4 324.9,438.4 -109.7,269 -127.4,472 -409.5,375.2 -282.1,-96.8 -293.8,-221.3 -279,-319.9 14.7,-98.7 247.8,-530.8 363.6,-493.7"
         style="fill:#ffb27d;fill-opacity:1;fill-rule:nonzero;stroke:none"
         id="path124" /><path
         d="m 22464.7,11583.2 c -175.3,-252 -1485.9,-588.8 -1470.4,-414.3 6,66.7 14,184.4 -0.2,344 -3.3,37.4 -7.9,77 -13.9,118.9 -33.3,229.2 -112.4,524 -288.8,865.1 -13.2,25.6 -27,51.4 -41.3,77.5 -72.6,132 -134.5,271.7 -181.7,408.2 -90.8,262.4 -127.4,513.5 -81.6,677.6 0.2,0.8 0.5,1.6 0.7,2.4 274,126.6 380.2,617.9 380.2,617.9 0,0 934.6,-167.8 1458.2,-1413.6 0,0 391.3,-1064.4 238.8,-1283.7"
         style="fill:#ee9849;fill-opacity:1;fill-rule:nonzero;stroke:none"
         id="path126" /><path
         d="m 20994.1,11512.9 c -3.3,37.4 -7.9,77 -13.9,118.9 -33.3,229.2 -112.4,524 -288.8,865.1 30.3,183.6 72.1,336.3 118,405 186.4,279.4 295,323.1 295,323.1 0,0 279.5,-1179 -110.3,-1712.1"
         style="fill:#e58638;fill-opacity:1;fill-rule:nonzero;stroke:none"
         id="path128" /><path
         d="m 19520.8,11793.4 c 0,0 -258.6,-13.5 -298.7,-28 -40,-14.4 -165.9,-114.9 -164.5,-127 1.4,-12.1 10.8,-19.6 36,-14.2 25.1,5.3 103.5,38.9 101.1,27.6 -2.3,-11.3 -223.4,-124 -212.6,-171.9 10.9,-47.8 164.1,-98.9 274.2,-73.9 110,25 287.3,211.5 305.1,218.3 151.1,57.6 -40.6,169.1 -40.6,169.1"
         style="fill:#ffb27d;fill-opacity:1;fill-rule:nonzero;stroke:none"
         id="path130" /><path
         d="m 19472,11695.4 c -51.8,83.7 -14.4,121.9 -14.4,121.9 0,0 798.7,625.3 861.3,688.5 62.6,63.2 352.6,1069.2 352.6,1069.2 0,0 99.8,407.1 333.6,452 203.1,39 343.5,-61.5 435.4,-179.3 109.4,-140.4 120.2,-334 29.3,-487.1 -203.9,-343.7 -615.3,-1025.8 -735.4,-1142.3 -267.4,-259.4 -1162,-621.9 -1162,-621.9 0,0 -59.7,33.3 -100.4,99"
         style="fill:#ee9849;fill-opacity:1;fill-rule:nonzero;stroke:none"
         id="path132" /><path
         d="m 20607.2,15059.8 c 3,6 11.9,12.4 33.4,19 0,0 -20.2,6.8 -43.7,1.6 -12.2,29.8 -41.9,80.5 -97.5,80.9 0,0 31.9,-8.3 43.7,-40.3 -76.2,48.4 -217.5,62.4 -570.2,-55.1 -464.9,-154.8 -232.6,-424.7 -162.2,-446.3 70.5,-21.6 200.2,117.2 316.8,136.2 116.7,18.9 179.8,-143.6 224.2,-157.1 44.5,-13.4 19.2,23.5 65.8,60.6 46.6,37 73.3,-50.1 72.3,-111.3 -1,-61.2 89.8,-119.2 89.8,-119.2 0,0 0,0 53.3,97.7 53.2,97.7 38.7,452.3 -12.2,516.2 -4.4,5.6 -8.9,11.3 -13.5,17.1"
         style="fill:#2b478b;fill-opacity:1;fill-rule:nonzero;stroke:none"
         id="path134" /><path
         d="M 28242.1,1671.3 H 1995.78 c -19.02,0 -34.58,15.5 -34.58,34.6 v 24.7 c 0,19 15.56,34.6 34.58,34.6 H 28242.1 c 19,0 34.6,-15.6 34.6,-34.6 v -24.7 c 0,-19.1 -15.6,-34.6 -34.6,-34.6"
         style="fill:#2e3552;fill-opacity:1;fill-rule:nonzero;stroke:none"
         id="path136" /><path
         d="m 13259.6,2687.2 v -526.1 l -1245.2,526.1 z"
         style="fill:#4271bc;fill-opacity:1;fill-rule:nonzero;stroke:none"
         id="path138" /><path
         d="M 19798.3,7174.28 V 1765.2 h 4118.2 v 5409.08 h -4118.2"
         style="fill:#4a75cb;fill-opacity:1;fill-rule:nonzero;stroke:none"
         id="path140" /><path
         d="M 18528.4,7174.25 V 1765.2 h 4118.3 v 5409.05 h -4118.3"
         style="fill:#699dee;fill-opacity:1;fill-rule:nonzero;stroke:none"
         id="path142" /><path
         d="M 23916.5,7174.25 V 6365.4 l -1269.8,808.85 z"
         style="fill:#4271bc;fill-opacity:1;fill-rule:nonzero;stroke:none"
         id="path144" /></g></g></svg>
