<?xml version="1.0" encoding="UTF-8" standalone="no"?>
<!-- Created with Inkscape (http://www.inkscape.org/) -->

<svg
   version="1.1"
   id="svg2"
   xml:space="preserve"
   width="3670.6667"
   height="2666.6667"
   viewBox="0 0 3670.6667 2666.6667"
   xmlns="http://www.w3.org/2000/svg"
   xmlns:svg="http://www.w3.org/2000/svg"><defs
     id="defs6" /><g
     id="g8"
     transform="matrix(1.3333333,0,0,-1.3333333,0,2666.6667)"><g
       id="g10"
       transform="scale(0.1)"><path
         d="M 0,0 H 27530 V 20000 H 0 Z"
         style="fill:#ffffff;fill-opacity:1;fill-rule:nonzero;stroke:none"
         id="path12" /><path
         d="M 25582.3,1290.4 H 2807.63 c -68.81,37.9 -4089.68,2267.8 -1170.62,4326.2 1990.67,1403.9 558.31,2423.3 341.8,3065.9 -248.58,737.9 -763.75,4308.8 1902.2,4726.1 5184.59,811.7 879.29,4840.2 5593.81,5659.6 1064.08,184.9 2220.78,281.8 3354.48,281.8 3512.2,0 6801.8,-930.4 6419,-3055.9 -365.2,-2027.6 2349.8,-1201.6 4056.9,-1959.4 2614.5,-1160.7 -80.6,-4736.6 1616.6,-5770.6 1576.8,-960.6 2548.2,-5699 660.5,-7273.7"
         style="fill:#f5f9fe;fill-opacity:1;fill-rule:nonzero;stroke:none"
         id="path14" /><path
         d="m 23037.4,13317.2 c 0,0 -372.8,-811.6 -623.7,-1154.5 -250.9,-342.8 -489.9,-670.7 -690,-1622.3 -200.2,-951.6 -165.9,-1047.2 -220.7,-1293 -54.8,-245.8 -411.3,-1241.6 -413.4,-1424.2 -2.1,-182.6 -720.6,-1222.1 -904.7,-1708.7 -184,-486.5 -510.1,-1181.5 -491.7,-1535.3 l 81.9,20.8 c 0,0 66.7,825 634.7,1658.8 568.1,833.8 486.8,991.2 1131.9,1419.6 645,428.3 1061.6,1611.5 1061.6,1611.5 0,0 656.2,1285.2 625.7,1953.4 -30.5,668.1 143.6,1270.6 -191.6,2073.9"
         style="fill:#256653;fill-opacity:1;fill-rule:nonzero;stroke:none"
         id="path16" /><path
         d="m 22164.3,14565.6 c 0,0 -21.7,-533.2 -193.7,-849.9 -171.9,-316.8 -320.1,-509.1 -351.3,-851.8 -31.2,-342.7 -139.2,-1226.1 -618.8,-1657.5 -479.6,-431.2 -540.8,-1723.6 -905.9,-2114.5 -365,-391 -412.7,-672 -345.3,-1342.5 67.4,-670.5 296.4,-1599.7 -233.1,-2812.6 l -119.7,301.7 c 0,0 378.8,997.8 287.1,1582.1 -91.7,584.2 -410.8,1467.1 -294,1890.5 116.8,423.4 -317.6,506.1 -56,1146.5 261.5,640.4 154.1,862.9 510.2,1416.6 0,0 36.5,25.9 130.1,494.4 93.6,468.5 848.3,1327.1 1196.1,1620.1 347.7,293 848.9,762.6 994.3,1176.9"
         style="fill:#256653;fill-opacity:1;fill-rule:nonzero;stroke:none"
         id="path18" /><path
         d="m 20747.8,11925.8 c 0,0 -416.5,-713.1 -422.4,-1172 -5.9,-459 43.8,-832.3 -166.9,-1460.7 -210.7,-628.5 207.5,-1025.8 86.9,-1372.8 -120.5,-347 -129.8,-757.8 -126.2,-1069.3 3.7,-311.6 -477,-1342.6 -550.2,-1864.6 -73.1,-522.1 20.4,-523.8 20.4,-523.8 0,0 79.7,689.2 190.3,917.1 110.6,227.9 446.9,1013.7 525.5,1317.7 78.5,304 291.5,499.1 475.2,1013.9 183.7,514.9 444.9,948.5 425,1679.1 -20,730.5 274,1501.6 -457.6,2535.4"
         style="fill:#3c8f7c;fill-opacity:1;fill-rule:nonzero;stroke:none"
         id="path20" /><path
         d="m 19866.1,4941 c 0,0 194.2,904.9 1013.1,995.3 819,90.3 1300.1,-71.6 1878.6,589.5 578.6,661.2 914.6,1710.3 1099.4,1890.9 0,0 -290.7,149.6 -773.9,-302.2 -483.3,-451.8 -822.8,-794.6 -1102.6,-1057.6 -279.7,-263.1 -506.9,-91.6 -802.3,-265 -247.6,-145.3 -567.7,-565.4 -708.7,-785.4 -45.8,-71.5 -100.1,-137.1 -162.5,-194.6 -56.7,-52.4 -124.3,-116.6 -167.6,-163.8 -86.7,-94.5 -336.8,-710.4 -336.8,-710.4 l 63.3,3.3"
         style="fill:#3c8f7c;fill-opacity:1;fill-rule:nonzero;stroke:none"
         id="path22" /><path
         d="m 19577.4,5100.6 c 0,0 288.7,1106.7 95.3,1648.3 -193.3,541.5 -798.5,942.3 -774.2,1282.5 24.3,340.2 412.9,1259.7 96.1,1944.2 0,0 -120.4,-610.6 -239.1,-746.4 -118.8,-135.9 -933.7,-683.6 -789.2,-1407.1 144.4,-723.4 936.7,-892.5 1131.8,-1105.5 195.1,-212.9 458.6,-212.7 460.2,-354.3 1.7,-141.6 53.1,-656.5 -34.4,-1164.6 l 53.5,-97.1"
         style="fill:#3c8f7c;fill-opacity:1;fill-rule:nonzero;stroke:none"
         id="path24" /><path
         d="m 19893,5841.2 405.5,1168 c 0,0 238.2,939.5 376.2,1722.9 138.1,783.4 73.1,3193.7 73.1,3193.7 0,0 -416.5,-713.1 -422.4,-1172 -5.9,-459 43.8,-832.3 -166.9,-1460.7 -210.7,-628.5 207.5,-1025.8 86.9,-1372.8 -120.5,-347 -129.8,-757.8 -126.2,-1069.3 3.7,-311.6 -477,-1342.6 -550.2,-1864.6 -40,-286 -30.1,-415.7 -12.9,-474.6 -65,456.6 336.9,1329.4 336.9,1329.4"
         style="fill:#327f6b;fill-opacity:1;fill-rule:nonzero;stroke:none"
         id="path26" /><path
         d="m 21890.2,6537 c -361.7,-72.2 -685.1,-47.6 -1114.5,-367.2 -429.4,-319.6 -681.9,-660.9 -681.9,-660.9 0,0 -193,-344.9 -272.8,-526.8 -11.5,-27.8 -18.2,-44.4 -18.2,-44.4 l 63.3,3.3 c 0,0 194.2,904.9 1013.1,995.3 819,90.3 1300.1,-71.6 1878.6,589.5 578.6,661.2 914.6,1710.3 1099.4,1890.9 0,0 -615.3,-478.7 -995.6,-902.4 -380.2,-423.6 -609.6,-905 -971.4,-977.3"
         style="fill:#327f6b;fill-opacity:1;fill-rule:nonzero;stroke:none"
         id="path28" /><path
         d="m 18755.5,9229.2 c -118.8,-135.9 -933.7,-683.6 -789.2,-1407.1 144.4,-723.4 936.7,-892.5 1131.8,-1105.5 195.1,-212.9 458.6,-212.7 460.2,-354.3 1.7,-141.6 53.1,-656.5 -34.4,-1164.6 l 23.4,-42.4 c 42.7,198.3 102,500.3 121.4,729.6 31.5,372.3 -28.8,526.5 -148.5,828.1 -119.7,301.7 -863.4,916.1 -1049.8,1239.1 -186.3,323.1 359.4,863 480.5,1123.7 121.1,260.7 43.7,899.8 43.7,899.8 0,0 -120.4,-610.6 -239.1,-746.4"
         style="fill:#327f6b;fill-opacity:1;fill-rule:nonzero;stroke:none"
         id="path30" /><path
         d="m 20688.8,5635.3 127.3,307.7 c 98.8,226.3 351.5,334.3 564.5,241.3 536.9,-234.3 770.2,-886.5 521.3,-1456.8 l -182,-416.9 c -79.7,-182.6 -52,-383.6 55.6,-525.2 97.6,-128.7 113.5,-307.6 45.8,-462.7 l -95.9,-219.8 c -103.9,-237.9 -306,-414.2 -545.7,-486.9 -140.2,-42.5 -264,-147.7 -329.5,-297.7 l -135.8,-311.2 c -150.2,-344 -534.5,-508.3 -858.4,-367 l -184.8,80.7 c -323.9,141.4 -464.7,534.9 -314.5,879 242.9,411.4 223.5,718.4 137.4,926.7 -126.5,306.2 -125,658.5 11.9,972.1 l 19.2,44 c 144.4,331 423.5,578.1 755.7,683.9 146.7,46.7 299.6,160.8 407.9,408.8"
         style="fill:#50bfa5;fill-opacity:1;fill-rule:nonzero;stroke:none"
         id="path32" /><path
         d="m 18396.6,1290.4 c 260.5,337.8 1689,2147.2 2620.4,2448.8 1028.2,332.8 59.1,-989.2 59.1,-989.2 0,0 1823.9,1994.4 2493.3,1814.6 613.5,-164.8 0,-1401 0,-1401 0,0 691,684.6 1529,684.6 815.5,0 -569.8,-2427.8 -644.6,-2557.8 h -6057.2"
         style="fill:#96d9c9;fill-opacity:1;fill-rule:nonzero;stroke:none"
         id="path34" /><path
         d="M 23893.2,5204.8 C 23148,4040.9 22604.1,2748 22293.2,1374.5 l -51.1,13.7 c 309.6,1344.8 849.9,2635.4 1593.8,3798 172.9,270.1 359.6,590.7 683.4,696.1 6.2,2 8.6,-7.5 2.6,-9.7 -295.7,-111.4 -466.9,-415.2 -628.7,-667.8"
         style="fill:#3c8f7c;fill-opacity:1;fill-rule:nonzero;stroke:none"
         id="path36" /><path
         d="m 22472.8,1326.3 c 832.8,1132.4 1845.1,2179.1 3048.9,3089.3 12.1,9.1 28.3,-11.9 16.2,-21.2 -1141.7,-877.6 -2151.8,-1913.9 -3001.8,-3085 l -63.3,16.9"
         style="fill:#3c8f7c;fill-opacity:1;fill-rule:nonzero;stroke:none"
         id="path38" /><path
         d="m 23961.3,5926.5 c 19.2,-28.2 92.6,-101.8 114.2,-198.4 29,-91.7 6.1,-206.5 3.6,-202.5 -5.5,-2.3 85,74.2 113.3,195.9 36.6,116.8 11,278.7 -34.6,332.3 -78.6,121.3 -216,133.6 -242.7,74.8 -28.3,-58.4 7.6,-137.9 46.2,-202.1"
         style="fill:#3c8f7c;fill-opacity:1;fill-rule:nonzero;stroke:none"
         id="path40" /><path
         d="m 24139.6,4887.7 c -27.8,19.7 -100,94.6 -196.2,118.1 -91.1,30.7 -206.3,10.1 -202.4,7.6 -2.3,-5.5 75.9,83.5 198.2,109.3 117.4,34.3 278.8,5.5 331.5,-41.1 119.7,-81 129.3,-218.6 70,-244.1 -59,-27.1 -137.7,10.3 -201.1,50.2"
         style="fill:#3c8f7c;fill-opacity:1;fill-rule:nonzero;stroke:none"
         id="path42" /><path
         d="m 23870.5,4432.4 c -27.8,19.7 -99.9,94.6 -196.1,118 -91.1,30.8 -206.4,10.2 -202.4,7.7 -2.4,-5.5 75.9,83.5 198.1,109.3 117.5,34.3 278.9,5.5 331.6,-41.1 119.7,-81 129.3,-218.6 70,-244.1 -59,-27.2 -137.8,10.3 -201.2,50.2"
         style="fill:#3c8f7c;fill-opacity:1;fill-rule:nonzero;stroke:none"
         id="path44" /><path
         d="m 24830.2,3376.2 c -27.8,19.8 -99.9,94.7 -196.2,118.1 -91.1,30.8 -206.3,10.2 -202.3,7.7 -2.4,-5.5 75.8,83.5 198.1,109.3 117.4,34.3 278.8,5.5 331.5,-41.1 119.7,-81 129.3,-218.6 70,-244.1 -59,-27.2 -137.7,10.3 -201.1,50.1"
         style="fill:#3c8f7c;fill-opacity:1;fill-rule:nonzero;stroke:none"
         id="path46" /><path
         d="m 25320.5,3808.2 c -27.8,19.7 -100,94.6 -196.2,118.1 -91.1,30.8 -206.3,10.1 -202.4,7.6 -2.4,-5.5 75.9,83.5 198.2,109.4 117.4,34.2 278.8,5.4 331.5,-41.1 119.7,-81 129.3,-218.6 70,-244.2 -59,-27.1 -137.7,10.3 -201.1,50.2"
         style="fill:#3c8f7c;fill-opacity:1;fill-rule:nonzero;stroke:none"
         id="path48" /><path
         d="m 23584.9,5411.3 c 23.4,-24.8 107.5,-85.9 144,-178 43.1,-85.9 38.6,-202.9 35.5,-199.3 -5.1,-3.2 72.2,86.7 81,211.3 17.7,121.1 -33.1,276.9 -86.5,322.7 -96.8,107.4 -234.4,97.8 -251.5,35.6 -18.7,-62.2 29.3,-135 77.5,-192.3"
         style="fill:#3c8f7c;fill-opacity:1;fill-rule:nonzero;stroke:none"
         id="path50" /><path
         d="m 23189.2,4895 c 33.3,-17.7 149.7,-49.7 208.2,-136.8 66.2,-77.4 74.6,-209.9 70.2,-207.2 -6.2,-5.7 82.9,127.8 79,270.7 8.3,142.7 -76.5,294.8 -151.2,322.9 -138.3,78.3 -315.3,8.5 -329.8,-68.4 -16.7,-77.4 54.3,-138 123.6,-181.2"
         style="fill:#3c8f7c;fill-opacity:1;fill-rule:nonzero;stroke:none"
         id="path52" /><path
         d="m 22772.9,4112.9 c 35.8,-11.8 155.8,-23.8 228.1,-99.8 78.3,-65.2 108.9,-194.4 104.1,-192.5 -5.2,-6.6 60.2,139.9 32.4,280.1 -15.9,142.1 -125,277.8 -203.4,293 -149.5,53.8 -312.2,-44.7 -313.6,-122.9 -3.5,-79.1 76.7,-127 152.4,-157.9"
         style="fill:#3c8f7c;fill-opacity:1;fill-rule:nonzero;stroke:none"
         id="path54" /><path
         d="m 24005,3568.1 c 26.1,-16.3 118.9,-48.9 161.5,-123.1 49.4,-66.7 48.7,-175 45.3,-172.5 -5.4,-4.3 74.7,99.2 79.7,215.6 14.9,115.6 -45.4,244.2 -104.6,271.4 -108.1,71.5 -256,24.8 -272.2,-36.9 -18,-62 36.3,-115.4 90.3,-154.5"
         style="fill:#3c8f7c;fill-opacity:1;fill-rule:nonzero;stroke:none"
         id="path56" /><path
         d="m 24646.5,5743.4 c -15.6,12.9 -55,60.4 -110.9,78.5 -52.6,22.2 -121.6,15 -119.4,13.3 -1.6,-3.1 48.5,46.1 122,56 71,15.2 165.2,-8.9 194.3,-38.8 67.3,-53.1 66.9,-134.9 30.7,-147.4 -36,-13.5 -81,12.1 -116.7,38.4"
         style="fill:#3c8f7c;fill-opacity:1;fill-rule:nonzero;stroke:none"
         id="path58" /><path
         d="m 24497.1,6075.8 c 0.7,-20.3 14.2,-80.4 -5.6,-135.7 -14.5,-55.2 -62.3,-105.5 -62.3,-102.8 -3.5,0.6 66.1,10.4 118.8,62.5 55.4,46.9 93.8,136.3 87.9,177.6 -1,85.7 -66,135.4 -98,114.3 -32.7,-20.3 -39.9,-71.5 -40.8,-115.9"
         style="fill:#3c8f7c;fill-opacity:1;fill-rule:nonzero;stroke:none"
         id="path60" /><path
         d="m 25673.6,4248.2 c -15.6,12.8 -55,60.3 -110.9,78.4 -52.6,22.2 -121.6,15 -119.4,13.4 -1.7,-3.2 48.5,46 122,56 71,15.1 165.2,-9 194.3,-38.8 67.3,-53.2 66.9,-135 30.7,-147.5 -36,-13.5 -81,12.1 -116.7,38.5"
         style="fill:#3c8f7c;fill-opacity:1;fill-rule:nonzero;stroke:none"
         id="path62" /><path
         d="m 25493.3,4583.4 c 2.4,-20.1 20.8,-79 5.6,-135.7 -10,-56.2 -53.5,-110.3 -53.7,-107.5 -3.5,0.3 65.1,15.7 113.4,71.9 51.2,51.4 82.2,143.5 73,184.2 -8,85.4 -76.9,129.6 -107.1,106 -30.9,-23 -33.8,-74.6 -31.2,-118.9"
         style="fill:#3c8f7c;fill-opacity:1;fill-rule:nonzero;stroke:none"
         id="path64" /><path
         d="m 25367.9,2417.2 c -760.9,-83.4 -1469.6,-419.3 -2151.9,-746.8 -460,-220.9 -436.8,-283.8 -530.5,-316.7 -15.2,-5.3 -30.4,11.2 -23,25.8 36,71.4 130.6,119.7 196.3,160.8 76.6,47.8 156.6,90.1 237.7,129.5 173.7,84.3 351.8,160.1 528.8,237 360.1,156.5 726.1,303.7 1106.5,403.3 208.6,54.6 420.8,94 635.6,113.3 4,0.4 4.5,-5.7 0.5,-6.2"
         style="fill:#3c8f7c;fill-opacity:1;fill-rule:nonzero;stroke:none"
         id="path66" /><path
         d="m 24682.1,2653.2 c 4.9,-31.3 37.5,-121.9 17.4,-211.4 -11.9,-88.3 -76.4,-175.5 -76.8,-171.2 -5.6,0.3 100.5,28.7 172.2,119.6 76.7,83.4 119.1,229.2 102.1,292.1 -18,132.7 -128.3,197.2 -173.9,158.4 -46.8,-37.8 -48,-118.5 -41,-187.5"
         style="fill:#3c8f7c;fill-opacity:1;fill-rule:nonzero;stroke:none"
         id="path68" /><path
         d="m 24011.7,2413.1 c 5,-31.2 37.5,-121.8 17.4,-211.4 -11.9,-88.3 -76.3,-175.5 -76.8,-171.1 -5.5,0.3 100.5,28.7 172.2,119.5 76.8,83.4 119.2,229.3 102.2,292.2 -18.1,132.7 -128.4,197.2 -174,158.4 -46.7,-37.8 -48,-118.6 -41,-187.6"
         style="fill:#3c8f7c;fill-opacity:1;fill-rule:nonzero;stroke:none"
         id="path70" /><path
         d="m 23330.6,2109.5 c 4.9,-31.2 37.4,-121.8 17.4,-211.4 -11.9,-88.3 -76.4,-175.5 -76.8,-171.1 -5.6,0.2 100.5,28.7 172.2,119.5 76.7,83.4 119.1,229.3 102.1,292.2 -18,132.6 -128.4,197.2 -173.9,158.4 -46.8,-37.8 -48,-118.6 -41,-187.6"
         style="fill:#3c8f7c;fill-opacity:1;fill-rule:nonzero;stroke:none"
         id="path72" /><path
         d="m 24882.2,2026.8 c -13.8,25.8 -40.4,110.7 -105.1,165.5 -58.1,58.5 -154.3,86.7 -152.2,83.3 -3.9,-3.3 90.1,34.9 193.6,8 103.1,-18.6 215.8,-102.4 238.4,-158.3 60.7,-107.8 15.4,-216.9 -39.8,-213.8 -55.5,1.7 -101.6,60.6 -134.9,115.3"
         style="fill:#3c8f7c;fill-opacity:1;fill-rule:nonzero;stroke:none"
         id="path74" /><path
         d="m 24184.9,1780 c -13.7,25.8 -40.4,110.7 -105.1,165.5 -58.1,58.5 -154.3,86.7 -152.2,83.3 -3.9,-3.3 90.1,34.9 193.7,8 103.1,-18.6 215.7,-102.4 238.3,-158.3 60.7,-107.8 15.4,-216.9 -39.8,-213.8 -55.5,1.7 -101.5,60.6 -134.9,115.3"
         style="fill:#3c8f7c;fill-opacity:1;fill-rule:nonzero;stroke:none"
         id="path76" /><path
         d="m 25413.2,2280.9 c -12,14.4 -40,64.2 -87.9,90 -44.1,29.1 -108.2,34.1 -106.5,32.2 -2,-2.6 52,33.8 120.5,30.6 67.2,1.9 149,-35.8 170.6,-67.9 52.4,-59.7 38.4,-134.2 3.3,-139.5 -35.1,-6.3 -71.8,24.6 -100,54.6"
         style="fill:#3c8f7c;fill-opacity:1;fill-rule:nonzero;stroke:none"
         id="path78" /><path
         d="m 25332.8,2608.7 c -2.8,-18.5 -0.5,-75.6 -27.8,-122.7 -22.5,-47.8 -74.5,-85.7 -74,-83.1 -3.1,1.1 62,-1.7 118.7,36.9 58.3,33.5 108.3,108.5 109.9,147.1 13.4,78.3 -37.5,134.5 -70.2,120.6 -33.2,-13 -48.3,-58.5 -56.6,-98.8"
         style="fill:#3c8f7c;fill-opacity:1;fill-rule:nonzero;stroke:none"
         id="path80" /><path
         d="M 5734.97,7069.6 C 4840.84,7866.9 4381.09,9011.8 4152.86,9832 c -247.77,890.3 -283.86,1600.9 -284.2,1608 l -48.6,3 c 0.34,-7.2 36.59,-723 285.86,-1619.3 230.35,-828.2 694.94,-1984.9 1600.15,-2792 l 28.9,37.9"
         style="fill:#3c8f7c;fill-opacity:1;fill-rule:nonzero;stroke:none"
         id="path82" /><path
         d="m 3970.5,11646.1 c 44.07,-205 7.18,-398.7 -86.78,-538.5 -147.33,108.5 -263.19,282.2 -307.26,487.2 -44.06,205 -7.17,398.7 86.79,538.5 147.33,-108.4 263.19,-282.2 307.25,-487.2"
         style="fill:#3c8f7c;fill-opacity:1;fill-rule:nonzero;stroke:none"
         id="path84" /><path
         d="m 3696.26,11062.3 c 154.05,-143.3 244.1,-331.6 261.55,-512.9 -169.11,-7.6 -355.17,61 -509.22,204.3 -154.05,143.4 -244.1,331.6 -261.55,512.9 169.11,7.7 355.17,-61 509.22,-204.3"
         style="fill:#3c8f7c;fill-opacity:1;fill-rule:nonzero;stroke:none"
         id="path86" /><path
         d="m 3623.98,10449 c 191.44,-60.1 348.45,-193.4 441.37,-355.3 -138.94,-89.3 -325.07,-114.9 -516.51,-54.9 -191.45,60.1 -348.45,193.4 -441.37,355.4 138.94,89.2 325.06,114.9 516.51,54.8"
         style="fill:#3c8f7c;fill-opacity:1;fill-rule:nonzero;stroke:none"
         id="path88" /><path
         d="m 3918.82,9711.2 c 151.64,-47.9 272.89,-170.2 341.57,-324.7 -114.97,-96.6 -265.52,-133.2 -417.17,-85.4 -151.64,47.9 -272.89,170.2 -341.58,324.7 114.97,96.6 265.53,133.2 417.18,85.4"
         style="fill:#3c8f7c;fill-opacity:1;fill-rule:nonzero;stroke:none"
         id="path90" /><path
         d="m 4177.76,10764.2 c 119.34,120.2 277.41,171.4 430.41,154.9 8.48,-161.9 -47.36,-326 -166.71,-446.2 -119.34,-120.1 -277.41,-171.3 -430.42,-154.9 -8.47,161.9 47.37,326.1 166.72,446.2"
         style="fill:#3c8f7c;fill-opacity:1;fill-rule:nonzero;stroke:none"
         id="path92" /><path
         d="m 4316.09,10235.4 c 119.35,120.2 277.42,171.4 430.42,155 8.48,-162 -47.36,-326.1 -166.71,-446.2 -119.34,-120.2 -277.41,-171.4 -430.42,-155 -8.47,162 47.37,326.1 166.71,446.2"
         style="fill:#3c8f7c;fill-opacity:1;fill-rule:nonzero;stroke:none"
         id="path94" /><path
         d="m 5196.11,5988.4 c -825.68,120.3 -1532.29,609.5 -1979.66,998.7 -485.68,422.4 -779.32,821.6 -782.23,825.6 l -29.41,-16.9 c 2.94,-4 298.68,-406.2 787.51,-831.5 451.72,-393.1 1165.64,-887.2 2001.56,-1009.1 l 2.23,33.2"
         style="fill:#50bfa5;fill-opacity:1;fill-rule:nonzero;stroke:none"
         id="path96" /><path
         d="m 2414.33,7971.6 c 104.28,-102.2 157.14,-229 156.18,-346.3 -127.26,6.5 -261.3,63.1 -365.58,165.3 -104.27,102.3 -157.14,229 -156.18,346.4 127.27,-6.6 261.3,-63.1 365.58,-165.4"
         style="fill:#50bfa5;fill-opacity:1;fill-rule:nonzero;stroke:none"
         id="path98" /><path
         d="m 2478.91,7527 c 144.55,-24.2 269.13,-99 348.84,-197.7 -95.35,-69.4 -229.84,-100.9 -374.39,-76.7 -144.55,24.2 -269.14,99.1 -348.84,197.8 95.35,69.3 229.85,100.8 374.39,76.6"
         style="fill:#50bfa5;fill-opacity:1;fill-rule:nonzero;stroke:none"
         id="path100" /><path
         d="m 2672.24,7142.8 c 134.34,38.5 276.76,21.3 392.92,-37.2 -46.53,-105.2 -144.88,-191.5 -279.21,-230.1 -134.34,-38.5 -276.76,-21.3 -392.92,37.2 46.53,105.2 144.88,191.5 279.21,230.1"
         style="fill:#50bfa5;fill-opacity:1;fill-rule:nonzero;stroke:none"
         id="path102" /><path
         d="m 3126.75,6827 c 106.51,30.4 223.93,5.8 323.14,-57.6 -29.77,-100.3 -103.24,-179.4 -209.74,-209.7 -106.51,-30.4 -223.93,-5.8 -323.15,57.6 29.78,100.3 103.24,179.3 209.75,209.7"
         style="fill:#50bfa5;fill-opacity:1;fill-rule:nonzero;stroke:none"
         id="path104" /><path
         d="m 2873.2,7538.5 c 23.27,115.7 95.5,206.1 190.75,255.2 67.06,-90.8 97.58,-207.7 74.31,-323.3 -23.27,-115.6 -95.51,-206.1 -190.76,-255.2 -67.06,90.8 -97.58,207.7 -74.3,323.3"
         style="fill:#50bfa5;fill-opacity:1;fill-rule:nonzero;stroke:none"
         id="path106" /><path
         d="m 3156.51,7284.2 c 23.28,115.7 95.51,206.1 190.76,255.3 67.06,-90.9 97.57,-207.8 74.3,-323.4 -23.27,-115.6 -95.51,-206.1 -190.75,-255.2 -67.06,90.9 -97.58,207.7 -74.31,323.3"
         style="fill:#50bfa5;fill-opacity:1;fill-rule:nonzero;stroke:none"
         id="path108" /><path
         d="M 5693.29,3517.1 C 4740.84,3155.5 3692.4,3346.5 2980.58,3570.4 2207.83,3813.5 1653.75,4146.7 1648.23,4150 l -21.11,-40.3 c 5.54,-3.4 563.67,-339.2 1341.53,-584 718.8,-226.2 1778.04,-419 2742.29,-52.9 l -17.65,44.3"
         style="fill:#96d9c9;fill-opacity:1;fill-rule:nonzero;stroke:none"
         id="path110" /><path
         d="m 1531.02,4343.5 c 172.9,-67.2 305.8,-198.2 375.67,-350.9 -139.52,-71.3 -316.5,-82 -489.4,-14.9 -172.9,67.2 -305.8,198.2 -375.67,350.9 139.51,71.3 316.5,82 489.4,14.9"
         style="fill:#96d9c9;fill-opacity:1;fill-rule:nonzero;stroke:none"
         id="path112" /><path
         d="m 1868.47,3807.9 c 168.63,59.2 346.62,40.3 491.17,-37.7 -59.67,-149.6 -183.93,-274.7 -352.57,-334 -168.63,-59.2 -346.62,-40.2 -491.17,37.7 59.68,149.6 183.94,274.7 352.57,334"
         style="fill:#96d9c9;fill-opacity:1;fill-rule:nonzero;stroke:none"
         id="path114" /><path
         d="m 2306.65,3431.1 c 119.83,134.2 282.01,201.1 441.12,198.1 13.97,-165.5 -38.63,-339 -158.47,-473.1 -119.84,-134.2 -282.01,-201.1 -441.12,-198.1 -13.97,165.4 38.64,339 158.47,473.1"
         style="fill:#96d9c9;fill-opacity:1;fill-rule:nonzero;stroke:none"
         id="path116" /><path
         d="m 2919.73,3236.6 c 119.83,134.1 282.01,201 441.11,198 13.98,-165.4 -38.63,-338.9 -158.46,-473.1 -119.84,-134.1 -282.01,-201 -441.12,-198.1 -13.97,165.5 38.63,339 158.47,473.2"
         style="fill:#96d9c9;fill-opacity:1;fill-rule:nonzero;stroke:none"
         id="path118" /><path
         d="m 2342.89,3865.1 c -105.46,137.3 -152.46,302.8 -141.29,452.9 138.89,-16.2 280.89,-96.9 386.34,-234.2 105.45,-137.3 152.46,-302.8 141.28,-452.9 -138.88,16.2 -280.88,96.9 -386.33,234.2"
         style="fill:#96d9c9;fill-opacity:1;fill-rule:nonzero;stroke:none"
         id="path120" /><path
         d="m 2979.79,3665.8 c -107.43,135.7 -156.99,300.6 -148.26,451.2 138.84,-13.8 281.83,-92.1 389.27,-227.8 107.44,-135.7 157,-300.7 148.27,-451.3 -138.85,13.8 -281.84,92.1 -389.28,227.9"
         style="fill:#96d9c9;fill-opacity:1;fill-rule:nonzero;stroke:none"
         id="path122" /><path
         d="m 3725.45,3183.3 c 28.17,71.5 84.13,121.2 149.7,141.7 31.45,-66.1 36.93,-144.6 8.76,-216.1 -28.17,-71.5 -84.13,-121.2 -149.7,-141.7 -31.46,66.1 -36.92,144.6 -8.76,216.1"
         style="fill:#96d9c9;fill-opacity:1;fill-rule:nonzero;stroke:none"
         id="path124" /><path
         d="m 7737.5,1360.2 c 0,0 1213.51,4799.4 811.09,5281.6 C 7992.47,7308.3 7533.72,5097.4 7488.71,5285.2 7063.61,7058.6 6950.38,9327.7 5579.05,9567.8 4799.51,9704.4 5759.12,7880.5 5701.38,7387.2 5643.65,6893.9 4238.83,8531.7 3385.17,9389.7 2531.5,10247.7 2090.62,9704.5 2630,8625.6 3151.58,7582.3 4838.89,6442.2 4491.08,6306.9 4143.28,6171.6 2031.76,7519 1773.19,6943 1456.15,6236.8 4623.53,5275.8 4325.27,5117.1 4027.01,4958.5 2513.19,5481 2554.55,4941 c 41.35,-540.1 2076.35,-519.9 2041.57,-757.5 -56.31,-384.6 -1402.25,486 -1461.41,-46.2 -60.51,-544.3 1770.71,-445 1738.99,-869.6 -18.23,-244 -411.16,124.1 -469.06,-213.9 -132.01,-770.5 2282,-1709.2 2282,-1709.2 l 1050.86,15.6"
         style="fill:#3c8f7c;fill-opacity:1;fill-rule:nonzero;stroke:none"
         id="path126" /><path
         d="m 8662.79,1330.9 c 0,0 -1154.88,1770.7 -1710.62,2105 -592.15,356.2 -141.34,-710.3 -141.34,-710.3 0,0 -1210.06,1439.9 -1546.45,1147.4 -336.38,-292.6 -31.06,-631.4 -31.06,-631.4 0,0 -1086.36,321.9 -1281.62,-76.8 -300.03,-612.8 1488.51,-1120.9 1488.51,-1120.9 0,0 -767.79,8.2 -626.53,-405.5 213.03,-623.9 3849.11,-307.5 3849.11,-307.5"
         style="fill:#50bfa5;fill-opacity:1;fill-rule:nonzero;stroke:none"
         id="path128" /><path
         d="m 3951.7,3164.8 c 195.26,398.7 1281.62,76.8 1281.62,76.8 0,0 -305.32,338.8 31.06,631.4 336.39,292.5 1304.37,-583.2 1304.37,-583.2 0,0 -101.46,722.2 627.47,86 520.64,-454.4 1466.57,-2044.9 1466.57,-2044.9 L 3951.7,3164.8"
         style="fill:#96d9c9;fill-opacity:1;fill-rule:nonzero;stroke:none"
         id="path130" /><path
         d="m 7260.92,5776.8 51.83,35.4 c -940.28,1424 -1227.3,3114.7 -1302.52,4282.3 -81.61,1267 61.65,2208.8 63.11,2218.1 l -64.22,18.7 c -1.48,-9.5 -145.82,-957.5 -63.9,-2232.1 C 6020.9,8921.7 6310.6,7216 7260.92,5776.8"
         style="fill:#96d9c9;fill-opacity:1;fill-rule:nonzero;stroke:none"
         id="path132" /><path
         d="m 6258.44,12534.4 c 2.05,-286 -97.19,-522.5 -255.63,-664.4 -160.91,204.6 -263.83,480.8 -265.89,766.8 -2.04,286.1 97.2,522.6 255.63,664.5 160.92,-204.6 263.84,-480.8 265.89,-766.9"
         style="fill:#96d9c9;fill-opacity:1;fill-rule:nonzero;stroke:none"
         id="path134" /><path
         d="m 5749.13,11891.4 c 160.27,-252.9 226.06,-536.9 200.15,-780.6 -220.01,62.6 -441.47,231.9 -601.74,484.8 -160.27,252.9 -226.06,536.9 -200.15,780.7 220.01,-62.6 441.47,-231.9 601.74,-484.9"
         style="fill:#96d9c9;fill-opacity:1;fill-rule:nonzero;stroke:none"
         id="path136" /><path
         d="m 5492.22,11123.2 c 230.69,-160.4 397.43,-401.6 473.94,-652.5 -202.87,-56.6 -449.61,-10.2 -680.31,150.3 -230.69,160.4 -397.44,401.6 -473.95,652.5 202.89,56.6 449.62,10.2 680.32,-150.3"
         style="fill:#96d9c9;fill-opacity:1;fill-rule:nonzero;stroke:none"
         id="path138" /><path
         d="m 5793.08,9782 c 100.61,-60 177.04,-156.3 216.29,-259.7 -82.6,-30.8 -186.48,-19.5 -287.09,40.6 -100.61,60 -177.05,156.3 -216.29,259.7 82.6,30.8 186.48,19.5 287.09,-40.6"
         style="fill:#96d9c9;fill-opacity:1;fill-rule:nonzero;stroke:none"
         id="path140" /><path
         d="m 5874.86,9285.2 c 100.6,-60.1 177.04,-156.3 216.29,-259.8 -82.61,-30.7 -186.48,-19.4 -287.09,40.6 -100.61,60 -177.05,156.3 -216.29,259.8 82.6,30.7 186.48,19.4 287.09,-40.6"
         style="fill:#96d9c9;fill-opacity:1;fill-rule:nonzero;stroke:none"
         id="path142" /><path
         d="m 6290.08,11296.3 c 185.89,105.3 403.28,104.2 596.09,17.1 -32.32,-214.7 -148.11,-404.6 -334,-509.9 -185.89,-105.4 -403.27,-104.2 -596.09,-17.2 32.32,214.7 148.11,404.6 334,510"
         style="fill:#96d9c9;fill-opacity:1;fill-rule:nonzero;stroke:none"
         id="path144" /><path
         d="m 6327.19,10547.8 c 185.89,105.3 403.27,104.2 596.09,17.1 -32.32,-214.6 -148.11,-404.6 -334,-509.9 -185.89,-105.3 -403.27,-104.2 -596.09,-17.1 32.32,214.7 148.11,404.6 334,509.9"
         style="fill:#96d9c9;fill-opacity:1;fill-rule:nonzero;stroke:none"
         id="path146" /><path
         d="m 6290.32,9476.6 c 120.99,68.5 262.48,67.8 387.98,11.1 -21.04,-139.7 -96.4,-263.3 -217.39,-331.9 -120.99,-68.5 -262.49,-67.8 -387.98,-11.1 21.03,139.7 96.4,263.3 217.39,331.9"
         style="fill:#96d9c9;fill-opacity:1;fill-rule:nonzero;stroke:none"
         id="path148" /><path
         d="m 19558.5,5253.7 c 109.2,-17.8 102.8,-35.6 116.8,-37.5 16.6,-2.2 213.8,96.8 213.8,96.8 0,0 583.3,287.9 614.2,304.6 l 421,529.7 324.5,-149.7 c 0,0 -473.5,-563.1 -503.5,-587.9 -29.9,-24.8 -866.2,-318.1 -938.9,-346.4 0,0 -73.4,-67 -120.8,-107.5 -47.5,-40.4 -110.9,-56.5 -126,-65.7 -2.3,-1.4 -54.6,-29 -128.6,-45.1 -63.7,-13.9 -10.6,29.4 -10.6,29.4 0,0 112.8,47.6 107.2,56.2 -4.3,6.7 -64.2,-23.1 -134.5,-39.2 -18.1,-4.1 -36,-8.2 -52.4,-11.7 -43.2,-9.3 -62.1,15.4 -18.8,32.6 15.3,6 41,15.5 60.4,19.5 20.9,4.4 38.5,15.4 55.4,21.8 33.6,12.8 58.3,21.7 57,22.8 -1.8,1.5 3,9 -16.4,5.2 -23.2,-4.6 -70.2,-25.5 -105,-29.4 -19.7,-2.3 -60.6,-9.5 -60.6,-9.5 0,0 -72.4,-6.9 -72.9,3.2 -1,22.2 43.5,34.5 70.9,34 17.2,8.8 60.5,15.1 60.5,15.1 0,0 83.9,33.2 79,45.6 -1.9,4.9 -52.7,-2.7 -106.6,-6.4 -57,-3.9 -98.3,-3.9 -101.4,7.2 -4.8,17.5 40.6,24.1 40.6,24.1 0,0 40,5.8 53.1,8.8 15.3,3.5 60.4,17.7 60.4,17.7 0,0 154.4,56.7 148.8,68 -5.6,11.4 -31.1,35.3 -42,35.2 -10.9,0 -30.3,-10.9 -41.2,-11 -10.9,0 -34.3,2.1 -35.9,15.8 -1.7,13.7 58.8,42 58.8,42 0,0 42.1,16.8 73.7,11.7"
         style="fill:#f8a492;fill-opacity:1;fill-rule:nonzero;stroke:none"
         id="path150" /><path
         d="m 20631.3,5819.2 c 0,0 105.1,-95.4 148.8,-126.8 36.3,-26.1 213.3,-111.4 213.3,-111.4 0,0 176,269.6 253,404.8 93.4,164.1 158.1,408 136,414.6 -62,18.6 -147.2,29.9 -225.9,-6.2 -272.4,-125 -525.2,-575 -525.2,-575"
         style="fill:#355389;fill-opacity:1;fill-rule:nonzero;stroke:none"
         id="path152" /><path
         d="m 19660.5,5112.8 c -46.8,-7.4 -94.6,1.5 -115.3,44.3 -4.6,-50.8 72.3,-76 115.3,-44.3"
         style="fill:#fe875e;fill-opacity:1;fill-rule:nonzero;stroke:none"
         id="path154" /><path
         d="m 6606.17,7004 c 6.49,157 -16.54,312.1 -86.49,458.2 -60.18,125.8 -209.09,197.2 -344.89,197.3 -431.2,0.6 -486.04,-571.6 -760.52,-792.3 -83.87,-67.4 -177.62,-122.3 -256.98,-195.1 -293.06,-268.5 -161.06,-765.6 108.03,-1001.1 186.74,-163.3 480.22,-256.2 710.36,-128.4 120.14,66.6 211.34,177.4 276.31,298.9 92.22,172.3 151.66,371.1 217.25,554.8 69.81,195.5 128.3,399 136.93,607.7"
         style="fill:#13375b;fill-opacity:1;fill-rule:nonzero;stroke:none"
         id="path156" /><path
         d="m 6676.6,6243.7 c -134.69,408.6 -312.49,402.2 -312.49,402.2 l 143.66,-870 c 83.18,22.7 191.47,73.3 274.55,96.8 -27.54,129.2 -72.54,270.4 -105.72,371"
         style="fill:#f7cc7f;fill-opacity:1;fill-rule:nonzero;stroke:none"
         id="path158" /><path
         d="m 7357.29,4850.2 -492.41,375.6 c 0,0 -49.53,350.5 -115.86,661.4 -83.08,-23.4 -158.07,-88.6 -241.25,-111.3 l 125.21,-696.4 645.38,-333 182.29,-234.2 41.46,240.5 -144.82,97.4"
         style="fill:#f48c7f;fill-opacity:1;fill-rule:nonzero;stroke:none"
         id="path160" /><path
         d="m 11845.8,5436.9 c 152.9,0 296.3,-40.3 420.4,-110.8 15.7,-8.9 32.7,-17 50.8,-24.5 378.4,-155.4 792.4,132.4 792.4,541.5 v 2011.7 h -2011.7 c -409.1,0 -696.9,414.1 -541.5,792.4 7.5,18.2 15.6,35.2 24.5,50.9 70.5,124 110.8,267.5 110.8,420.4 0,484.5 -404,874.7 -893.52,852 -442.97,-20.5 -799.7,-384.4 -812.07,-827.7 -4.4,-157.6 34.05,-305.9 104.52,-434.2 8.77,-15.9 16.83,-33.2 24.21,-51.6 154.15,-384.6 -138.26,-802.2 -552.57,-802.2 H 6567.65 V 3270.9 c 0,-1081.3 876.57,-1957.8 1957.87,-1957.8 h 4583.88 v 2005 c 0,411.1 -415.3,700.7 -796.1,545.8 -18.2,-7.4 -35.3,-15.5 -51,-24.3 -135.7,-76.2 -294.2,-116.3 -462.8,-107.4 -434.4,23 -785.2,376 -805.7,810.4 -23.1,489.9 367.2,894.3 852,894.3"
         style="fill:#f47458;fill-opacity:1;fill-rule:nonzero;stroke:none"
         id="path162" /><path
         d="m 16205.9,6552.8 c 7.1,152.8 54.1,294.2 130.3,414.8 9.6,15.3 18.5,31.9 26.8,49.6 172.9,370.7 -95.2,797.7 -503.8,816.8 l -2009.6,94 -93.9,-2009.6 c -19.1,-408.6 -446.2,-676.7 -816.9,-503.8 -17.7,8.3 -34.3,17.2 -49.6,26.8 -120.6,76.2 -262,123.2 -414.8,130.3 -484,22.6 -892.6,-362.7 -892.8,-852.7 -0.2,-443.5 346.6,-816.8 788.9,-849.9 157.2,-11.7 307.2,19.8 438.5,84.2 16.4,8 34.1,15.2 52.8,21.7 391.4,136.1 794.8,-175.5 775.5,-589.4 l -93.2,-1992.2 4578.9,-214.1 c 1080.1,-50.5 1996.7,784.2 2047.2,1864.3 l 214,4578.9 -2002.8,93.6 c -410.6,19.2 -719.3,-382.1 -582.4,-769.7 6.6,-18.6 13.9,-36 21.9,-52.1 69.8,-139.1 102.4,-299.3 85.7,-467.3 -43.3,-432.8 -412.2,-766.8 -847.2,-767 -490.4,-0.2 -876.2,408.6 -853.5,892.8"
         style="fill:#f7cc7f;fill-opacity:1;fill-rule:nonzero;stroke:none"
         id="path164" /><path
         d="m 10606.4,9716.9 c 7.7,-152.7 -25.3,-298 -89.5,-425.4 -8.1,-16.1 -15.4,-33.5 -21.9,-52 -136.2,-385.7 172,-784.8 580.5,-764.2 l 2009.2,101 -101,2009.2 c -20.5,408.5 378.5,716.8 764.2,580.6 18.5,-6.5 35.9,-13.8 52,-21.9 127.4,-64.2 272.7,-97.2 425.5,-89.6 483.9,24.4 853.3,447.5 806,935.2 -42.7,441.4 -424,779.4 -867.4,769.5 -157.7,-3.5 -303.8,-49.4 -428.4,-126.2 -15.5,-9.6 -32.3,-18.5 -50.4,-26.8 -376.3,-173.2 -808,97.8 -828.8,511.6 l -100.2,1991.9 -4578.1,-230.2 c -1079.94,-54.3 -1911.38,-973.8 -1857.08,-2053.7 l 230.21,-4578.1 2002.51,100.7 c 410.55,20.6 678.92,450 505.1,822.5 -8.3,17.8 -17.24,34.4 -26.86,49.7 -82.85,131.7 -130.88,288 -130.44,456.8 1.13,435 336.04,803.1 768.91,845.4 488.05,47.7 911.65,-321.8 935.95,-806"
         style="fill:#50bfa5;fill-opacity:1;fill-rule:nonzero;stroke:none"
         id="path166" /><path
         d="m 14718.8,10825.8 c -153,0 -296.4,40.3 -420.5,110.8 -15.6,8.9 -32.6,17 -50.8,24.5 -378.3,155.4 -792.4,-132.4 -792.4,-541.5 V 8407.9 h 2011.8 c 409,0 696.8,-414.1 541.4,-792.5 -7.4,-18.1 -15.6,-35.1 -24.5,-50.8 -70.5,-124 -110.8,-267.5 -110.8,-420.4 0,-484.5 404,-874.7 893.6,-852 442.9,20.5 799.7,384.4 812,827.7 4.4,157.6 -34,305.9 -104.5,434.2 -8.8,15.9 -16.8,33.2 -24.2,51.6 -154.2,384.6 138.2,802.2 552.6,802.2 h 1994.4 v 4583.9 c 0,1081.3 -876.6,1957.8 -1957.9,1957.8 h -4583.9 v -2005 c 0,-411.1 415.4,-700.7 796.1,-545.8 18.2,7.4 35.3,15.5 51.1,24.4 135.6,76.1 294.2,116.2 462.8,107.3 434.3,-23 785.1,-375.9 805.6,-810.4 23.2,-489.9 -367.2,-894.3 -851.9,-894.3"
         style="fill:#184655;fill-opacity:1;fill-rule:nonzero;stroke:none"
         id="path168" /><path
         d="m 5258.25,1949.1 c 0,0 -30.37,-211.2 -82.64,-279.3 -17.55,-22.9 -49.59,-51.8 -70.62,-93.2 -32.74,-64.3 -14.64,-160.1 9.51,-212.9 12.39,-27.1 -0.87,-27 27.36,-35.8 83.59,-25.8 172.52,17.7 208.12,98 19.88,44.8 37.32,104.6 40.83,179.9 8.93,191.8 68.43,289.3 68.43,289.3 l -200.99,54"
         style="fill:#f7a491;fill-opacity:1;fill-rule:nonzero;stroke:none"
         id="path170" /><path
         d="m 6172.61,1852.5 c 0,0 18.75,-238.1 3.53,-315.5 -8.15,-41.5 -53.55,-126.8 -32.73,-165.8 20.83,-39 44.63,-48.7 44.63,-48.7 l 539.74,-8.8 c 29.4,-0.4 9.97,18.5 -13.74,36 -38.8,28.6 -70.11,47.5 -194.05,107.6 -8.09,3.9 -37.52,22.7 -48.13,29.2 -26.91,16.4 -53.94,42.4 -77.21,68.3 -38.75,43.3 -42.14,253 -42.14,253 l -179.9,44.7"
         style="fill:#f7a491;fill-opacity:1;fill-rule:nonzero;stroke:none"
         id="path172" /><path
         d="m 6594.46,5018.1 c 0,0 67.97,-386.6 23.34,-640.1 -44.62,-253.5 -258.82,-2603.3 -258.82,-2603.3 l -238.03,-13.4 c 0,0 -49.89,981.5 -40.96,1118 8.92,136.5 79.56,364.9 79.56,364.9 l -23.7,792.5 300.38,1041.1 158.23,-59.7"
         style="fill:#355389;fill-opacity:1;fill-rule:nonzero;stroke:none"
         id="path174" /><path
         d="m 5894.88,5099.5 c 0,0 -187.42,-282.8 -232.05,-516.8 -44.62,-234 32.76,-953.1 -53.08,-1259.8 -46.48,-165.9 -222.6,-422.3 -249.37,-636.8 -26.78,-214.5 -131.82,-776.3 -131.82,-776.3 l 237.92,-47.3 552.94,1403.2 433.72,1268.3 111.11,653.2 -669.37,-87.7"
         style="fill:#466eb6;fill-opacity:1;fill-rule:nonzero;stroke:none"
         id="path176" /><path
         d="m 6046.61,6708.2 c 0,0 -248.16,15.8 -346.33,-91.4 -98.18,-107.3 217.78,-955.7 235.63,-1092.2 17.84,-136.5 -91,-499.4 -91,-499.4 0,0 582.94,-117.6 749.55,-7.1 0,0 17.85,981.6 0,1079.1 -17.85,97.5 -166.61,494 -202.31,533 -35.7,39 -345.54,78 -345.54,78"
         style="fill:#f7cc7f;fill-opacity:1;fill-rule:nonzero;stroke:none"
         id="path178" /><path
         d="m 6129.22,7040.5 c 0,0 -1.29,-7.3 -3.59,-19.7 -11.07,-59.8 -53.67,-258.2 -82.46,-312.7 -34.78,-66 119.09,-276.1 267.18,-250.5 44.09,7.7 -37.26,193.1 -33.35,212.8 7.48,37.6 17.63,88.9 28.01,141.5 5.86,29.7 11.8,59.8 17.37,88.1 15.84,80.4 28.76,146.1 28.76,146.1 l -221.92,-5.6"
         style="fill:#f7a491;fill-opacity:1;fill-rule:nonzero;stroke:none"
         id="path180" /><path
         d="m 6125.63,7020.8 c 2.3,12.4 3.59,19.7 3.59,19.7 l 221.92,5.6 c 0,0 -12.92,-65.7 -28.76,-146.1 -5.54,-28.1 -11.44,-58.1 -17.27,-87.6 -34.26,5.1 -70.06,21.8 -105.95,53.3 -39.14,34.3 -64.78,75.5 -80.26,119.6 2.73,14.1 5.01,26.2 6.73,35.5"
         style="fill:#f47458;fill-opacity:1;fill-rule:nonzero;stroke:none"
         id="path182" /><path
         d="m 6278.58,7546.1 c 0,0 -104.6,12.1 -170.17,-72.9 -65.56,-85 -136.23,-347.8 26.64,-490.7 162.88,-142.9 323.81,18.9 347.67,190.4 23.87,171.5 33.14,379.4 -204.14,373.2"
         style="fill:#f7a491;fill-opacity:1;fill-rule:nonzero;stroke:none"
         id="path184" /><path
         d="m 6530.91,7175.4 c -19.44,-37.9 -52.07,-58.9 -72.89,-46.9 -20.81,12 -21.93,52.5 -2.48,90.4 19.44,37.8 52.07,58.8 72.88,46.8 20.81,-12 21.93,-52.4 2.49,-90.3"
         style="fill:#f7a491;fill-opacity:1;fill-rule:nonzero;stroke:none"
         id="path186" /><path
         d="m 6290.28,7574.2 c 0,0 -139.74,-249.9 -239.71,-261.5 -99.97,-11.5 -113.09,-144.3 -113.09,-144.3 0,0 35.73,306 134.7,365 98.97,59 218.1,40.8 218.1,40.8"
         style="fill:#13375b;fill-opacity:1;fill-rule:nonzero;stroke:none"
         id="path188" /><path
         d="m 5366.19,1468.1 c -129.67,-23.7 -215.95,52.3 -260.84,109.2 -32.96,-64.4 -49.04,-160.6 -24.79,-213.6 21.34,-46.7 83.74,-45.3 132.87,-47.2 51.95,-1.9 92.14,27 117.91,72.4 12.03,21.1 24.45,47.5 34.85,79.2"
         style="fill:#f47458;fill-opacity:1;fill-rule:nonzero;stroke:none"
         id="path190" /><path
         d="m 6471.78,1486.5 c -142.74,-36.7 -248.25,-11.7 -307.28,12.1 -15.22,-43.2 -35.4,-97.5 -24.7,-128.7 13.1,-38.3 31.76,-47 48.24,-47.4 130.38,-3.5 477.59,-8.1 577.01,-9.4 13.89,-0.2 21.54,16 12.62,26.7 -24.66,29.5 -295.25,140.2 -305.89,146.7"
         style="fill:#f47458;fill-opacity:1;fill-rule:nonzero;stroke:none"
         id="path192" /><path
         d="m 6076.79,7249.9 c 8.12,-44.4 -8.23,-85.1 -36.53,-90.9 -28.3,-5.8 -57.83,25.4 -65.96,69.8 -8.13,44.4 8.22,85.1 36.52,90.9 28.3,5.9 57.83,-25.4 65.97,-69.8"
         style="fill:#f7a491;fill-opacity:1;fill-rule:nonzero;stroke:none"
         id="path194" /><path
         d="m 6240.04,7096.2 126.17,-5.7 c 0,0 -5.08,-47.8 -60.63,-46.9 -67.75,1.1 -65.54,52.6 -65.54,52.6"
         style="fill:#ffffff;fill-opacity:1;fill-rule:nonzero;stroke:none"
         id="path196" /><path
         d="m 16999.6,17157.4 c 15.8,-0.6 58.8,-15 121.8,-134 80.4,-152 197.9,-611 197.9,-611 l -350.8,-130.6 -45.1,95.8 -74.2,737.6 c 0,0 146.1,42.4 150.4,42.2"
         style="fill:#dd513a;fill-opacity:1;fill-rule:nonzero;stroke:none"
         id="path198" /><path
         d="m 16535.9,17223.6 c 100.4,-0.1 348.5,-29.4 463.7,-66.2 0,0 84.7,-727.3 -76.2,-1280 -35.9,-123.7 29.8,-512.8 29.8,-512.8 l -1039.4,13.7 c 0,0 123.2,940.7 76.8,1092.7 -46.4,151.9 -47.5,681.5 -47.5,681.5 0,0 7.1,1.1 233.5,40.3 105.6,18.2 252.3,31 359.3,30.8"
         style="fill:#f47458;fill-opacity:1;fill-rule:nonzero;stroke:none"
         id="path200" /><path
         d="m 16414.8,14014.6 c 0,0 23,-265.4 65.3,-338.9 42.3,-73.5 -2.2,-198.4 -4.4,-215.6 -2.3,-17.1 -89,-41.6 -227,-26.9 -138,14.7 -135.8,46.5 -124.6,98 11.1,51.4 84.5,117.6 89,166.6 4.4,49 -42.3,225.3 -42.3,225.3 l 244,91.5"
         style="fill:#f7a491;fill-opacity:1;fill-rule:nonzero;stroke:none"
         id="path202" /><path
         d="m 16835.9,15583.6 c 0,0 717.5,39.8 877.8,-57.2 160.2,-97 -113.9,-573.2 -113.9,-573.2 0,0 -499.2,23 -1477.1,-33.5 -231.6,-13.3 -251.6,603.8 -208.3,654.9 43.3,51.1 921.5,9 921.5,9"
         style="fill:#e0973f;fill-opacity:1;fill-rule:nonzero;stroke:none"
         id="path204" /><path
         d="m 16231.5,13412.6 c -142.1,15.1 -124.5,84.9 -113.1,137.9 7.2,33.2 48,72.3 72.3,109.2 12.7,-10.1 33.3,-27.9 95,-46.2 64.1,-18.9 151.9,18.6 207.9,42 19.9,-74.2 20.8,-168.9 18.9,-183.2 -2.2,-17.7 -139,-74.9 -281,-59.7"
         style="fill:#dd513a;fill-opacity:1;fill-rule:nonzero;stroke:none"
         id="path206" /><path
         d="m 16309.9,15070.3 c 28.7,-216.9 170.6,-1296.8 170.6,-1296.8 l -329.3,-40.8 c 0,0 -405,1409.5 -384.2,1625.1 20.7,215.5 172.3,233.7 172.3,233.7 0,0 294.7,53 370.6,-521.2"
         style="fill:#f7cc7f;fill-opacity:1;fill-rule:nonzero;stroke:none"
         id="path208" /><path
         d="m 15931.8,17071.7 c 97.1,36.4 144.7,-839.2 157.8,-1199.6 172.1,-16.6 472.1,-0.1 546.7,5.5 35.2,2.6 116.2,32.3 151.1,36.8 35.8,4.7 68.3,7.2 85.9,4.1 6.4,-1.1 185.8,-74.5 201.1,-90.6 19.1,-19.9 70.5,-70.2 61.8,-92 -8.6,-21.7 -98.9,60.6 -98.9,60.6 l -44.1,24.8 c 54.9,-53.6 159.6,-124.3 144.6,-150 -14.8,-25.1 -109.2,46.6 -176.6,95.4 57.8,-52.1 129.5,-145.5 113,-160 -14.9,-13.1 -96.5,95 -183.7,126.1 -32.3,11.5 -64.6,-20.4 -90,-24.3 -18.7,-2.8 -47.5,-8.8 -65.9,-3.6 l -94.4,26.7 c -32.2,-2.9 -33,-21.9 -65.5,-28.8 -37.7,-8 -99.6,-16.5 -147.6,-28.2 -276.7,-67.6 -368.9,-99 -453.6,-99 -256.5,0.2 -271.4,1409.9 -41.7,1496.1"
         style="fill:#f7a491;fill-opacity:1;fill-rule:nonzero;stroke:none"
         id="path210" /><path
         d="m 15747.3,16249.6 c -18.2,369.2 -15.5,824.2 191.5,901.8 81.6,30.7 225.6,-153.5 199.7,-909.3 -110.5,-9.1 -272.7,-16.5 -391.2,7.5"
         style="fill:#dd513a;fill-opacity:1;fill-rule:nonzero;stroke:none"
         id="path212" /><path
         d="m 17377.9,13787.6 c 0,0 -28.8,-92.2 22.7,-153.1 51.4,-60.9 265.2,-120.7 293.3,-153.7 28.1,-33 25.9,-61.1 25.9,-61.1 l -600.1,16.5 6.6,181.3 27.6,130.2 224,39.9"
         style="fill:#f7a491;fill-opacity:1;fill-rule:nonzero;stroke:none"
         id="path214" /><path
         d="m 17437.9,13604.2 c 0,0 -154.2,-62.4 -228.7,-25.5 -74.5,36.9 -72.2,47.2 -93.8,33.4 -21.5,-13.8 -29.2,-183.7 -29.2,-183.7 l 674.7,-19.8 c 47,1.1 70.7,35.7 32.6,65.3 -26.2,20.3 -56.4,33.9 -73.6,43.7 -52.8,30.3 -282,86.6 -282,86.6"
         style="fill:#dd513a;fill-opacity:1;fill-rule:nonzero;stroke:none"
         id="path216" /><path
         d="m 17355.1,15413.5 c 46.4,97.7 151.9,224.7 337.5,148.2 177,-73 224.5,-252.4 168.7,-436.1 -55.9,-183.7 -423.6,-1263.7 -436.4,-1412.2 l -293.6,-2 c 0,0 53.4,855.2 66.5,1061.9 12.6,198.9 77,471.3 157.3,640.2"
         style="fill:#f7cc7f;fill-opacity:1;fill-rule:nonzero;stroke:none"
         id="path218" /><path
         d="m 17831.7,16408.2 h -981.4 c -25.9,0 -49.3,-15.7 -59.2,-39.8 l -302.1,-739.5 h -541.1 c -15.1,0 -27.3,-12.3 -27.3,-27.5 0,-15.1 12.2,-27.4 27.3,-27.4 h 1539.9 c 42.3,0 80.7,24.9 98,63.7 l 304.3,680 c 19,42.5 -12,90.5 -58.4,90.5"
         style="fill:#000000;fill-opacity:1;fill-rule:nonzero;stroke:none"
         id="path220" /><path
         d="m 17303.3,15977.6 c -6.6,-33.2 -35.5,-55.4 -64.5,-49.6 -28.9,5.8 -47.1,37.5 -40.5,70.7 6.7,33.2 35.6,55.4 64.6,49.6 28.9,-5.8 47.1,-37.5 40.4,-70.7"
         style="fill:#ffffff;fill-opacity:1;fill-rule:nonzero;stroke:none"
         id="path222" /><path
         d="m 16769.2,18111.9 c -29.6,10 -58.7,21.3 -86.8,34.8 -31.8,15.3 -73,33.3 -99,37.3 -54.8,8.5 -148.9,2.8 -200.9,-53.5 -64.7,-70.3 -179.7,-12.7 -156.5,-380.5 26.2,-416.3 257.7,-370.6 263.3,-363.5 5.6,7 206.4,266.3 206.4,266.3 0,0 70.2,-153.6 70.2,-148 0,5.5 358.5,487.5 3.3,607.1"
         style="fill:#0e2e35;fill-opacity:1;fill-rule:nonzero;stroke:none"
         id="path224" /><path
         d="m 16593.4,17355.7 20,-148.7 c 0,0 44.8,-214.3 -12.8,-255.6 -57.6,-41.3 -244.9,261.7 -244.9,261.7 l 19.8,376.9 217.9,-234.3"
         style="fill:#f7a491;fill-opacity:1;fill-rule:nonzero;stroke:none"
         id="path226" /><path
         d="m 16369.1,17467.9 c 47.6,-128.6 160.9,-207.6 241.3,-238.3 l -17,126.1 -217.9,234.3 -6.4,-122.1"
         style="fill:#f47458;fill-opacity:1;fill-rule:nonzero;stroke:none"
         id="path228" /><path
         d="m 16581.6,18000.2 c 122,19.6 231.5,-78.5 228.4,-200.6 -1.3,-53.1 -5.6,-119.4 -16.7,-190.8 -26.5,-171.7 -143.7,-322.9 -221.1,-309.4 -77.5,13.5 -272.4,161.6 -238.1,405.9 21.2,150.9 119.5,274.2 247.5,294.9"
         style="fill:#f7a491;fill-opacity:1;fill-rule:nonzero;stroke:none"
         id="path230" /><path
         d="m 16387.9,17676.2 c -6.5,-37.8 -36.8,-64 -67.6,-58.7 -30.7,5.4 -50.4,40.4 -43.8,78.1 6.5,37.8 36.7,64 67.5,58.7 30.8,-5.4 50.4,-40.4 43.9,-78.1"
         style="fill:#f7a491;fill-opacity:1;fill-rule:nonzero;stroke:none"
         id="path232" /><path
         d="m 16344,17754.3 c 0,0 93.7,-23.3 128.4,36.9 34.8,60.3 159.1,190.2 317,136.4 158,-53.9 -139,131 -151.6,131 -12.7,0 -164.3,1.1 -164.3,1.1 0,0 -116.9,-96.2 -121.1,-106.8 -4.3,-10.5 -38,-125.7 -38,-125.7 l 29.6,-72.9"
         style="fill:#0e2e35;fill-opacity:1;fill-rule:nonzero;stroke:none"
         id="path234" /><path
         d="m 16515.4,17502.9 170.4,-32.5 c 0,0 -16.3,-64.2 -91.6,-52.1 -91.9,14.8 -78.8,84.6 -78.8,84.6"
         style="fill:#ffffff;fill-opacity:1;fill-rule:nonzero;stroke:none"
         id="path236" /><path
         d="m 13632.7,5638.2 c 6.5,-22.5 10.2,-29.9 18.5,-45 53.4,-97.3 177.4,-236.1 177.4,-236.1 l 96,216.1 c 0,0 -15.7,67.9 -42.8,164.9 -92.6,-24.2 -180.9,-38.2 -249.1,-99.9"
         style="fill:#f8a492;fill-opacity:1;fill-rule:nonzero;stroke:none"
         id="path238" /><path
         d="m 14182.6,5825.6 c 0,0 -535,-230.4 -552.3,-226 -11.1,2.9 -219.4,351.5 -221.7,679.4 -1,151.4 156.3,333.6 331.7,297.5 88.4,-18.1 87,-42.7 217.7,-232.6 130.7,-189.9 224.6,-518.3 224.6,-518.3"
         style="fill:#13375b;fill-opacity:1;fill-rule:nonzero;stroke:none"
         id="path240" /><path
         d="m 14639.2,1695.3 -12.7,-210.5 c -4.7,-26.7 -23.1,-92.6 -23.1,-116.9 0,-91.1 432.6,77.4 335.7,117.8 -8.8,3.6 -54.8,31.2 -57.7,62.2 -4.4,47.8 -15.7,144.5 -15.7,144.5 l -226.5,2.9"
         style="fill:#f7a491;fill-opacity:1;fill-rule:nonzero;stroke:none"
         id="path242" /><path
         d="m 14938,1486.5 c 0,0 -101.6,-27.8 -153.6,-34.8 -52,-7 -120.6,51.7 -157.4,35.8 -40.5,-17.4 -38.9,-174.4 -38.9,-174.4 0,0 544.6,-44.7 697.8,1.5 60.7,18.4 -140.3,107 -347.9,171.9"
         style="fill:#dd513a;fill-opacity:1;fill-rule:nonzero;stroke:none"
         id="path244" /><path
         d="m 13754.3,1695.3 -12.8,-210.5 c -4.6,-26.7 -23,-92.6 -23,-116.9 0,-91.1 432.6,77.4 335.6,117.8 -8.7,3.6 -68.3,51.9 -71.2,82.9 -4.5,47.7 -2.1,123.8 -2.1,123.8 l -226.5,2.9"
         style="fill:#f7a491;fill-opacity:1;fill-rule:nonzero;stroke:none"
         id="path246" /><path
         d="m 14053.1,1486.5 c 0,0 -101.6,-27.8 -153.6,-34.8 -52,-7 -120.6,51.7 -157.4,35.8 -40.5,-17.4 -42.1,-174.4 -42.1,-174.4 0,0 547.1,-52.1 701,1.5 59.7,20.9 -140.3,107 -347.9,171.9"
         style="fill:#dd513a;fill-opacity:1;fill-rule:nonzero;stroke:none"
         id="path248" /><path
         d="m 13886.5,5521.7 381,533.8 c 1.6,4.6 5.1,14.2 10.4,28.8 19.2,53 59.1,163.2 93.9,272.8 l 0.3,1.2 c 11,38.3 34.1,105.1 56.5,169.8 24.9,71.9 55.8,161.1 56.9,176.3 -0.9,2.6 -2.7,7.3 -5.1,13.5 -14,36.2 -32.9,122.6 -39.6,160.1 -4.2,23.9 -8.5,82.1 20,82.1 44.6,0 23.4,-58.1 44,-94.3 7.5,24.2 22.8,72.3 30.9,120.9 l 7.5,113.5 c 1.4,8.5 -7.7,71.1 23.7,71.1 h 1.5 c 28.1,-2.1 27.5,-68.6 39.2,-181.2 3.7,13 7.4,28.6 10.2,42.9 -0.3,7.7 5.3,41.6 9.5,59.4 -5.6,31.4 -2.3,80.9 31.1,76.2 16.7,-2.3 15.3,-71.4 15.3,-71.4 -0.1,-9.4 -1.1,-82.4 -0.6,-96.9 3.4,24.5 16.8,129 43,129 21.7,0 23.5,-28.1 23,-50.4 -0.2,-13.1 -13.9,-126.3 -14.6,-139.5 10.2,17.2 22.3,116.9 32.5,116.9 42.3,0 27,-141.8 11.4,-178.7 -1.4,-3.8 -3,-11.2 -4.8,-19.8 -5.3,-25.3 -14.1,-67.6 -36.3,-105.5 -26.6,-45.5 -63.3,-117.9 -68.9,-129 -4.1,-22.6 -16.9,-103.9 -32.9,-206.2 -6.9,-43.7 -14.4,-91.7 -22.2,-141.4 l -0.4,0.1 c -1.5,-10.8 -9.4,-45 -39.6,-173.3 -41.2,-175.6 -45.5,-183.2 -47.3,-186.4 -17.9,-31.7 -428.7,-589.5 -446.2,-613.3 l -10.3,-14 -173,232.9"
         style="fill:#f7a491;fill-opacity:1;fill-rule:nonzero;stroke:none"
         id="path250" /><path
         d="m 14595.1,6766.5 c 0,0 -30.9,79.1 -85.9,79.3 0,0 30.7,11.1 57.1,-9.8 26.4,-20.9 28.8,-69.5 28.8,-69.5"
         style="fill:#f47458;fill-opacity:1;fill-rule:nonzero;stroke:none"
         id="path252" /><path
         d="m 13794.5,6919.3 -49.1,-310.1 c 0,0 186.9,-150.1 295.8,-118.4 91.4,26.5 28.8,146 28.8,146 0,0 -48.7,165.6 -33.8,252.4 14.9,86.8 -241.7,30.1 -241.7,30.1"
         style="fill:#f7a491;fill-opacity:1;fill-rule:nonzero;stroke:none"
         id="path254" /><path
         d="m 13829.7,6825.6 c 46.8,-22.2 139.4,-52.3 211.5,-59.7 -6.9,43.5 -10.8,89.4 -5,123.3 6.9,40 -44.1,49.5 -100.9,48.1 -74.5,-6.3 -140.8,-18 -140.8,-18 l -9.5,-59.6 c 14.2,-14.9 29.1,-26.8 44.7,-34.1"
         style="fill:#fe875e;fill-opacity:1;fill-rule:nonzero;stroke:none"
         id="path256" /><path
         d="m 13558.6,7277.1 c -7.7,0 73.9,-346.5 200.2,-406.1 126.2,-59.6 314.5,-28.6 349.8,64.8 39.1,103.2 -103.4,456.7 -281,501.6 -177.6,44.9 -269,-160.3 -269,-160.3"
         style="fill:#f7a491;fill-opacity:1;fill-rule:nonzero;stroke:none"
         id="path258" /><path
         d="m 13704.7,7595.5 c -100.8,-58.2 -147.1,-144.5 -162.7,-179.8 -47.3,-22.5 -104.6,-71 -132.1,-202 -33.8,-160.9 86.4,-285 213.8,-322.3 127.4,-37.3 147.1,-121.6 147.1,-121.6 l 14.5,90.7 c 0,0 -28.4,79 -71,118.6 -42.6,39.5 20.2,97.1 25.7,144.1 4.3,36.2 -22.4,106.5 -16.6,165.9 0,0 70.8,107.3 140.6,133.8 119,45.2 -29.9,247.2 -159.3,172.6"
         style="fill:#13375b;fill-opacity:1;fill-rule:nonzero;stroke:none"
         id="path260" /><path
         d="m 13758.4,7062.9 c 16.5,-40 9.7,-79.8 -15.1,-88.8 -24.8,-8.9 -58.3,16.2 -74.8,56.2 -16.5,40 -9.8,79.8 15.1,88.8 24.8,9 58.3,-16.2 74.8,-56.2"
         style="fill:#f7a491;fill-opacity:1;fill-rule:nonzero;stroke:none"
         id="path262" /><path
         d="m 14228.7,5513.2 734.9,119.8 c 0,0 -83.6,210.5 -113.5,210.5 -29.9,0 -555.7,-229.6 -555.7,-229.6 l -41.8,-83.9 -23.9,-16.8"
         style="fill:#f8a492;fill-opacity:1;fill-rule:nonzero;stroke:none"
         id="path264" /><path
         d="m 13852.3,5009.3 c 0,0 -73.3,-354.4 -43.5,-623.2 29.9,-268.7 32.3,-1223.3 32.3,-1223.3 l -114.1,-1527.4 270.5,-5.9 c 0,0 320.8,1526.7 314.8,1487.5 -5.9,-39.2 107.6,1074.9 107.6,1074.9 l -382.4,851 -185.2,-33.6"
         style="fill:#184655;fill-opacity:1;fill-rule:nonzero;stroke:none"
         id="path266" /><path
         d="m 13924,5026.1 c 0,0 -47.8,-319.1 11.9,-459.1 59.8,-140 512.5,-1513.3 518.5,-1625.2 6,-112 156.5,-1349.6 156.5,-1349.6 l 314.5,8.8 68.1,1376 -142.5,1729.4 -138.3,437.3 -788.7,-117.6"
         style="fill:#13375b;fill-opacity:1;fill-rule:nonzero;stroke:none"
         id="path268" /><path
         d="m 13745.4,6609.2 c 0,0 77.6,-50.9 149.9,-45 72.4,5.8 174.7,72.6 174.7,72.6 l -14.3,48.2 c 0,0 -187.1,27.3 -191.8,24.3 -4.7,-2.9 -118.5,-100.1 -118.5,-100.1"
         style="fill:#f7a491;fill-opacity:1;fill-rule:nonzero;stroke:none"
         id="path270" /><path
         d="m 14572.1,5853.9 c 0,0 278,-262.4 403.5,-217.6 125.5,44.8 177.4,197.9 -128.8,421.9 -274,200.5 -274.7,-204.3 -274.7,-204.3"
         style="fill:#f8a492;fill-opacity:1;fill-rule:nonzero;stroke:none"
         id="path272" /><path
         d="m 14760.5,5530 c -41.3,224.6 -340.6,923.7 -364.5,1052.5 -11.6,62.6 -173.1,64 -326.8,55.8 -162.4,-8.6 -323.8,-29.1 -323.8,-29.1 0,0 -143.8,-23.7 -207,-82.9 -63.3,-59.3 -80.1,-223.2 10.8,-534.4 71.8,-245.7 160.8,-380.6 204.9,-559.5 8.9,-60 16.5,-119.2 26.7,-188.4 16.1,-267.6 -0.2,-621 -0.2,-621 0,0 782.7,-162.4 1075.5,84 0,0 -53.3,592.8 -95.6,823"
         style="fill:#355389;fill-opacity:1;fill-rule:nonzero;stroke:none"
         id="path274" /><path
         d="m 14960,6013 c 0,0 -307.1,-253.5 -325,-253.5 -11.5,0 -438.3,313.9 -536.8,571.8 -54.4,142.6 59.8,302.1 190.2,301.6 90.5,-0.4 130.7,-23.7 309.9,-174.8 179.3,-151.2 361.7,-445.1 361.7,-445.1"
         style="fill:#466eb6;fill-opacity:1;fill-rule:nonzero;stroke:none"
         id="path276" /><path
         d="m 9557.19,17329.7 c 50.33,121.1 101.53,242.5 232.11,303.8 105.68,49.6 216.1,30.9 310,-39.7 266.1,-200 34.2,-420.5 337.1,-799.9 94.1,-117.9 208,-213.1 264.4,-351.2 78.9,-193.4 -15.1,-286.2 -165.8,-378.8 -720.86,-443.2 -1098.75,466.6 -1085.19,674.8 10.1,154.8 74.98,513 107.38,591"
         style="fill:#13375b;fill-opacity:1;fill-rule:nonzero;stroke:none"
         id="path278" /><path
         d="m 8809.03,14971.5 c 30.4,4.8 104.21,57.7 130.27,62.5 20.2,3.7 63.87,10.3 82.48,13.1 22.8,85.2 138.59,549.3 151.56,685.4 14.05,147.4 118.28,785.1 118.28,785.1 l 269.91,-49.1 c 0,0 -112.09,-490.6 -143.09,-728.4 -26.61,-204.3 -250.78,-663.7 -279.28,-712.2 -0.04,-1.1 -0.05,-2.3 -0.13,-3.5 -4.34,-72.1 -39.07,-48.1 -39.07,-48.1 l -56.45,-14.4 c 0,0 -199.74,-19.2 -212.77,-24 -13.02,-4.8 -52.1,28.8 -21.71,33.6"
         style="fill:#f7a491;fill-opacity:1;fill-rule:nonzero;stroke:none"
         id="path280" /><path
         d="m 9526.97,16890.3 c -190.81,-64.7 -299.3,-583.4 -299.3,-583.4 0,0 299.36,-83.5 376.06,-39.7 0,0 87.06,385.9 118.25,372.4 l -195.01,250.7"
         style="fill:#6a97ce;fill-opacity:1;fill-rule:nonzero;stroke:none"
         id="path282" /><path
         d="m 8051.03,14075.3 c -58.39,-154 -88.68,-302.3 -91.41,-320.2 -1.31,-8.7 10.87,-50.5 9.74,-59.5 -117.2,-159.8 -285.63,-194.8 -430,-205 73.58,71.8 181.63,139.9 186.82,162.7 8.26,36.2 52.71,197.4 74.57,420.9 89.8,-41.6 150.73,-8.6 250.28,1.1"
         style="fill:#f7a491;fill-opacity:1;fill-rule:nonzero;stroke:none"
         id="path284" /><path
         d="m 9711.6,15797.9 257.87,-726.3 c 0,0 -414.38,-78 -569.3,-106.4 -154.91,-28.4 -1020.47,-66.2 -1042.4,-81.6 -16.28,-11.4 -195.08,-589.7 -274.95,-908.5 -90.61,-20 -245.71,4 -328.22,32.4 44.58,456.3 205.6,1179.1 257.16,1257.8 83.97,128.1 1699.84,532.6 1699.84,532.6"
         style="fill:#256653;fill-opacity:1;fill-rule:nonzero;stroke:none"
         id="path286" /><path
         d="m 8704.26,13756.9 c -28.5,-162.1 -30.46,-313.5 -29.77,-331.6 0.32,-8.8 20.13,-47.6 20.7,-56.6 -85.17,-179 -244.06,-244.9 -383.97,-282 58.82,84.4 152.2,171.5 153.04,194.8 1.33,37.1 14.77,203.9 -5.64,427.4 96,-23.9 149.69,19.8 245.64,48"
         style="fill:#f7a491;fill-opacity:1;fill-rule:nonzero;stroke:none"
         id="path288" /><path
         d="m 10012.6,15760.2 100.1,-170.8 c 152.2,-260.1 35.5,-594.7 -245.47,-703.7 -1.52,-0.6 -3.02,-1.2 -4.49,-1.8 -146.84,-56.9 -989.98,-256.3 -1008.64,-275.5 -13.86,-14.2 -81.12,-615.8 -99.82,-944 -85.27,-36.5 -242.11,-42.1 -328.48,-29.6 -41.71,456.5 -19,1196.7 16.9,1283.7 58.47,141.6 1569.9,841.7 1569.9,841.7"
         style="fill:#327f6b;fill-opacity:1;fill-rule:nonzero;stroke:none"
         id="path290" /><path
         d="m 8661.56,13420.2 c 22.45,24.8 104.87,-111.7 125.46,-140.8 23.16,-32.7 16.57,-57.4 13.8,-62.5 -7.31,-13.5 -441.91,-269.2 -547.9,-287.4 -10.01,-1.7 -27.36,4.6 -31.73,8.4 -41.42,36.7 149.24,307.5 234.86,343 55.33,23 104.52,27.8 205.51,139.3"
         style="fill:#13375b;fill-opacity:1;fill-rule:nonzero;stroke:none"
         id="path292" /><path
         d="m 7945.75,13750.2 c 26.7,20.1 82.09,-129.4 96.86,-161.8 16.62,-36.5 5.52,-59.6 1.83,-64.1 -9.71,-11.9 -484.53,-181.6 -592.05,-179.6 -10.15,0.2 -26.01,9.7 -29.57,14.3 -33.83,43.7 204.2,274 294.96,292.9 58.67,12.2 107.87,7.6 227.97,98.3"
         style="fill:#13375b;fill-opacity:1;fill-rule:nonzero;stroke:none"
         id="path294" /><path
         d="m 9707.92,16891.8 v 0 h -0.01 c -4.93,0 -12,1.7 -19.24,4 -35.43,6.3 -112.9,15.6 -173.19,-9.8 -73.32,-30.9 -186.94,-320 -180.18,-616.6 2.72,-45.4 5.47,-86 7.81,-114.3 18.51,-224.1 82.8,-644.6 86.27,-646.9 87.46,-56.3 615.12,162 651.42,209.9 36.3,48 57.7,630.5 75.3,659.5 l 34.7,506.6 c -61.2,18.2 -389.06,8.3 -482.88,7.6"
         style="fill:#9bc1f9;fill-opacity:1;fill-rule:nonzero;stroke:none"
         id="path296" /><path
         d="m 9921.78,17078.4 c 0,0 -33.98,-175.7 -27.18,-245.1 6.8,-69.3 -25.91,-292.7 -172.64,-293.4 -146.73,-0.8 -27.86,284 -14.04,351.9 13.82,68 17.09,278.2 17.09,278.2 l 196.77,-91.6"
         style="fill:#f7a491;fill-opacity:1;fill-rule:nonzero;stroke:none"
         id="path298" /><path
         d="m 9721.98,17064.5 c 2.29,57.6 3.03,105.5 3.03,105.5 l 196.77,-91.6 c 0,0 -6.95,-36 -13.93,-81.7 -86.13,-17.3 -148.55,14.5 -185.87,67.8"
         style="fill:#f47458;fill-opacity:1;fill-rule:nonzero;stroke:none"
         id="path300" /><path
         d="m 9993.69,17563.4 c 0,0 75.81,-42.1 103.51,-133.2 27.8,-91.2 -3.8,-326.4 -199.66,-383.2 -195.86,-56.8 -280.7,129.5 -240.36,275.1 40.33,145.7 128.08,330.1 336.51,241.3"
         style="fill:#f7a491;fill-opacity:1;fill-rule:nonzero;stroke:none"
         id="path302" /><path
         d="m 9632.68,17378.6 c 3.84,-39.1 25.42,-69 48.21,-66.8 22.79,2.2 38.14,35.8 34.31,74.9 -3.84,39.1 -25.42,69 -48.21,66.8 -22.78,-2.3 -38.14,-35.8 -34.31,-74.9"
         style="fill:#f7a491;fill-opacity:1;fill-rule:nonzero;stroke:none"
         id="path304" /><path
         d="m 9970.73,17575.3 c 0,0 35.47,-262.4 120.37,-309.8 84.8,-47.4 49.3,-163.8 49.3,-163.8 0,0 77,270.4 9.9,357.2 -67.1,86.8 -179.57,116.4 -179.57,116.4"
         style="fill:#13375b;fill-opacity:1;fill-rule:nonzero;stroke:none"
         id="path306" /><path
         d="m 10040.8,17227.8 c -23,-34.2 -22.9,-74.5 0.2,-90 23.1,-15.6 60.5,-0.5 83.5,33.7 23,34.2 23,74.5 -0.2,90.1 -23.1,15.5 -60.5,0.4 -83.5,-33.8"
         style="fill:#f7a491;fill-opacity:1;fill-rule:nonzero;stroke:none"
         id="path308" /><path
         d="m 9755.47,17213.2 138.04,-34.7 c 0,0 -16.59,-52.4 -77.75,-38.9 -74.57,16.4 -60.29,73.6 -60.29,73.6"
         style="fill:#ffffff;fill-opacity:1;fill-rule:nonzero;stroke:none"
         id="path310" /><path
         d="m 10440.8,14993.4 c 6.6,0.3 595.1,29.9 595.1,29.9 0,0 -244.2,-175.5 -249.2,-175.5 -5,0 -194.5,74.8 -202.8,74.8 -8.3,0 -143.1,70.8 -143.1,70.8"
         style="fill:#50bfa5;fill-opacity:1;fill-rule:nonzero;stroke:none"
         id="path312" /><path
         d="m 22355.3,1686.7 11.7,-206.8 c 4.3,-26.2 21.2,-91 21.2,-114.8 0,-89.5 -397.1,76 -308.1,115.6 8,3.6 50.2,30.8 52.9,61.2 4.1,47 14.4,141.9 14.4,141.9 l 207.9,2.9"
         style="fill:#f7a491;fill-opacity:1;fill-rule:nonzero;stroke:none"
         id="path314" /><path
         d="m 22076.3,1479.8 c 0,0 93.2,-27.3 140.9,-34.2 47.8,-6.8 110.7,50.8 144.5,35.2 37.2,-17.1 35.7,-171.3 35.7,-171.3 0,0 -499.9,-43.9 -640.5,1.5 -55.7,18 128.8,105.1 319.4,168.8"
         style="fill:#f7cc7f;fill-opacity:1;fill-rule:nonzero;stroke:none"
         id="path316" /><path
         d="m 23016.5,1697.4 11.8,-206.8 c 4.2,-26.2 21.1,-91 21.1,-114.8 0,-89.5 -397.1,76 -308.1,115.6 8.1,3.6 62.8,51 65.4,81.5 4.1,46.9 2,121.6 2,121.6 l 207.8,2.9"
         style="fill:#f7a491;fill-opacity:1;fill-rule:nonzero;stroke:none"
         id="path318" /><path
         d="m 22742.3,1492.3 c 0,0 93.2,-27.4 141,-34.2 47.7,-6.9 110.7,50.7 144.4,35.2 37.2,-17.2 38.7,-171.4 38.7,-171.4 0,0 -496.4,-20.4 -643.5,1.5 -57.8,8.6 128.8,105.1 319.4,168.9"
         style="fill:#f7cc7f;fill-opacity:1;fill-rule:nonzero;stroke:none"
         id="path320" /><path
         d="m 22898.8,4976 c 0,0 67.3,-348.2 39.8,-612.3 -27.4,-264 -29.5,-1201.9 -29.5,-1201.9 l 126.5,-1500.1 -270.2,-6.3 c 0,0 -294.4,1499.9 -289,1461.4 5.5,-38.5 -98.7,1056.1 -98.7,1056.1 l 351,836.1 170.1,-33"
         style="fill:#355389;fill-opacity:1;fill-rule:nonzero;stroke:none"
         id="path322" /><path
         d="m 22804.6,5200.8 c 0,0 304.9,-321.1 191.5,-671.8 -45.6,-140.9 -470.4,-1486.8 -475.9,-1596.8 -5.5,-110 -143.7,-1325.9 -143.7,-1325.9 l -288.7,8.7 -62.5,1351.9 82.5,1821.5 175.3,307.2 521.5,105.2"
         style="fill:#466eb6;fill-opacity:1;fill-rule:nonzero;stroke:none"
         id="path324" /><path
         d="m 20953.7,6246 c 99.9,111.4 317.1,269.9 317.1,269.9 0,0 129.5,110.5 182.2,128.7 77.7,26.8 210.7,98.2 403.2,-193.4 137.6,-208.7 1006.5,-1289.2 1149.1,-1325.5 l -931.4,-445.6 c -25.5,212.8 -485.8,614.9 -552,689.9 -148.1,167.6 -662.7,770.5 -568.2,876"
         style="fill:#f47458;fill-opacity:1;fill-rule:nonzero;stroke:none"
         id="path326" /><path
         d="m 20997.2,6698.7 290.1,-169.8 c 0,0 8.2,-247.7 -86.7,-312 -79.6,-54 -140.1,75.6 -140.1,75.6 0,0 -107.9,149.5 -189.9,196 -81.9,46.6 126.6,210.2 126.6,210.2"
         style="fill:#f7a491;fill-opacity:1;fill-rule:nonzero;stroke:none"
         id="path328" /><path
         d="m 21045.8,6589.7 c -10.9,-51.7 -36.1,-126.4 -75.3,-187.9 -31.9,34.6 -67.9,68.5 -99.9,86.7 -37.8,21.5 -13.7,67.9 23.1,111.7 52.1,54.2 103.5,98.5 103.5,98.5 l 55.7,-32.6 c 3.6,-21.2 -3.4,-59.2 -7.1,-76.4"
         style="fill:#f47458;fill-opacity:1;fill-rule:nonzero;stroke:none"
         id="path330" /><path
         d="m 20846,7124.4 c 4.9,6 243.4,-290.9 214,-430.1 -29.4,-139.3 -173.6,-266.3 -273.8,-231.4 -110.8,38.7 -316.9,388.2 -243,557.9 73.9,169.6 302.8,103.6 302.8,103.6"
         style="fill:#f7a491;fill-opacity:1;fill-rule:nonzero;stroke:none"
         id="path332" /><path
         d="m 20584.9,7218 c 104,57.9 273.6,74.5 400.3,8.1 155.8,-81.5 191.3,-286.8 142.5,-412 -48.8,-125.2 7.1,-195.9 7.1,-195.9 l -82.7,48.2 c 0,0 -48.3,75.4 -54.6,135.4 -6.3,60.1 -93.9,49.4 -136.6,76.7 -33,21 -75,89.1 -128.3,124.5 0,0 -134.1,16.4 -200.1,-20.6 -112.5,-63.1 -96.5,152.8 52.4,235.6"
         style="fill:#13375b;fill-opacity:1;fill-rule:nonzero;stroke:none"
         id="path334" /><path
         d="m 20927.9,6828.4 c -0.8,-44.5 20.3,-80.9 47,-81.4 26.8,-0.4 49,35.3 49.8,79.9 0.8,44.5 -20.3,81 -47,81.4 -26.7,0.4 -49,-35.3 -49.8,-79.9"
         style="fill:#f7a491;fill-opacity:1;fill-rule:nonzero;stroke:none"
         id="path336" /><path
         d="m 20683.6,6592.1 126.3,94.4 c 0,0 33.4,-51.1 -20.9,-94.2 -66.3,-52.6 -105.4,-0.2 -105.4,-0.2"
         style="fill:#ffffff;fill-opacity:1;fill-rule:nonzero;stroke:none"
         id="path338" /><path
         d="m 20366.5,4713.9 c 31.6,46.2 45.4,112.9 89.2,163.8 14.6,17.1 38,36.3 64.6,55.5 210.4,123.1 758.4,440.4 779.7,465 25.3,29.2 399.3,650.6 399.3,650.6 l -335.9,76.1 -328.3,-579.7 c -27.4,-21.7 -548.5,-406.9 -548.5,-406.9 0,0 -103.6,-80.9 -160.3,-118.8 -28.6,-16.7 -56.3,-27.5 -80.6,-36 -30.6,-10.6 -88.8,-39.7 -100.6,-50 -13.7,-12.1 -41.1,-37.8 -57.4,-53.5 -16.3,-15.8 -36,-33.5 -43.6,-42.9 -4.7,-5.7 -19.1,-13.5 -29.6,-18.8 -15.8,-7.8 -13.7,-31.1 3.2,-35.9 15.9,-4.5 37.5,5.5 50.8,11.7 37.8,17.8 83.9,65.6 86.3,59.8 2.4,-5.9 -44.4,-108.4 -49,-120.5 -4.5,-12.1 -58.3,-131.6 -61.1,-158.2 -2.7,-26.7 13.3,-32.8 25.3,-23.1 10.3,8.4 96.7,168 96.7,168 0,0 11.1,20.3 15.4,8.7 4.3,-11.7 -73.9,-156.7 -81.6,-180.5 -7.6,-23.8 -1.5,-43.3 20.5,-35 26.8,10.2 100.7,170.1 100.7,170.1 0,0 9.6,19.9 16.2,13 6.5,-6.9 -62,-129.2 -62.8,-143.3 -0.8,-14.1 12,-28 30.5,-16.2 21.7,13.9 86.5,157.2 86.5,157.2 0,0 8,9.5 10.5,2.8 2.5,-6.6 -48.5,-115.1 -44.7,-130.9 3.2,-13.3 15.2,-10.6 15.2,-10.6 26.7,0 61.8,112.3 93.4,158.5"
         style="fill:#f8a492;fill-opacity:1;fill-rule:nonzero;stroke:none"
         id="path340" /><path
         d="m 21607.3,5720.5 c 0,0 -109.4,34.8 -179.5,67 -47,21.5 -252,123.5 -252,123.5 0,0 88.4,372.8 148.1,506.9 219.3,491.9 468.4,152.6 502.2,73.5 75.7,-176.8 -218.8,-770.9 -218.8,-770.9"
         style="fill:#355389;fill-opacity:1;fill-rule:nonzero;stroke:none"
         id="path342" /><path
         d="m 13966.1,7008.7 104.1,77.9 c 0,0 27.6,-42.1 -17.2,-77.7 -54.6,-43.4 -86.9,-0.2 -86.9,-0.2"
         style="fill:#ffffff;fill-opacity:1;fill-rule:nonzero;stroke:none"
         id="path344" /><path
         d="M 26187.6,1320.5 H 2000.7 c -30.24,0 -54.75,-31.3 -54.75,-69.9 0,-38.6 24.51,-69.8 54.75,-69.8 h 24186.9 c 30.2,0 54.7,31.2 54.7,69.8 0,38.6 -24.5,69.9 -54.7,69.9"
         style="fill:#184655;fill-opacity:1;fill-rule:nonzero;stroke:none"
         id="path346" /><path
         d="m 11049.4,15023.9 c -2.5,6.3 -8,6.4 -13.6,6.6 -54.6,1.6 -109.2,4.1 -163.3,12.2 -9.1,1.3 -18,3.4 -26.3,6.7 -15.1,6 -29.9,5.9 -45.2,1.6 -8.2,-2.2 -16.6,-2.7 -25.1,-2.6 -27.4,0.1 -105.8,26.8 -146,33.8 -9.2,1.6 -16.5,8.5 -18.8,17.6 -39.6,156.6 -124.5,507.9 -135.5,623.5 -14.1,147.7 -116.1,813.9 -116.1,813.9 l -273,-76.2 c 0,0 112.3,-491.7 143.4,-730.1 24,-184.1 208,-574.8 265.7,-687.1 28.1,-83.6 91.4,-86 106,-87.8 8.4,-1 16.2,-5.1 21.7,-11.6 9.9,-11.6 21.3,-21.7 34.4,-29.9 9.7,-6.1 17.1,-14.1 23.5,-23.4 11.6,-16.9 22,-34.6 32.3,-52.4 6.8,-11.7 13.9,-15.5 24,-12.7 10.8,3 16,11 15.8,24.2 -0.3,19.5 -6.6,37.1 -16.3,53.8 -9.2,15.5 -8.5,24.6 2.1,38.9 6.2,8.3 12.5,16.3 20.5,22.8 8.2,6.7 16.9,11.7 28,10.2 19.6,-4.9 39.4,-8.9 59.5,-11.1 l 16.5,-3.4 9,-1.9 c 1.4,-0.3 30.5,-3.5 40.4,-3.5 8,-0.1 20.9,-0.6 31.9,-1.1 10,-0.5 31.1,4.7 31.8,4.7 9.7,0.2 18.3,3.7 25.5,10.2 2.9,2.7 5.8,5.7 4.3,10.2 -1.4,4.2 -4.6,5.9 -8.9,6.7 -6.5,1.2 -40.4,5.3 -40.1,6.7 10.1,0 41.6,0.8 51.7,1 13.6,0.4 25.3,5.3 34.7,15.3 3.7,4 8,7.9 5.5,14.2"
         style="fill:#f7a491;fill-opacity:1;fill-rule:nonzero;stroke:none"
         id="path348" /><path
         d="m 10194.1,16885.3 c 134.7,24.5 245.9,-578.4 245.9,-578.4 0,0 -299.4,-83.5 -376.1,-39.7 0,0 -87.05,385.9 -118.25,372.4 l 248.45,245.7"
         style="fill:#9bc1f9;fill-opacity:1;fill-rule:nonzero;stroke:none"
         id="path350" /><path
         d="m 6936.25,6049.7 c 8.92,25.6 -115.34,46.2 -121.95,72 -6.62,25.9 156.89,27.9 162.74,50.6 10.79,41.8 -179.21,8.8 -175.47,28.4 3.75,19.5 198,63.2 177,96.8 -21,33.6 -196.69,-66.3 -202.02,-43.6 -5.31,22.8 171.75,78.2 168.58,128.2 -1.69,26.7 -290.61,-133.1 -324.12,-118.6 -33.51,14.5 36.04,139.9 9.36,158.6 -26.68,18.6 -103.25,-255 -121.66,-264.1 -18.35,-9.1 -408.72,-231.9 -547.61,-267.3 -16.86,46.5 -53.32,109.2 -68.2,153.2 -77.93,-55.4 -135.79,-83.3 -216.22,-133.8 58.27,-146 141.2,-305.9 181.8,-324.3 123.6,-55.8 601.64,340.7 697.06,408.5 95.5,67.9 150.16,45.9 214.74,67.4 64.57,21.4 157.05,-37.5 165.97,-12"
         style="fill:#f7a491;fill-opacity:1;fill-rule:nonzero;stroke:none"
         id="path352" /><path
         d="m 5660,5840 c 0,0 -107,472.5 -88.44,609.6 18.56,137.1 181.49,264.8 294.38,217.5 C 5978.83,6619.6 6030,5960 6030,5960 l -370,-120"
         style="fill:#f7cc7f;fill-opacity:1;fill-rule:nonzero;stroke:none"
         id="path354" /></g></g></svg>
