<?xml version="1.0" ?><svg viewBox="0 0 32 32" xmlns="http://www.w3.org/2000/svg"><defs><style>.cls-1{fill:#010101;}</style></defs><title/><g id="Telegram"><path class="cls-1" d="M24.19,27.11a1,1,0,0,1-.58-.18L14,20.19a1,1,0,0,1-.42-.73,1,1,0,0,1,.29-.8L16.49,16,12,18.81l2,4.59.88-.88a1,1,0,0,1,1.42,1.41L14.3,25.85a1,1,0,0,1-1.63-.31L9.78,18.8a1,1,0,0,1,.4-1.24L22.7,9.85a1,1,0,0,1,1.23,1.56l-7.82,7.82,7.44,5.22,4-17L5.78,15.55l2.41,1a1,1,0,1,1-.75,1.85L2.63,16.45a1,1,0,0,1,0-1.87L28.65,5a1,1,0,0,1,1,.19,1,1,0,0,1,.31,1L25.16,26.34a1,1,0,0,1-.62.71A1.07,1.07,0,0,1,24.19,27.11Z"/></g></svg>