<?xml version="1.0" encoding="UTF-8" standalone="no"?>
<svg
   version="1.1"
   id="svg2"
   xml:space="preserve"
   width="707.96002"
   height="666.65332"
   viewBox="0 0 707.96002 666.65332"
   fill="black"
   xmlns="http://www.w3.org/2000/svg"><defs
     id="defs6" /><g
     id="g10"
     transform="matrix(1.3333333,0,0,-1.3333333,0,666.65333)"><g
       id="g12"
       transform="scale(0.1)"><path
         d="m 2658.4586,4654.9001 c -1219.5381,0 -2208.45859,-988.7376 -2208.45859,-2208.4586 0,-975.7549 632.79059,-1803.57945 1510.27879,-2095.60008 110.3717,-20.44328 150.8926,47.9082 150.8926,106.23919 0,52.66246 -2.048,226.63142 -2.9989,411.16948 -614.3953,-133.5945 -744.04,260.56941 -744.04,260.56941 -100.461,255.2666 -245.2096,323.1427 -245.2096,323.1427 -200.37331,137.0687 15.1039,134.2527 15.1039,134.2527 221.7675,-15.5428 338.5391,-227.6189 338.5391,-227.6189 196.9722,-337.5882 516.6407,-239.9798 642.6649,-183.5506 19.8215,142.7372 77.0554,240.1994 140.2137,295.3121 -490.5288,55.8441 -1006.182,245.2095 -1006.182,1091.4294 0,241.1136 86.2713,438.1224 227.5457,592.7818 -22.9301,55.6613 -98.5227,280.2447 21.3941,584.4435 0,0 185.4523,59.355 607.4834,-226.3754 176.1632,48.9322 365.0898,73.4714 552.7729,74.3126 187.6832,-0.8412 376.756,-25.3804 553.2484,-74.3126 421.5191,285.7304 606.7154,226.3754 606.7154,226.3754 120.2093,-304.1988 44.5802,-528.7822 21.6501,-584.4435 141.6035,-154.6594 227.2896,-351.6682 227.2896,-592.7818 0,-848.2313 -516.6406,-1035.0001 -1008.4128,-1089.674 79.2131,-68.5343 149.7954,-202.9333 149.7954,-408.9752 0,-295.49491 -2.56,-533.31707 -2.56,-606.05709 0,-58.76984 39.7529,-127.63332 151.6972,-105.94662 877.0127,292.34977 1508.9987,1119.88181 1508.9987,2095.30751 0,1219.721 -988.7741,2208.4586 -2208.422,2208.4586"
         style="fill:#1b1817;fill-opacity:1;fill-rule:evenodd;stroke:none;stroke-width:3.65711"
         id="path18" /><path
         d="m 1286.4554,1484.0351 c -4.864,-11.0079 -22.1256,-14.2628 -37.8512,-6.7291 -16.0182,7.2045 -25.0147,22.1621 -19.8216,33.17 4.7543,11.2639 22.0524,14.4091 38.034,6.912 16.0548,-7.2411 25.1976,-22.345 19.6388,-33.3529 v 0"
         style="fill:#1b1817;fill-opacity:1;fill-rule:nonzero;stroke:none;stroke-width:3.65711"
         id="path20" /><path
         d="m 1375.9084,1384.269 c -10.5325,-9.7645 -31.1221,-5.2297 -45.0922,10.2033 -14.4456,15.3965 -17.1519,35.9861 -6.4731,45.8968 10.8616,9.728 30.8294,5.1566 45.3116,-10.2033 14.4456,-15.5793 17.2616,-36.0226 6.2537,-45.8968 v 0"
         style="fill:#1b1817;fill-opacity:1;fill-rule:nonzero;stroke:none;stroke-width:3.65711"
         id="path22" /><path
         d="m 1462.9843,1257.0745 c -13.5313,-9.3988 -35.6569,-0.5851 -49.3345,19.0536 -13.5313,19.6387 -13.5313,43.1905 0.2926,52.6259 13.7142,9.4353 35.5106,0.9143 49.371,-18.5416 13.4948,-19.9678 13.4948,-43.5197 -0.3291,-53.1379 v 0"
         style="fill:#1b1817;fill-opacity:1;fill-rule:nonzero;stroke:none;stroke-width:3.65711"
         id="path24" /><path
         d="m 1582.2794,1134.1955 c -12.1051,-13.3485 -37.8877,-9.7645 -56.7584,8.4479 -19.3096,17.8102 -24.6856,43.0808 -12.544,56.4293 12.2514,13.385 38.1803,9.6182 57.1973,-8.4479 19.1633,-17.7736 25.0147,-43.2271 12.1051,-56.4293 v 0"
         style="fill:#1b1817;fill-opacity:1;fill-rule:nonzero;stroke:none;stroke-width:3.65711"
         id="path26" /><path
         d="m 1746.8496,1062.8452 c -5.3394,-17.2982 -30.1712,-25.161 -55.1859,-17.8102 -24.9781,7.5702 -41.3254,27.8306 -36.2786,45.3117 5.1931,17.4078 30.1346,25.5998 55.3322,17.737 24.9415,-7.5337 41.3254,-27.6478 36.1323,-45.2385 v 0"
         style="fill:#1b1817;fill-opacity:1;fill-rule:nonzero;stroke:none;stroke-width:3.65711"
         id="path28" /><path
         d="m 1927.5842,1049.6064 c 0.6217,-18.2124 -20.5896,-33.3163 -46.8477,-33.6455 -26.4043,-0.5851 -47.7619,14.1531 -48.0545,32.0729 0,18.3953 20.7359,33.3529 47.1403,33.7918 26.258,0.512 47.7619,-14.1165 47.7619,-32.2192 v 0"
         style="fill:#1b1817;fill-opacity:1;fill-rule:nonzero;stroke:none;stroke-width:3.65711"
         id="path30" /><path
         d="m 2095.7749,1078.2416 c 3.1451,-17.7736 -15.1039,-36.0226 -41.1791,-40.8865 -25.6364,-4.6811 -49.3711,6.2902 -52.6259,23.9175 -3.1817,18.2124 15.3965,36.4614 40.9963,41.1791 26.1118,4.5348 49.4807,-6.1439 52.8087,-24.2101 v 0"
         style="fill:#1b1817;fill-opacity:1;fill-rule:nonzero;stroke:none;stroke-width:3.65711"
         id="path32" /></g></g></svg>
