<?xml version="1.0" encoding="UTF-8" standalone="no"?>
<!-- Created with Inkscape (http://www.inkscape.org/) -->

<svg
   version="1.1"
   id="svg2"
   xml:space="preserve"
   width="3603.0266"
   height="2822.6667"
   viewBox="0 0 3603.0266 2822.6667"
   xmlns="http://www.w3.org/2000/svg"
   xmlns:svg="http://www.w3.org/2000/svg"><defs
     id="defs6" /><g
     id="g8"
     transform="matrix(1.3333333,0,0,-1.3333333,0,2822.6667)"><g
       id="g10"
       transform="scale(0.1)"><path
         d="M 27022.7,0 H 0 V 21170 H 27022.7 V 0"
         style="fill:#ffffff;fill-opacity:1;fill-rule:nonzero;stroke:none"
         id="path12" /><path
         d="m 21197.9,2647.1 c -10,-224.5 -509.1,-392.6 -1114.8,-375.4 -605.8,17.2 -1088.7,213.2 -1078.8,437.7 10,224.5 509.1,392.6 1114.8,375.4 605.7,-17.2 1088.7,-213.1 1078.8,-437.7"
         style="fill:#e5d3c3;fill-opacity:1;fill-rule:nonzero;stroke:none"
         id="path14" /><path
         d="m 18885.3,4492.8 86.1,-335.1 99.4,-28.9 224.3,-1441.4 c 13.6,-124.8 66.5,-225.3 141.7,-267.9 260.6,-147.7 906.1,-425.2 1571.8,-30.4 79.5,47.1 142.5,150.8 168.4,276.5 l 245.3,1423.3 115.1,41.6 119.4,284.9 -2771.5,77.4"
         style="fill:#a3544a;fill-opacity:1;fill-rule:nonzero;stroke:none"
         id="path16" /><path
         d="m 21656.8,4415.2 c -8.4,-133.3 -635.7,-224 -1401,-202.5 -765.3,21.4 -1378.9,146.9 -1370.5,280.1 8.4,133.3 635.7,224 1401,202.5 765.3,-21.4 1378.9,-146.8 1370.5,-280.1"
         style="fill:#4e4059;fill-opacity:1;fill-rule:nonzero;stroke:none"
         id="path18" /><path
         d="m 20464.1,4522.4 c 0,0 -438.9,3663.5 124.4,4613.8 563.3,950.2 1534.8,1733.1 2520.3,1579.4 985.5,-153.7 544.6,-1262 -311.5,-2050.2 -794.5,-731.5 -1630.2,-3394.6 -1745.3,-4068.2 -12.2,-71.3 -69.6,-126.1 -141.3,-135.2 l -445.2,-56.8 -1.4,117.2"
         style="fill:#399986;fill-opacity:1;fill-rule:nonzero;stroke:none"
         id="path20" /><path
         d="m 20851.9,6064 c -22.7,0 -42.5,13 -45.9,31.1 -5.3,28.5 -129,704.3 2,1171.6 71,253.3 133.1,367.7 193.2,478.4 50.8,93.5 98.7,181.8 149.2,351.6 30.3,101.7 40.6,210.3 51.5,325.3 27.9,293.5 59.5,626.1 457.7,910.7 261.1,186.6 442.7,371.2 588.6,519.5 156,158.6 279.3,283.9 431.8,348.3 273.4,115.4 448.5,276.1 450.2,277.7 16.6,15.3 45.9,17.2 65.4,4.2 19.6,-13 22,-35.9 5.4,-51.3 -7.5,-7 -188.3,-172.8 -477,-294.7 -135.1,-57.1 -253,-176.9 -402.3,-328.7 -148.2,-150.6 -332.5,-338 -599.6,-528.8 -370.9,-265.1 -399.7,-568.7 -427.6,-862.3 -11.2,-117.9 -21.8,-229.2 -53.7,-336.4 -52.4,-176 -101.8,-267.1 -154.2,-363.6 -58.4,-107.6 -118.8,-218.9 -188,-465.6 -127.3,-454.1 -2.1,-1138.5 -0.8,-1145.4 3.7,-19.8 -13.8,-38.3 -39.2,-41.2 -2.2,-0.3 -4.5,-0.4 -6.7,-0.4"
         style="fill:#9ad4ba;fill-opacity:1;fill-rule:nonzero;stroke:none"
         id="path22" /><path
         d="m 20518.4,4352.4 -129.6,-10 c -251.6,-19.3 -503.3,35.8 -723.7,158.6 v 0 c 0,0 -542.2,3059.3 -883.1,3520.5 -341,461.3 -1062.9,280.8 -1323.6,1283.5 -260.7,1002.7 -1965.3,1845.8 -1463.9,2557.3 501.3,711.5 2607,170.7 3870.4,-1434 1263.4,-1604.6 653.5,-6075.9 653.5,-6075.9"
         style="fill:#3da894;fill-opacity:1;fill-rule:nonzero;stroke:none"
         id="path24" /><path
         d="m 20098.3,4789.2 c -3.4,0 -7,0.4 -10.5,1.2 -25,5.8 -40.5,30.8 -34.7,55.7 2.1,8.9 207,894.8 198.4,1324.1 -4.2,207.4 -93.4,591.9 -196.7,1037.2 -113.4,488.5 -241.9,1042.2 -302.1,1543 -71.8,595.9 -234.4,719.4 -529.6,943.5 -171.3,130.1 -384.5,292 -644.9,591.5 -697.5,802.1 -1983.3,1310.3 -1996.3,1315.3 -23.8,9.3 -35.6,36.2 -26.3,60.1 9.3,23.9 36.2,35.6 60.1,26.3 13.1,-5.1 1320.2,-521.7 2032.6,-1340.9 254.1,-292.2 463,-450.9 630.9,-578.4 305.1,-231.6 489.2,-371.4 565.6,-1006.3 59.7,-495.8 187.6,-1046.9 300.4,-1533.1 104.5,-450.4 194.7,-839.3 199.1,-1056.4 8.8,-440.8 -192.2,-1310.1 -200.8,-1346.9 -5,-21.4 -24.1,-35.9 -45.2,-35.9"
         style="fill:#9ad4ba;fill-opacity:1;fill-rule:nonzero;stroke:none"
         id="path26" /><path
         d="M 18668.3,6982.7 C 18102.2,7453 16988.6,7791 16868,7390 c -120.6,-401 528.9,-753.7 528.9,-753.7 0,0 324.8,-83.5 538.3,-148.4 213.4,-65 64.9,-253.9 222.7,-423.9 157.8,-170.1 417.6,-281.4 547.5,-420.6 129.9,-139.2 371.2,-232 519.7,-408.3 95.8,-113.8 178.1,-386.6 224.4,-565.6 25.7,-99.2 115,-168.5 217.3,-168.5 h 179.4 c 0,0 -611.8,2011.4 -1177.9,2481.7"
         style="fill:#399986;fill-opacity:1;fill-rule:nonzero;stroke:none"
         id="path28" /><path
         d="m 8302.78,2406.7 c -230.15,313.3 908.06,249.5 1014.06,251.5 415.42,7.7 1004.56,-11.6 1394.16,158.6 223,97.3 170.4,240.8 398.4,241.8 84.8,0.3 161.9,-76.3 244.6,-84.4 133.9,-13 333.9,54.6 472.3,65.5 333.6,26.3 669.6,30.4 1004.1,34.2 1299.3,15.1 2600.4,104.8 3898.9,107.2 314.9,0.6 677.5,-14 956.3,-184.3 479.6,-292.9 -385.8,-312 -599.3,-322.2 -1006.7,-48 -2035.6,-132.2 -3031,-291.6 -461,-73.9 -916,-164.8 -1374.2,-255.4 -449.9,-89 -702.4,-418.2 -1112.9,-585 -353.4,-143.7 -447,16 -720.9,178.6 -242.8,144 -533,135 -805.4,144.1 -665.09,22.1 -1431.87,-72.5 -2075.41,122.4 -927.53,280.9 336.6,418.5 336.29,419 -80.72,109.9 37.39,-50.9 0,0"
         style="fill:#e5d3c3;fill-opacity:1;fill-rule:nonzero;stroke:none"
         id="path30" /><path
         d="m 11925.9,14988.4 -1320,-2346.2 c 0,0 -208.4,1327.1 -534,1393.4 -207.4,42.2 -565.66,-321.3 -593.37,-778.2 -27.71,-456.9 -524.49,-2530.7 636.07,-2748.9 1160.6,-218.2 2394.9,3124.3 2286.5,3671.3 -108.4,546.9 -475.2,808.6 -475.2,808.6"
         style="fill:#ffd44d;fill-opacity:1;fill-rule:nonzero;stroke:none"
         id="path32" /><path
         d="m 7415.55,2272.2 c 5.08,13.8 10.18,23.9 15.72,31.6 19.75,27.6 45.38,24 98,42.1 67.39,23.1 254.82,103.2 351.69,172.7 72.08,51.7 306.2,265.4 421.34,371.5 49.21,45.3 110.02,76.2 175.82,88.3 260.61,48.1 585.43,-2.7 664.3,-87.1 60.92,-65.2 91.34,-260.9 104.73,-382.1 4.77,-43.2 14.42,-85.6 28.84,-126.5 3.95,-11.2 8.1,-22.3 12.8,-33.3 17.34,-40.3 32.67,-96.4 20,-153 -24.03,-107.4 -103.19,-162.2 -248.5,-170.6 -145.31,-8.4 -174.8,65.3 -263.24,44.2 -88.45,-21.1 -58.97,-33.7 -115.83,-92.7 -56.86,-58.9 -233.76,-124.2 -433.82,-143.2 -200.07,-18.9 -429.62,19 -583.16,71.6 -153.54,52.7 -276.07,105.3 -290.81,187.5 -14.74,82.1 18.96,115.8 42.12,179"
         style="fill:#4e4059;fill-opacity:1;fill-rule:nonzero;stroke:none"
         id="path34" /><path
         d="m 9248.12,4483.3 c -54.1,-1201 -137.1,-1594.4 -142.81,-1614.9 -10.74,-38.5 55.06,-261.9 19.31,-271.7 -144.46,-40 -596.23,70.2 -685.4,294.5 0,0 1.93,381.3 -97.58,1548.1 204.02,-47 722.12,-28.2 906.48,44"
         style="fill:#ffffff;fill-opacity:1;fill-rule:nonzero;stroke:none"
         id="path36" /><path
         d="m 10499.9,1665.3 c 0.9,14.7 3,25.8 6.1,34.8 11,32.1 36.6,36 81.8,68.4 58,41.4 214.7,171.7 287.6,266 54.3,70.2 217.5,342 297.5,476.5 34.2,57.5 83.7,104.5 143.2,134.9 236,120.7 561.8,164.9 661.5,106.6 77,-45 162.2,-223.9 209.6,-336.2 17,-40 38.3,-77.9 63.9,-113 7,-9.6 14.1,-19.1 21.8,-28.2 28.1,-33.7 58.8,-83.1 62.9,-141 7.7,-109.8 -52.5,-184.9 -189.3,-234.5 -136.9,-49.6 -186.2,12.6 -264.9,-32.9 -78.8,-45.5 -46.9,-49.2 -84.5,-121.9 -37.7,-72.8 -188.5,-185.9 -374.8,-261.3 -186.3,-75.4 -417.1,-104.7 -579.2,-98.2 -162.2,6.5 -294.7,22 -332.3,96.4 -37.6,74.5 -15,116.4 -10.9,183.6"
         style="fill:#4e4059;fill-opacity:1;fill-rule:nonzero;stroke:none"
         id="path38" /><path
         d="m 11623.6,4308.2 c 291.6,-1166.3 324.6,-1567 325,-1588.3 0.7,-40 -4.9,-79.3 -36.3,-98.9 -127,-79.6 -458.9,-259.2 -608.5,-69.7 0,0 -107.2,365.9 -536.2,1455.4 208.9,13.4 700,179.6 856,301.5"
         style="fill:#ffffff;fill-opacity:1;fill-rule:nonzero;stroke:none"
         id="path40" /><path
         d="m 15875.2,7503.4 1823.8,-5061.6 -155.7,-74.6 -2117.3,5044.7 449.2,91.5"
         style="fill:#c48953;fill-opacity:1;fill-rule:nonzero;stroke:none"
         id="path42" /><path
         d="m 15133.4,7457.6 1114.4,-4781 -164.5,-52.7 -1407.4,4804.4 457.5,29.3"
         style="fill:#c48953;fill-opacity:1;fill-rule:nonzero;stroke:none"
         id="path44" /><path
         d="m 13283.1,7156.8 -580.2,-4874.9 169.3,-34.2 868.8,4930.4 -457.9,-21.3"
         style="fill:#c48953;fill-opacity:1;fill-rule:nonzero;stroke:none"
         id="path46" /><path
         d="m 12471,7392.3 -1336.6,-4723.8 161.8,-60.2 1630.4,4733.4 -455.6,50.6"
         style="fill:#c48953;fill-opacity:1;fill-rule:nonzero;stroke:none"
         id="path48" /><path
         d="m 11185.8,7655.1 c 126.4,-365.5 484.1,-738.3 1043,-867.3 74.3,-17.2 152.2,-30.1 233.6,-38 1051.7,-102.6 3349.1,65.9 4025,1398.8 482,950.6 827.7,4991.3 -561.2,5108.1 -1389,116.8 -1786.4,-1153.8 -2087.1,-2082.8 -161.9,-500.1 -304.5,-899.7 -456.2,-1223.3 -6.8,-14.5 -13.6,-28.9 -20.4,-43.2 -4.4,-9 -8.7,-18 -13,-26.9 -9,-18.3 -18,-36.4 -27.1,-54.1 -9,-17.6 -18,-35 -27,-52.2 -4.6,-8.6 -9.1,-17.1 -13.7,-25.5 -4.5,-8.5 -9.1,-16.9 -13.7,-25.2 -4.6,-8.3 -9.2,-16.6 -13.8,-24.8 -4.1,-7.4 -8.2,-14.7 -12.3,-21.9 -29.6,-51.9 -59.9,-101.4 -90.9,-148.6 -3.5,-5.3 -7,-10.6 -10.5,-15.9 -10.2,-15.4 -20.6,-30.6 -31.2,-45.6 -4.4,-6.3 -8.8,-12.6 -13.3,-18.8 -5.8,-8.2 -11.7,-16.4 -17.7,-24.6 -4.2,-5.7 -8.4,-11.3 -12.6,-16.9 -35.6,-47.6 -72.4,-92.7 -110.6,-135.5 -428.3,-480.5 -1330.2,-302.4 -1747.2,-1031.1 -2.5,-4.3 -4.9,-8.7 -7.2,-13.3 -83.9,-157.1 -87,-363.1 -14.9,-571.4"
         style="fill:#377689;fill-opacity:1;fill-rule:nonzero;stroke:none"
         id="path50" /><path
         d="m 10356.5,10512.4 c 81.5,142.8 286.6,507.8 391.9,747 133.4,302.7 529,1306.7 529,1306.7 35.5,-104.5 77.4,-654.8 83.7,-1159.7 -307,-464.8 -654.7,-820.4 -1004.6,-894"
         style="fill:#e5a13e;fill-opacity:1;fill-rule:nonzero;stroke:none"
         id="path52" /><path
         d="m 12043.8,10128.5 c 0,0 -3011.56,-506.5 -3702.16,-1017.9 -382.06,-282.9 -401.48,-832 -505.87,-2217.3 -19.26,-255.6 63.29,-673.7 53.5,-943.2 -11.33,-311.5 -113.4,-476 -112.07,-795.6 2.7,-647.7 31.4,-1300.3 86.14,-1910.5 13.92,-155.1 1525.18,-207.4 1627.14,-167.5 71.98,28.2 -120.39,4209.3 277.39,4546 0,0 1997.13,-329.6 3448.63,728.3 957.7,697.9 -1172.7,1777.7 -1172.7,1777.7"
         style="fill:#fcf8eb;fill-opacity:1;fill-rule:nonzero;stroke:none"
         id="path54" /><path
         d="m 11185.8,7655.1 c 126.4,-365.5 484.1,-738.3 1043,-867.3 40.3,144.7 137.5,280.7 344.5,382.3 321.6,157.8 1706.7,368.3 2102.6,556.1 396,187.8 659.2,637.5 627.6,1039.3 -31.4,401.8 347.5,1683.1 336.9,2204.4 267.1,1830.9 -746.6,1737.3 -746.6,1737.3 0,0 -657.3,-2160.8 -991.3,-2454 -76.4,-67.1 -265.2,-171.1 -516,-295.2 -8,-17.1 -16,-33.9 -24,-50.6 -4.3,-9 -8.7,-18 -13,-26.9 -9,-18.3 -18,-36.4 -27.1,-54.1 -8.9,-17.7 -17.9,-35.1 -27,-52.2 -4.5,-8.6 -9.1,-17.1 -13.7,-25.5 -4.5,-8.5 -9,-16.9 -13.7,-25.2 -4.5,-8.3 -9.1,-16.6 -13.8,-24.8 -4,-7.4 -8.2,-14.7 -12.3,-21.9 -29.6,-51.9 -59.9,-101.4 -90.9,-148.6 -3.4,-5.4 -6.9,-10.6 -10.5,-15.9 -10.2,-15.4 -20.6,-30.6 -31.2,-45.6 -4.3,-6.3 -8.7,-12.6 -13.3,-18.8 -5.8,-8.2 -11.7,-16.4 -17.7,-24.6 -4.2,-5.7 -8.4,-11.3 -12.6,-16.9 -35.6,-47.6 -72.4,-92.7 -110.6,-135.5 -428.3,-480.5 -1330.2,-302.4 -1747.2,-1031.1 -2.5,-4.3 -4.9,-8.7 -7.2,-13.3 -64.7,-126.8 -66,-335.3 -14.9,-571.4"
         style="fill:#39526b;fill-opacity:1;fill-rule:nonzero;stroke:none"
         id="path56" /><path
         d="m 13899.9,10068.8 c 0,0 -1407.1,-413.6 -2703.9,-912.4 -580.9,-223.4 -1028.1,-493.3 -1241.72,-651.5 -435.74,-322.7 -6.84,-2362.4 329.52,-3930.9 203.4,-948.3 297.2,-1577 336.8,-1796 32.3,-178.8 1291.1,26.5 1563,133 63.2,24.8 -666.5,4356 -666.5,4356 0,0 451.8,125.3 949.4,184.6 574.7,68.4 1168,209.2 1681.5,583.4 957.7,697.9 -248.1,2033.8 -248.1,2033.8"
         style="fill:#fcf8eb;fill-opacity:1;fill-rule:nonzero;stroke:none"
         id="path58" /><path
         d="m 13097.3,15301.6 c 369,-38.2 807.5,-195.6 1321.2,-675.7 708.1,-661.8 823.7,-1453.6 749.6,-2559.5 -12.1,-180.7 -111.6,-421.2 -131.8,-597.2 -25.5,-222.6 26.5,-378.4 -6.8,-582.2 -50.8,-311.8 -162.8,-554.7 -214.9,-784.9 -45.4,-200.4 29.5,-1288.2 -180.9,-1748.6 -77.6,-170 -2218.7,1149.7 -2218.7,1149.7 0,0 -1760.6,248.9 -1662.6,605.6 55.4,201.7 219.1,571.5 268.8,809.2 26.4,126.4 129.1,294.7 148.1,419.1 24.6,161.3 41.3,317.5 45.6,459 24.9,811.7 -170.6,2195.1 128.3,2701.1 214.6,363.3 763.1,906.9 1754.1,804.4"
         style="fill:#ffd44d;fill-opacity:1;fill-rule:nonzero;stroke:none"
         id="path60" /><path
         d="m 13024.7,15260.5 c 115.1,18.7 424.1,32.5 571.7,-99.7 184.8,-165.6 -1279.1,-3378.8 -1412.3,-3491.9 -133.1,-113 358,3513.1 840.6,3591.6"
         style="fill:#ffffff;fill-opacity:1;fill-rule:nonzero;stroke:none"
         id="path62" /><path
         d="m 13635.7,15937 c 0,0 -22.6,-227.4 -26.6,-444.3 -3.1,-169.6 65.2,-368.8 18.2,-418.1 -43.8,-46 -562.5,-204.5 -630.5,-141.2 -68,63.3 119.7,790 119.7,790 l 519.2,213.6"
         style="fill:#ffbe91;fill-opacity:1;fill-rule:nonzero;stroke:none"
         id="path64" /><path
         d="m 13242.3,16819.9 c 203.8,-29.3 359.9,-196.6 375.7,-401.9 23.4,-305.3 1.4,-591 -51.2,-678.9 -111.5,-186.5 -613.8,-304.2 -822.8,-226.1 -125.4,46.9 -145.8,176.4 -151,381.8 -3.5,136.6 22,249 23.5,307 3.8,145.1 -35,629.2 241.5,638.6 118,3.9 257.8,-2.4 384.3,-20.5"
         style="fill:#ffbe91;fill-opacity:1;fill-rule:nonzero;stroke:none"
         id="path66" /><path
         d="m 13090.4,16682.8 c 0,0 249.3,-40.3 335.4,-127 69.5,-70 15.1,-357.5 72.1,-432.7 57,-75.2 220.2,-78.6 274.9,-35.1 138.9,110.6 134.5,446.8 126.2,529.1 -28.9,286.8 -138.8,318.2 -303.9,371.3 -165,53.2 -604.1,-169.3 -504.7,-305.6"
         style="fill:#994b45;fill-opacity:1;fill-rule:nonzero;stroke:none"
         id="path68" /><path
         d="m 13556.1,16110 c -26.7,-1.2 -85.2,225.3 -88.9,196.6 0,-95.2 -1.5,-230.3 -9.4,-262.4 -15.9,-64.2 -127.5,-101.5 -233.9,-109.1 -106.5,-7.5 -231.1,108.4 -406.8,106.7 -120.6,-1.1 -189.3,-18.5 -220.7,-29.2 -2.8,-36.4 -38.2,-161.9 -37.1,-203.7 5.2,-205.4 40.3,-301.5 165.8,-348.4 182.2,-68.1 686.3,-26.4 807.5,216.8 43.8,87.9 -24.9,212.7 23.5,432.7"
         style="fill:#994b45;fill-opacity:1;fill-rule:nonzero;stroke:none"
         id="path70" /><path
         d="m 10446.7,11137 c 9.4,0 18.5,4.9 23.5,13.7 319.9,558.6 172.9,1340.6 166.5,1373.6 -2.8,14.7 -17.1,24.3 -31.8,21.4 -14.7,-2.8 -24.3,-17.1 -21.5,-31.8 1.6,-7.9 149.4,-795.4 -160.3,-1336.2 -7.4,-13.1 -2.9,-29.6 10.1,-37.1 4.2,-2.4 8.9,-3.6 13.5,-3.6"
         style="fill:#ffb94a;fill-opacity:1;fill-rule:nonzero;stroke:none"
         id="path72" /><path
         d="m 13005.9,15923.4 c 0,0 -194.8,21 -327.6,24.1 0,0 -10.4,-145.6 117.3,-155.6 120.9,-9.4 210.3,131.5 210.3,131.5"
         style="fill:#ffffff;fill-opacity:1;fill-rule:nonzero;stroke:none"
         id="path74" /><path
         d="m 13195.1,16288.8 c 4.7,0 9,3 10.4,7.7 1.7,5.8 -1.6,11.8 -7.4,13.5 -2.6,0.8 -65.4,19.1 -109.5,18.5 -43.3,-0.8 -64.8,-4.7 -65.7,-4.8 -5.9,-1.1 -9.8,-6.8 -8.7,-12.7 1.1,-5.8 6.7,-9.7 12.6,-8.7 0.2,0.1 20.9,3.7 62.2,4.5 40.7,0.7 102.4,-17.4 103,-17.6 1,-0.3 2,-0.4 3.1,-0.4"
         style="fill:#4e4059;fill-opacity:1;fill-rule:nonzero;stroke:none"
         id="path76" /><path
         d="m 12772.7,16314.4 c 5.3,0 9.9,3.8 10.7,9.2 0.9,5.9 -3.1,11.4 -9,12.3 -3.1,0.5 -76.5,11.8 -129.1,6.4 -6,-0.6 -10.3,-5.9 -9.7,-11.9 0.6,-6 6,-10.4 11.9,-9.7 49.9,5.1 122.8,-6.1 123.5,-6.2 0.6,-0.1 1.1,-0.1 1.7,-0.1"
         style="fill:#4e4059;fill-opacity:1;fill-rule:nonzero;stroke:none"
         id="path78" /><path
         d="m 13088.8,16317.6 c -37.9,0.4 -65.6,-33.9 -58.5,-71.1 4.4,-22.9 16.6,-44.7 46.5,-47.8 65.8,-6.7 77,86.1 69.6,98.3 -4.8,7.8 -27.3,20.4 -57.6,20.6"
         style="fill:#4e4059;fill-opacity:1;fill-rule:nonzero;stroke:none"
         id="path80" /><path
         d="m 12732.9,16323 c -33.5,25.9 -81.4,-2.7 -78.3,-44.9 2,-27 10.3,-57.4 36.7,-61.6 48.9,-7.8 55.7,84.7 50,97.1 -1.3,2.8 -4.2,6.1 -8.4,9.4"
         style="fill:#4e4059;fill-opacity:1;fill-rule:nonzero;stroke:none"
         id="path82" /><path
         d="m 13227.7,16408.3 c 4.5,0 8.8,2.9 10.3,7.5 1.8,5.7 -1.3,11.8 -7,13.7 -124.9,40.7 -242.1,37.3 -247,37.2 -6,-0.2 -10.7,-5.2 -10.5,-11.2 0.2,-6 5.1,-10.9 11.2,-10.5 1.2,0 118.5,3.3 239.6,-36.1 1.1,-0.4 2.2,-0.6 3.4,-0.6"
         style="fill:#4e4059;fill-opacity:1;fill-rule:nonzero;stroke:none"
         id="path84" /><path
         d="m 12638.4,16448.4 c 0.3,0 0.6,0.1 1,0.1 l 137.8,12.8 c 6,0.6 10.4,5.9 9.8,11.8 -0.6,6 -5.9,10.4 -11.8,9.8 l -137.8,-12.8 c -6,-0.5 -10.4,-5.8 -9.8,-11.8 0.5,-5.6 5.2,-9.9 10.8,-9.9"
         style="fill:#4e4059;fill-opacity:1;fill-rule:nonzero;stroke:none"
         id="path86" /><path
         d="m 12355.9,11402.3 c 0,0 -237.9,-1011.8 85.2,-1468.7 323,-456.9 921.3,-782.6 1453.3,-777.2 532.1,5.5 950.9,1547.3 969.5,1968.2 18.7,420.8 -730.6,-572.8 -1132.3,-561.9 -401.8,10.8 -1142.2,394.4 -1375.7,839.6"
         style="fill:#e5a13e;fill-opacity:1;fill-rule:nonzero;stroke:none"
         id="path88" /><path
         d="m 13665.9,16216.8 c 5.4,0 10.1,4.1 10.8,9.6 0.6,6 -3.7,11.4 -9.6,12 l -427.3,48.2 c -6,0.7 -11.3,-3.6 -12,-9.6 -0.7,-5.9 3.6,-11.3 9.6,-12 l 427.2,-48.1 c 0.5,-0.1 0.9,-0.1 1.3,-0.1"
         style="fill:#4e4059;fill-opacity:1;fill-rule:nonzero;stroke:none"
         id="path90" /><path
         d="m 12908.4,16222.8 h 0.1 z m 52.5,105.6 c -28.7,-25.7 -43.4,-63.1 -41.6,-105.1 v 0 c 4.2,-92.8 86.9,-180.7 184.4,-195.9 48.4,-7.5 92.3,3.8 123.6,31.9 28.7,25.7 43.5,63 41.6,105.1 -4.2,92.8 -86.9,180.6 -184.4,195.8 -9.8,1.6 -19.4,2.3 -28.7,2.3 -36.9,0 -69.9,-11.7 -94.9,-34.1 z m 139.5,-322.5 c -107.2,16.8 -198.1,113.8 -202.8,216.4 v 0 c -2.1,48.7 15.2,92.1 48.8,122.2 35.8,32.1 87.3,45.6 141.4,37.2 107.2,-16.7 198.2,-113.8 202.8,-216.3 2.2,-48.7 -15.2,-92.2 -48.8,-122.3 -28.8,-25.8 -67.8,-39.6 -110.2,-39.6 -10.2,0 -20.7,0.8 -31.2,2.4"
         style="fill:#4e4059;fill-opacity:1;fill-rule:nonzero;stroke:none"
         id="path92" /><path
         d="m 12534.4,16404.9 c -29.9,-26.8 -46.1,-70.8 -44.4,-120.6 v 0 c 3.1,-92.4 66.2,-176.3 140.6,-186.9 30.5,-4.3 58.7,4.1 81.4,24.5 29.9,26.8 46,70.8 44.4,120.6 -3.1,92.4 -66.2,176.3 -140.7,186.9 -5.2,0.7 -10.3,1.1 -15.4,1.1 -24.5,0 -47.1,-8.7 -65.9,-25.6 z m 93.2,-329 c -84.4,12 -155.9,105.2 -159.3,207.6 -1.9,56.3 16.9,106.4 51.6,137.5 27.2,24.5 62.3,35.1 98.9,29.9 84.4,-12.1 155.8,-105.2 159.3,-207.7 1.9,-56.3 -16.9,-106.3 -51.6,-137.5 -22.7,-20.3 -50.9,-31.1 -80.8,-31.1 -6,0 -12.1,0.4 -18.1,1.3"
         style="fill:#4e4059;fill-opacity:1;fill-rule:nonzero;stroke:none"
         id="path94" /><path
         d="m 12908.4,16224.3 c 2.7,0 5.3,1 7.4,2.9 4.4,4 4.7,10.9 0.6,15.3 -0.7,0.8 -69.6,74.1 -154.4,24 -5.2,-3.1 -6.9,-9.7 -3.9,-14.9 3.1,-5.1 9.8,-6.8 14.9,-3.8 69.9,41.3 125.1,-17.5 127.4,-20 2.2,-2.3 5.1,-3.5 8,-3.5"
         style="fill:#4e4059;fill-opacity:1;fill-rule:nonzero;stroke:none"
         id="path96" /><path
         d="m 13581.8,16176.9 c 23.4,37.6 60.4,65.6 103.8,74.6 44.2,9.2 96.2,-0.5 122.1,-80.1 47.5,-146.1 -178.6,-355.8 -257.3,-276.7 -7.5,7.6 -11.8,18 -12.9,28.6 -11.2,109.8 8.4,196.2 44.3,253.6"
         style="fill:#ffbe91;fill-opacity:1;fill-rule:nonzero;stroke:none"
         id="path98" /><path
         d="m 13597.8,15943.7 c 1.1,0 2.1,0.2 3.2,0.5 5.7,1.7 9,7.8 7.2,13.5 -0.1,0.4 -11.6,40.3 7.3,51.7 9.6,5.7 24.6,3.6 39.1,1.7 18.9,-2.6 40.4,-5.5 53.7,9.9 17.9,20.9 43.7,68.7 41.4,115 -2.3,48 -40.8,61.2 -42.5,61.8 -5.6,1.8 -11.8,-1.2 -13.7,-7 -1.8,-5.6 1.2,-11.7 6.9,-13.6 1.1,-0.4 26,-9.5 27.7,-42.3 1.9,-39.6 -21.2,-82.2 -36.3,-99.7 -5.6,-6.5 -19.5,-4.6 -34.3,-2.6 -17.4,2.4 -37.1,5 -53.2,-4.6 -33.7,-20.3 -17.6,-74.3 -16.8,-76.6 1.4,-4.7 5.7,-7.7 10.3,-7.7"
         style="fill:#ea907e;fill-opacity:1;fill-rule:nonzero;stroke:none"
         id="path100" /><path
         d="m 12874.5,16217.5 c -1.9,10.5 -15.3,13.8 -21.9,5.4 -18.8,-23.5 -54.3,-61 -109.7,-93.5 -81.7,-47.8 -77.6,-103 29.2,-96 106.8,7 115.9,15 116.8,69.8 0.4,29.2 -8.4,81.8 -14.4,114.3"
         style="fill:#ea907e;fill-opacity:1;fill-rule:nonzero;stroke:none"
         id="path102" /><path
         d="m 11826.4,13200.5 c -48.8,63.9 -132.7,130.1 -155.5,179.4 3.8,-0.4 52.1,10.3 54.5,12.6 48,45.8 -87,310.1 -9.8,339.6 40.7,15.5 89.8,-143 157.4,-286.9 41.7,-88.9 111,-166.7 133.2,-237.1 10.7,-34.1 -31.3,-52.5 -17.8,-115.3 5.5,-26 -26.4,-43.2 -44.9,-24.1 -42,43.3 -86,91.2 -117.1,131.8"
         style="fill:#ffbe91;fill-opacity:1;fill-rule:nonzero;stroke:none"
         id="path104" /><path
         d="m 10138.7,12430.8 2043.4,-284.7 -1120.8,2832.3 -2043.49,284.6 1120.89,-2832.2"
         style="fill:#4e4059;fill-opacity:1;fill-rule:nonzero;stroke:none"
         id="path106" /><path
         d="m 10526.8,14919.2 -58.7,87.4 c -72.8,108.3 -194.4,187.8 -312.4,204.2 l -142.8,19.9 c 0,0 -117.18,130.1 -213.97,143.6 -96.8,13.5 -94.07,-118 -94.07,-118 l -115.16,16.1 c -81.66,11.3 -125.05,-53.8 -87.61,-131.7 l 40.65,-84.4 984.06,-137.1"
         style="fill:#ffb94a;fill-opacity:1;fill-rule:nonzero;stroke:none"
         id="path108" /><path
         d="m 14229.6,14461.8 -720.6,-3025 c 0,0 -1091.4,1795.7 -1424.4,1782.6 -212.2,-8.4 -727,-260.2 -629.8,-742.9 97.2,-482.8 1219.4,-3016.4 2401.6,-2950.9 1182.3,65.6 1305.9,3671.7 1052.6,4214 -253.4,542.2 -679.4,722.2 -679.4,722.2"
         style="fill:#ffd44d;fill-opacity:1;fill-rule:nonzero;stroke:none"
         id="path110" /><path
         d="m 11637.6,13450.9 c 128,-120.5 296.3,-119.6 411.4,-296.1 20.2,-50.8 -149.6,-392.4 -272.3,-347.9 -171.7,62.1 -328.2,167.4 -396.8,225.7 -68.7,58.4 -409.3,269.6 -359.4,306.6 49.8,37.1 242.9,-159.5 255.3,-136.1 12.3,23.5 -322.1,350.2 -290.1,401 27.6,43.8 325.4,-302.2 333.6,-276.1 8.1,26.1 -329.7,387.5 -292.1,425.8 37.5,38.3 391.3,-363.1 410.9,-342.1 19.6,21 -314.8,337.8 -257.4,376.3 47,31.5 339.6,-226.8 456.9,-337.1"
         style="fill:#ffbe91;fill-opacity:1;fill-rule:nonzero;stroke:none"
         id="path112" /><path
         d="m 13276.8,16685.1 c 0,0 -251.5,-64.1 -392.5,-68.6 -141.1,-4.5 -238.4,110.2 -251.2,135.1 -12.9,24.9 -68.6,240.5 160.3,332.8 228.8,92.4 97.5,131.7 372.5,135 274.9,3.3 800.5,-124.9 582.3,-323.8 -218.2,-198.8 -471.4,-210.5 -471.4,-210.5"
         style="fill:#994b45;fill-opacity:1;fill-rule:nonzero;stroke:none"
         id="path114" /><path
         d="m 14022.6,10609.7 c 0.3,0 0.7,0 1,0 15,0.6 26.7,13.2 26.1,28.2 -18.7,515.6 -506.2,810 -526.9,822.3 -10.9,6.4 -24.9,4.5 -33.6,-4.7 -8.7,-9.2 -9.9,-23.3 -2.8,-33.8 2,-3 202.4,-304.5 216.2,-540.3 0.9,-15 13.7,-26.4 28.7,-25.5 15,0.9 26.4,13.7 25.5,28.7 -9.3,158.8 -93.8,338.9 -156.7,452.9 143.1,-116 383,-360.2 395.4,-701.6 0.5,-14.7 12.6,-26.2 27.1,-26.2"
         style="fill:#ffb94a;fill-opacity:1;fill-rule:nonzero;stroke:none"
         id="path116" /><path
         d="m 12910.2,12349.8 c 12.4,8.4 29.3,5.3 37.8,-7.1 1.7,-2.5 174.2,-253.9 228.1,-334.5 9.8,-14.7 27.6,-42.1 50.2,-77 61.6,-94.9 209.2,-322.3 273.9,-405.8 3.5,18.2 7.8,41 12.7,66.8 50.1,264.2 183.3,966.1 274.9,1317.4 21,80.4 42.1,160.7 62.5,238.3 -5.1,4.8 -8.6,11.7 -8.7,20.9 0,16.9 -27.8,38.4 -37.2,51 -18.2,24.4 -34.6,49.9 -54.1,73.5 -34.1,41.1 -71.2,79.3 -103.4,122 -23.3,30.8 28.8,60.7 51.8,30.3 39.2,-51.9 86.6,-96.8 125,-149.3 13.8,-19 33.7,-39 49.9,-60.6 78.8,297.6 143.1,535 144.5,540.1 4.2,14.3 19.2,22.6 33.7,18.5 14.4,-4.2 22.7,-19.2 18.5,-33.6 -2,-6.8 -118,-435.7 -229.9,-864.8 -91.2,-349.6 -224.1,-1050.1 -274.2,-1313.8 -14.1,-74.5 -20.4,-107.8 -22.2,-115.1 -2.8,-11.8 -11.8,-20.4 -23.5,-22.4 -2.5,-0.5 -4.9,-0.9 -7.4,-0.9 -24.1,0 -59.8,37.9 -332.4,458 -22.4,34.6 -40,61.7 -49.8,76.3 -53.7,80.4 -226,331.5 -227.7,334 -8.5,12.4 -5.3,29.3 7,37.8"
         style="fill:#ffb94a;fill-opacity:1;fill-rule:nonzero;stroke:none"
         id="path118" /><path
         d="m 9767.86,7589.9 c 0.23,0 0.46,0 0.68,0 17.99,0.4 32.28,15.2 31.9,33.2 -0.12,6 -11.73,600.4 43.88,774.1 52.29,163.4 320.28,326.7 735.18,448 414.2,121.1 1358.9,549.2 1368.4,553.5 16.3,7.5 23.6,26.8 16.2,43.2 -7.5,16.4 -26.8,23.6 -43.2,16.2 -9.4,-4.3 -949.9,-430.5 -1359.7,-550.3 -442.4,-129.4 -719.08,-303.6 -778.94,-490.7 -58.89,-184 -47.47,-770.4 -46.96,-795.3 0.37,-17.8 14.88,-31.9 32.56,-31.9"
         style="fill:#ddc1a4;fill-opacity:1;fill-rule:nonzero;stroke:none"
         id="path120" /><path
         d="m 11468.6,9191.1 c 12.2,0 23.9,6.9 29.5,18.7 l 150.2,318.4 c 7.7,16.3 0.7,35.7 -15.5,43.4 -16.3,7.7 -35.7,0.7 -43.4,-15.6 l -150.2,-318.4 c -7.7,-16.2 -0.7,-35.7 15.5,-43.3 4.5,-2.2 9.2,-3.2 13.9,-3.2"
         style="fill:#ddc1a4;fill-opacity:1;fill-rule:nonzero;stroke:none"
         id="path122" /><path
         d="m 11179.7,7087.8 c 7.6,0 15.2,2.6 21.4,8 157.3,137 314.4,138.6 316,138.6 17.9,0 32.5,14.6 32.5,32.6 0,18 -14.6,32.6 -32.5,32.6 -7.4,0 -183.3,-1.8 -358.8,-154.6 -13.6,-11.9 -15,-32.4 -3.2,-46 6.5,-7.4 15.5,-11.2 24.6,-11.2"
         style="fill:#ddc1a4;fill-opacity:1;fill-rule:nonzero;stroke:none"
         id="path124" /><path
         d="m 11844.9,17525.1 c -19.3,-71.7 -67.6,-136.1 -114.2,-192.5 -53.6,-64.7 -126.9,-108 -198.5,-150 -35.8,-21 -72.3,-41.3 -111,-56.3 -42.2,-16.3 -86.9,-20.5 -130.1,-33 -170.7,-49.1 -352.1,-56.7 -525.8,-94.3 -72.8,-15.8 -230.9,-56 -240.9,-58.8 -80.7,-22.2 -54.1,-107.6 -26.3,-163.3 15,-30 33.6,-57.3 52.7,-84.8 34.6,-49.9 64.7,-103.6 100.8,-152.4 37.1,-50.3 79.2,-96.7 116.4,-147.1 36.8,-49.7 71.4,-100.9 105.6,-152.4 26.9,-40.6 50,-82.8 74.2,-124.5 -32.7,26.6 -62.6,56.4 -96.3,82 -95.4,72.7 -204.4,124.2 -297,201 -87.9,72.9 -185.7,132.5 -273.9,205.4 -47.3,39.1 -95.8,76.8 -149.4,107.1 -23.4,13.2 -118,89.4 -148.49,89.1 -35.63,-0.4 -191.79,-30.5 -269.14,-43.1 -89.2,-14.4 -172.55,-50.3 -260.11,-71.7 -92.32,-22.6 -180.54,-58.5 -273.64,-77.6 -87.2,-18 -174.52,-33.1 -261.49,-52.4 -89.58,-19.9 -181.33,-31.3 -271.91,-45.7 -91.11,-14.5 -179.9,-39.3 -270.87,-54.2 -166.42,-27.3 -347.92,-50.8 -516.71,-34.3 -79.06,7.7 -160.46,46.2 -229.59,83.8 -77.76,42.3 -130.51,116.1 -182.99,185.5 -105.28,139.2 -193.68,297.2 -253.51,461.5 -51.61,141.8 -91.8,310.6 -61.13,461.6 17.04,83.9 69.72,153.3 113.71,225 44.19,72 92.48,136.7 161.44,186.9 66.3,48.2 152.09,80.8 229.96,104.9 41.08,12.8 85.36,12 126.98,23.2 43.47,11.7 85.65,22.1 130.16,29.3 87.5,14.3 175.26,29.3 263.76,35.8 95.91,7 192.41,2.7 288.48,4.7 89.85,1.9 179.73,4.1 269.57,6.4 83.65,2.2 171.25,4 254.1,14.9 40.39,5.3 77.25,10.9 118.16,11.7 44.73,0.9 87.75,12.3 132.2,15.5 87.85,6.5 174.32,18 262.52,20.4 92.97,2.5 185.3,15 278.22,19.6 93.26,4.7 185.47,12.3 278.32,22.4 187.1,20.5 371.4,56 557.7,81.9 167.7,23.3 355.5,28.6 519.6,-15.2 78.9,-21.1 156,-33.6 231.9,-64.7 78.2,-32.1 145.5,-81.7 206.8,-140.3 120.2,-114.7 218.2,-271.6 267.1,-430.5 23.5,-76.3 44.1,-160.9 22.6,-240.5 z m -33.6,481.4 c -83,145.9 -192.6,268.2 -329.9,364.9 -67.5,47.5 -158,77 -238.2,93.1 -85.5,17.2 -169.8,47.5 -257.3,52.1 -191.5,10 -376.5,-7.8 -565.3,-37.8 -201.2,-32 -403.2,-63.8 -606.85,-74.6 -97.5,-5.1 -194.54,-15.2 -291.88,-20.9 -47.51,-2.7 -95.22,-1.5 -142.68,-4.8 -48.7,-3.5 -96.73,-13 -145.44,-16.3 -184.21,-12.6 -366.53,-40.5 -551.86,-43.8 -100.39,-1.8 -200.82,-5.8 -301.21,-6.2 -97.48,-0.5 -195,1 -292.06,-9.6 -92.82,-10.2 -187.57,-23.3 -278.77,-43.6 -88.42,-19.6 -177.35,-34.3 -261.56,-67.7 -83.62,-33.2 -161.11,-62.3 -231,-121.5 -66.62,-56.5 -113.78,-127 -158.63,-201 -43.14,-71.3 -90.31,-137.2 -110.58,-219.1 -19,-76.8 -18.48,-156.6 -9.73,-234.9 19.73,-176.4 83.69,-331.1 158.32,-489.8 40.74,-86.6 90.28,-168.7 146.44,-246.2 53.76,-74.2 110.52,-158.6 183.86,-214.9 62.44,-48 144.64,-83.9 219,-108.7 83.47,-27.8 169.66,-26.3 256.62,-24.4 193.96,4.2 380.48,32.5 569.76,74.8 73.83,16.4 148.44,29 223.55,38 115.78,13.7 228.18,45 342.85,65 100.66,17.7 193.09,53.8 291.46,78.8 92.71,23.7 184.78,60.9 278.63,77.9 70.77,12.7 141.99,23.5 213.14,34.5 19.21,2.9 38.59,-1.7 55.1,-11.9 10.9,-6.8 22.5,-12.7 33.82,-18.3 62.8,-31.5 120.2,-61.6 175.9,-105.2 60.2,-47.3 116.5,-98.8 181.1,-140.7 47.5,-30.8 92.9,-64.5 136.7,-100.3 102.4,-83.6 226.7,-137.5 325.7,-224.8 44,-38.8 86.6,-76.4 138.2,-105.1 44.4,-24.6 79.7,-81.6 136,-73.2 15.3,2.3 29.5,13.5 34.9,28.2 15.6,43.3 -9.7,65.9 -34.7,98.1 -32.8,42.2 -59,83.8 -84.8,130.3 -57.3,103.5 -130.4,203 -200.3,297 -25.4,34.2 -52.7,66.8 -80,99.5 -36.7,44.2 -60.3,96.6 -94.9,142.2 -22.5,29.6 -41.7,56 -56,82.2 -6.9,12.6 -30.5,45.3 -8.1,57.2 178.6,60 366.2,88.2 552.3,114.8 89.4,12.7 176,32.9 263.6,54.7 88.4,22 166.6,70.9 243.1,118.6 129.3,80.5 252.7,209 292.4,360.7 44.5,170.2 -38.1,357.5 -120.7,502.7"
         style="fill:#9ad0d6;fill-opacity:1;fill-rule:nonzero;stroke:none"
         id="path126" /><path
         d="m 9931.97,17777.9 c -63.03,-21 -129.34,-29.3 -193.12,-47.6 -63.44,-18.3 -124.78,-43.3 -188.49,-60.7 -132.07,-36 -269.46,-50.6 -405.9,-56.9 -129.29,-5.9 -258.65,12.6 -387.77,-0.6 -137.68,-14.2 -277.38,-26.3 -410.68,-65.3 -54.83,-16.1 -41.34,-105.1 14.19,-88.9 133.29,39.1 273,51.2 410.68,65.3 135.13,13.9 271.74,-5.6 407.39,1.7 136.23,7.3 273.09,22.9 404.49,61 66.17,19.1 130.25,45.5 196.94,62.8 63.27,16.4 127.39,26.5 189.58,47.3 54.82,18.3 17.26,100.1 -37.31,81.9"
         style="fill:#ddc1a4;fill-opacity:1;fill-rule:nonzero;stroke:none"
         id="path128" /><path
         d="m 10613.3,17886.7 c -29.4,-0.2 -58.1,6.3 -87.5,6 -29.4,-0.4 -58.3,-7.1 -87.2,-11.9 -57.1,-9.4 -43.1,-98.3 14.2,-88.8 24.1,4 49.6,11.1 74.2,11.3 25.5,0.2 50.7,-6.2 76.3,-6.1 24.5,0.1 46.6,13.7 49.7,39.7 2.7,22 -15.5,49.8 -39.7,49.8"
         style="fill:#ddc1a4;fill-opacity:1;fill-rule:nonzero;stroke:none"
         id="path130" /><path
         d="m 9959.77,17487.6 c -99.64,-15.4 -191.95,-53.9 -287.11,-85.4 -97.25,-32.1 -190.48,-25.1 -290.96,-18 -94.52,6.7 -189.33,5.2 -283.95,1.4 -49.09,-2 -94.63,-8.5 -141.77,-22.5 -42.08,-12.6 -81.98,-33.2 -123.81,-45.2 -54.92,-15.9 -41.41,-105 14.19,-88.9 40.23,11.6 77.86,30.2 117.8,43.1 48.94,15.8 96.54,22.5 147.78,24.6 98.99,4.1 197.29,2.8 296.07,-4.7 89.98,-6.8 178.45,-10 265.75,16.6 100.37,30.5 195.83,74 300.2,90.2 57.24,8.8 43.14,97.7 -14.19,88.8"
         style="fill:#ddc1a4;fill-opacity:1;fill-rule:nonzero;stroke:none"
         id="path132" /><path
         d="m 8122.96,15075.3 c -9.36,-73.6 -48.37,-144 -86.92,-206.2 -44.28,-71.4 -111,-124.3 -176.2,-175.7 -32.53,-25.7 -65.92,-50.8 -102.23,-70.9 -39.6,-21.9 -83.27,-32.2 -124.45,-50.4 -162.38,-71.9 -341.02,-104.2 -508.01,-165.2 -69.95,-25.5 -221.06,-86.9 -230.66,-91 -76.89,-33.1 -38.84,-114 -3.73,-165.4 18.95,-27.7 41.12,-52.2 63.77,-76.8 41.1,-44.8 78.19,-93.8 120.58,-137.2 43.69,-44.8 91.66,-85.1 135.45,-129.9 43.19,-44.3 84.44,-90.2 125.34,-136.6 32.2,-36.5 60.82,-75.1 90.45,-113.2 -35.98,21.9 -69.68,47.3 -106.49,68.1 -104.44,59 -219.45,95.2 -321.7,158.6 -97.03,60.2 -202.03,105.9 -299.33,166.1 -52.21,32.3 -105.39,63.1 -162.58,85.8 -24.99,9.9 -129.07,72.5 -159.26,68 -35.25,-5.2 -185.85,-56.4 -260.76,-79.3 -86.4,-26.6 -164.09,-73.4 -247.9,-106.6 -88.38,-35 -170.89,-82.5 -260.51,-114.2 -83.94,-29.6 -168.38,-56.5 -251.91,-87.5 -86.02,-31.9 -175.37,-55.7 -263.14,-82.4 -88.27,-26.8 -172.85,-63.5 -260.94,-90.6 -161.15,-49.7 -337.74,-97.8 -507.21,-104.5 -79.38,-3.1 -165.25,23.9 -238.87,51.8 -82.81,31.3 -145.12,97.2 -206.57,158.8 -123.29,123.6 -232.4,268 -314.07,422.7 -70.46,133.3 -133.29,295.1 -123.5,448.9 5.45,85.4 48.17,161.4 81.97,238.4 33.97,77.3 72.98,148 134.45,207.2 59.11,56.8 139.66,100.7 213.51,135.3 38.96,18.2 82.93,23.5 122.63,40.2 41.47,17.5 81.84,33.6 124.95,46.8 84.74,26.1 169.62,53 256.42,71.4 94.06,20 190.25,28.9 285.14,44 88.75,14.2 177.51,28.5 266.19,43.1 82.57,13.5 169.11,27.3 249.69,49.4 39.29,10.8 75.05,21.3 115.47,27.7 44.18,7 85.26,24.1 128.84,33.4 86.16,18.4 170.24,41.6 257.29,56 91.75,15.2 181.52,40.1 272.95,57.4 91.76,17.3 182.06,37.4 272.61,60.1 182.61,45.8 360.36,106.1 541.4,157.2 162.94,45.9 348.27,76.8 516.82,55.8 81.05,-10.1 159.06,-12 238.52,-32.5 81.88,-21.1 155.34,-61.1 224.05,-110.8 134.69,-97.3 253.19,-239.3 323.26,-390.1 33.66,-72.4 65.61,-153.4 55.19,-235.2 z m -98.91,472.3 c -102.16,133.2 -227.34,239.5 -376.62,316.6 -73.27,37.9 -166.96,54.7 -248.62,59.7 -87.02,5.4 -174.74,23.9 -262.01,16.5 -191.04,-16.2 -371.95,-59 -554.84,-114.5 -194.94,-59 -390.77,-118.2 -591.05,-156.6 -95.89,-18.4 -190.64,-41.6 -286.31,-60.5 -46.68,-9.2 -94.12,-14.4 -140.68,-24.2 -47.77,-10.1 -94.06,-26.1 -141.86,-36 -180.77,-37.6 -357.6,-90.1 -540.74,-118.6 -99.21,-15.5 -198.14,-33.1 -297.54,-47.3 -96.51,-13.7 -193.33,-25.5 -288.02,-49.3 -90.58,-22.7 -182.64,-48.6 -270.24,-81.1 -84.91,-31.5 -171,-58.2 -249.87,-102.9 -78.32,-44.2 -151.12,-83.6 -212.28,-151.8 -58.31,-65 -95.41,-141.3 -129.75,-220.8 -33.02,-76.4 -70.76,-148.1 -79.67,-232.1 -8.34,-78.7 3.05,-157.6 22.38,-234 43.6,-172 128.06,-316.6 223.62,-463.6 52.16,-80.2 112.44,-154.8 178.64,-224 63.38,-66.1 131.11,-142 211.46,-187.8 68.4,-39 154.72,-63.4 231.76,-77.8 86.49,-16.2 171.67,-2.9 257.56,10.8 191.57,30.6 372.49,84.1 554.25,151.8 70.89,26.3 143.07,49 216.28,68.1 112.82,29.4 219.9,75.7 330.77,111.2 97.31,31.2 183.96,79.6 277.99,117.8 88.63,36.1 174.75,85.5 265.42,115.1 68.37,22.3 137.46,42.7 206.45,63.2 18.62,5.6 38.44,3.7 56.21,-4.2 11.71,-5.2 24.01,-9.5 35.98,-13.6 66.47,-22.6 127.49,-44.6 188.58,-80.2 66.14,-38.6 128.91,-81.9 198.65,-114.6 51.2,-24.1 100.79,-51.3 149.06,-80.7 112.83,-68.9 243.3,-105.4 353.34,-178.4 48.86,-32.5 96.22,-63.8 151.2,-85.2 47.36,-18.4 90.06,-70 144.72,-54 14.88,4.4 27.44,17.3 30.69,32.6 9.6,45.1 -18.51,64.1 -47.67,92.5 -38.28,37.4 -69.9,75 -101.77,117.6 -70.88,94.6 -156.9,183.2 -238.92,266.9 -29.82,30.4 -61.39,58.9 -92.87,87.7 -42.41,38.7 -72.9,87.4 -113.44,127.8 -26.32,26.3 -48.92,49.8 -66.67,73.8 -8.5,11.6 -36.35,40.8 -15.75,55.6 168.74,83.8 350.68,137.3 531.45,189 86.79,24.8 169.91,56.6 253.68,90.1 84.53,33.9 155.32,93.1 224.63,150.7 117.2,97.4 221.91,241.5 240.52,397.2 20.9,174.7 -86.44,349 -188.1,481.5"
         style="fill:#9ad0d6;fill-opacity:1;fill-rule:nonzero;stroke:none"
         id="path134" /><path
         d="m 7284.02,15504.6 c -103.76,-44.6 -213.91,-75.3 -319.1,-117 -104.64,-41.5 -205.28,-90.2 -310.42,-130.7 -217.97,-84.1 -446.37,-144.7 -673.81,-195.4 -215.52,-48 -432.94,-67.5 -647.62,-124 -228.95,-60.2 -461.4,-118.7 -681.2,-206.7 -90.41,-36.2 -61.39,-135.9 30.17,-99.2 219.79,87.9 452.26,146.4 681.19,206.6 224.69,59.2 454.28,79.8 680.33,131.5 227,51.8 454.47,113.5 671.16,199.7 109.13,43.4 214.24,94.5 324.36,135.9 104.48,39.3 210.85,71.5 313.21,115.5 90.22,38.7 21.53,122.3 -68.27,83.8"
         style="fill:#ddc1a4;fill-opacity:1;fill-rule:nonzero;stroke:none"
         id="path136" /><path
         d="m 7351.58,15174.5 c -165.3,-49.7 -316.69,-124 -473.34,-190.9 -160.08,-68.5 -316.31,-89.9 -484.66,-113.5 -158.36,-22.2 -316.62,-54.1 -474.37,-88.6 -81.84,-18 -157.44,-40 -235.15,-71.4 -69.37,-28.1 -134.52,-64.7 -203.5,-92.1 -90.58,-36 -61.54,-135.7 30.16,-99.3 66.36,26.4 127.85,60.1 193.63,87.8 80.59,34 159.6,57 245.03,75.7 165.04,36.2 329.33,66 494.86,88.6 150.79,20.6 298.78,45 442.67,103.8 165.42,67.5 321.69,148.6 494.83,200.6 94.96,28.6 64.92,127.9 -30.16,99.3"
         style="fill:#ddc1a4;fill-opacity:1;fill-rule:nonzero;stroke:none"
         id="path138" /></g></g></svg>
